<svg width="64" height="64" viewBox="0 0 64 64" fill="none" xmlns="http://www.w3.org/2000/svg">
<g clip-path="url(#clip0_1728_170)">
<path fill-rule="evenodd" clip-rule="evenodd" d="M21.048 17.5005C20.8528 17.5041 20.663 17.5658 20.5024 17.6777C20.3418 17.7896 20.2176 17.9466 20.1451 18.1294C19.9157 18.6816 19.8239 19.2928 19.8933 19.9106L20.025 21.1098C20.1375 22.1132 20.5957 23.212 21.6254 23.8246L22.0051 24.0512C22.287 24.2192 22.5088 24.4639 22.6445 24.7543L24.8183 29.4066C25.9882 31.9082 28.5155 33.5003 31.2816 33.5003H31.7699C34.536 33.5003 37.0633 31.9082 38.2332 29.4066L40.407 24.7543C40.5427 24.4639 40.7645 24.2188 41.0464 24.0512L41.4261 23.8246C42.4557 23.2118 42.91 22.113 43.0226 21.1098C43.0239 21.1098 43.0252 21.1098 43.0266 21.1098L43.1583 19.9106C43.2275 19.2942 43.1343 18.6801 42.9025 18.1255C42.8519 18.0044 42.7781 17.8946 42.6854 17.8022C42.5926 17.7099 42.4828 17.6369 42.3621 17.5874C42.2413 17.5379 42.1121 17.5128 41.9818 17.5137C41.8515 17.5145 41.7226 17.5412 41.6025 17.5923C41.4824 17.6433 41.3734 17.7178 41.2819 17.8113C41.1903 17.9048 41.1179 18.0155 41.0688 18.1372C41.0197 18.2589 40.9948 18.3891 40.9956 18.5205C40.9965 18.6519 41.0229 18.7818 41.0736 18.9028C41.1759 19.1474 41.2164 19.4172 41.1859 19.688L41.0541 20.8872C40.9853 21.5 40.7957 21.8776 40.4187 22.102L40.0389 22.3286C39.418 22.6978 38.9199 23.246 38.613 23.9028L36.4352 28.555C35.5964 30.3488 33.781 31.5003 31.7699 31.5003H31.2816C29.2704 31.5003 27.4512 30.3488 26.6124 28.555L24.4386 23.9028C24.1316 23.246 23.6335 22.6978 23.0126 22.3286L22.6329 22.102C22.2557 21.8776 22.066 21.4998 21.9974 20.8872L21.8617 19.688C21.8313 19.4186 21.8756 19.1498 21.9779 18.9028C22.0451 18.7489 22.0726 18.5803 22.058 18.4128C22.0435 18.2453 21.9872 18.0844 21.8945 17.9446C21.8018 17.8048 21.6757 17.6906 21.5277 17.613C21.3797 17.5354 21.2147 17.4968 21.0479 17.5005H21.048Z" fill="#FF8A00"/>
<path d="M30.85 0.505181C27.1714 0.56718 23.5472 1.18495 20.71 2.35294C17.8386 3.53493 16.0329 5.39984 15.9093 7.57541C15.7857 9.75099 17.4489 11.7271 20.3264 12.9191C20.5699 13.0201 20.8433 13.0196 21.0864 12.9174C21.3294 12.8152 21.5223 12.6197 21.6225 12.3742C21.7227 12.1287 21.722 11.8531 21.6206 11.6081C21.5193 11.363 21.3255 11.1686 21.0819 11.0676C18.64 10.056 17.8278 8.77028 17.8892 7.68869C17.9507 6.60711 18.9926 5.21922 21.4578 4.20424C26.4573 2.14646 35.1746 1.98307 40.6684 3.88405C43.3658 4.81724 44.5535 6.21321 44.6593 7.3292C44.7123 7.88739 44.5474 8.46688 44.02 9.12227C43.4924 9.77786 42.5896 10.4736 41.2651 11.0832C41.1443 11.1361 41.0352 11.2127 40.9441 11.3085C40.853 11.4044 40.7817 11.5176 40.7345 11.6415C40.6872 11.7655 40.6649 11.8977 40.6688 12.0304C40.6728 12.1631 40.7029 12.2936 40.7574 12.4145C40.812 12.5353 40.8898 12.6441 40.9865 12.7343C41.0831 12.8245 41.1966 12.8943 41.3203 12.9399C41.444 12.9854 41.5755 13.0057 41.707 12.9994C41.8386 12.9932 41.9676 12.9605 42.0865 12.9035C43.6143 12.2003 44.7773 11.359 45.5621 10.384C46.3468 9.40899 46.7422 8.26471 46.6354 7.13792C46.4218 4.88454 44.4128 3.06656 41.3116 1.99357C38.2599 0.937579 34.5285 0.443181 30.85 0.505181Z" fill="#FF8A00"/>
<path d="M31.8511 8.07725C29.306 8.01925 26.8707 8.25518 24.838 8.72177C22.8053 9.18757 21.1733 9.82145 20.1574 10.9014C20.0601 10.995 19.9827 11.1074 19.9299 11.232C19.8771 11.3566 19.8499 11.4908 19.8501 11.6263C19.8503 11.7618 19.8778 11.8958 19.9309 12.0203C19.9841 12.1448 20.0618 12.2571 20.1593 12.3504C20.2568 12.4437 20.3722 12.5161 20.4983 12.563C20.6244 12.61 20.7586 12.6308 20.8929 12.6238C21.0271 12.6169 21.1586 12.5825 21.2793 12.5228C21.4 12.463 21.5073 12.3793 21.5949 12.2764C22.0699 11.7714 23.4424 11.092 25.2797 10.671C27.117 10.2498 29.4145 10.0234 31.8085 10.0772C34.2025 10.1312 36.3806 10.4606 38.008 10.9522C39.6353 11.4438 40.6435 12.1908 40.8132 12.5186C40.869 12.6425 40.9493 12.7535 41.0491 12.845C41.149 12.9365 41.2663 13.0066 41.3938 13.0508C41.5214 13.0951 41.6566 13.1126 41.7912 13.1023C41.9257 13.0921 42.0568 13.0543 42.1763 12.9913C42.2959 12.9282 42.4014 12.841 42.4865 12.7354C42.5716 12.6298 42.6344 12.5079 42.6711 12.377C42.7078 12.2461 42.7176 12.109 42.7 11.9742C42.6823 11.8393 42.6376 11.7097 42.5685 11.5928C41.89 10.283 40.4335 9.59877 38.5776 9.03818C36.7216 8.47738 34.3963 8.13445 31.8511 8.07725Z" fill="#FF8A00"/>
<path fill-rule="evenodd" clip-rule="evenodd" d="M19.8707 12.0005V15.5004C19.8707 15.7657 19.9752 16.0199 20.1612 16.2075C20.3472 16.395 20.5995 16.5004 20.8626 16.5004H41.6928C41.9559 16.5004 42.2081 16.395 42.3941 16.2075C42.5802 16.0199 42.6847 15.7657 42.6847 15.5004V12.0005H40.7009V14.5005H21.8545V12.0005H19.8707Z" fill="#FF8A00"/>
<path fill-rule="evenodd" clip-rule="evenodd" d="M37.9337 37.5047C37.7331 37.5071 37.538 37.5708 37.374 37.6873C37.2101 37.8038 37.085 37.9675 37.0153 38.157L31.9234 51.8412L25.9596 38.1062C25.8964 37.9591 25.799 37.8295 25.6756 37.7283C25.5522 37.6271 25.4065 37.5573 25.2507 37.5247C25.095 37.4922 24.9337 37.4979 24.7806 37.5413C24.6274 37.5847 24.4869 37.6646 24.3708 37.7742L20.1857 41.7109C20.0828 41.8078 20.0015 41.9254 19.9473 42.0564C19.893 42.1873 19.867 42.3286 19.8711 42.4704C19.8751 42.6123 19.9091 42.7515 19.9707 42.8791C20.0323 43.0067 20.1201 43.1197 20.2284 43.2104L22.4566 45.0849L21.0809 46.819C20.9514 46.9814 20.8754 47.1804 20.8636 47.3884C20.8518 47.5963 20.9048 47.8028 21.0151 47.9789L31.1562 64.0376C31.2469 64.181 31.3724 64.2987 31.5209 64.3796C31.6693 64.4605 31.8358 64.502 32.0046 64.5C32.1733 64.498 32.3388 64.4526 32.4853 64.3681C32.6318 64.2837 32.7546 64.1631 32.8419 64.0176L42.5413 47.9592C42.647 47.7838 42.6966 47.5799 42.6835 47.3752C42.6703 47.1705 42.595 46.975 42.4677 46.8149L41.092 45.0808L43.3202 43.2063C43.4321 43.1122 43.522 42.9942 43.5836 42.8611C43.6452 42.7279 43.677 42.5829 43.6766 42.436C43.6762 42.2891 43.6437 42.144 43.5814 42.0112C43.5192 41.8784 43.4286 41.7613 43.3162 41.6677L38.577 37.731C38.3964 37.5799 38.1684 37.4983 37.9337 37.5005V37.5047ZM38.3871 40.1682L41.1345 42.449L39.0769 44.1753C38.8781 44.3428 38.7522 44.582 38.7262 44.8418C38.7001 45.1015 38.7759 45.3612 38.9374 45.5654L40.4874 47.518L31.9738 61.6084L23.0727 47.5102L24.6111 45.5654C24.7726 45.3612 24.8484 45.1015 24.8224 44.8418C24.7963 44.582 24.6704 44.3428 24.4717 44.1753L22.3598 42.4021L24.7003 40.2031L31.0826 54.9032C31.1614 55.0863 31.2927 55.2414 31.4597 55.3487C31.6267 55.456 31.8217 55.5106 32.0197 55.5052C32.2177 55.4998 32.4096 55.4347 32.5706 55.3184C32.7316 55.2022 32.8545 55.0403 32.9233 54.8531L38.3871 40.1682Z" fill="#FF8A00"/>
<path fill-rule="evenodd" clip-rule="evenodd" d="M31.8514 35.5025C31.7709 35.5094 31.6915 35.5262 31.615 35.5525L28.6393 36.5525C28.4951 36.6013 28.364 36.6828 28.2561 36.7908C28.1482 36.8988 28.0664 37.0304 28.017 37.1753C27.9675 37.3203 27.9518 37.4749 27.971 37.627C27.9903 37.7791 28.0439 37.9247 28.1278 38.0525L30.6037 41.7947L27.6512 45.9155L29.2631 47.0834L31.7778 43.5717L34.0793 47.0524L35.7299 45.9428L33.0177 41.8413L35.7105 38.0835C35.801 37.9562 35.8606 37.8093 35.8845 37.6546C35.9083 37.4998 35.8958 37.3416 35.848 37.1927C35.8001 37.0437 35.7182 36.9084 35.6088 36.7972C35.4995 36.6859 35.3658 36.6021 35.2185 36.5525L32.2427 35.5525C32.1169 35.5096 31.9838 35.4926 31.8514 35.5025ZM31.929 37.5533L33.3083 38.0181L31.8437 40.0647L30.4992 38.0337L31.929 37.5533Z" fill="#FF8A00"/>
<path fill-rule="evenodd" clip-rule="evenodd" d="M19.7196 37.6353L12.2802 40.6352C12.0465 40.7305 11.8575 40.9118 11.7517 41.1425C11.6459 41.3733 11.6312 41.6361 11.7107 41.8774L13.1985 46.3773C13.2403 46.504 13.3068 46.621 13.3942 46.7213C13.4815 46.8217 13.5879 46.9033 13.7071 46.9616C13.8263 47.0198 13.9558 47.0535 14.0881 47.0604C14.2203 47.0674 14.3526 47.0477 14.4772 47.0023L19.9327 45.0024L19.2546 43.1232L14.7562 44.7716L13.8882 42.1389L20.4597 39.4905L19.7196 37.6353Z" fill="#FF8A00"/>
<path fill-rule="evenodd" clip-rule="evenodd" d="M10.4925 42.1402C10.2343 42.1381 9.9855 42.2376 9.79891 42.4175C8.02981 44.0755 6.72271 46.2338 6.09449 48.6872C6.08471 48.7234 6.07696 48.76 6.07128 48.7971L4.00984 63.3594C3.9899 63.501 4.00034 63.6453 4.04044 63.7825C4.08054 63.9197 4.14938 64.0467 4.2423 64.1548C4.33522 64.2629 4.45006 64.3497 4.57908 64.4092C4.7081 64.4688 4.84829 64.4998 4.99019 64.5H58.557C58.6989 64.4998 58.8391 64.4688 58.9681 64.4092C59.0971 64.3497 59.212 64.2629 59.3049 64.1548C59.3978 64.0467 59.4667 63.9197 59.5068 63.7825C59.5469 63.6453 59.5573 63.501 59.5374 63.3594L57.4759 48.7971C57.4702 48.76 57.4625 48.7234 57.4527 48.6872C56.8245 46.2338 55.5174 44.0755 53.7483 42.4175C53.5556 42.2367 53.2996 42.1407 53.0365 42.1502C52.7734 42.1597 52.5249 42.274 52.3456 42.4683C52.1663 42.6625 52.0708 42.9206 52.0802 43.1858C52.0897 43.451 52.2032 43.7016 52.3959 43.8823C53.8912 45.2837 54.9939 47.105 55.5269 49.1794L57.414 62.4993H6.13333L8.02041 49.1794C8.55334 47.105 9.65609 45.2837 11.1513 43.8823C11.2997 43.7472 11.4041 43.57 11.4509 43.374C11.4976 43.178 11.4845 42.9726 11.4133 42.7842C11.3421 42.5958 11.2161 42.4335 11.0518 42.3186C10.8875 42.2037 10.6926 42.1414 10.4926 42.1402H10.4925Z" fill="#FF8A00"/>
<path fill-rule="evenodd" clip-rule="evenodd" d="M13.919 57.5V63.4999H15.9028V57.5H13.919Z" fill="#FF8A00"/>
<path fill-rule="evenodd" clip-rule="evenodd" d="M43.8277 37.6353L43.0876 39.4905L49.659 42.1389L48.7911 44.7716L44.2926 43.1232L43.6146 45.0024L49.0701 47.0023C49.1946 47.0477 49.3269 47.0674 49.4592 47.0604C49.5915 47.0535 49.721 47.0198 49.8402 46.9616C49.9593 46.9033 50.0657 46.8217 50.1531 46.7213C50.2404 46.621 50.3069 46.504 50.3487 46.3773L51.8366 41.8774C51.916 41.6361 51.9013 41.3733 51.7955 41.1425C51.6897 40.9118 51.5008 40.7305 51.267 40.6352L43.8277 37.6353Z" fill="#FF8A00"/>
<path fill-rule="evenodd" clip-rule="evenodd" d="M47.6442 57.5V63.4999H49.628V57.5H47.6442Z" fill="#FF8A00"/>
</g>
<defs>
<clipPath id="clip0_1728_170">
<rect width="64" height="64" fill="white"/>
</clipPath>
</defs>
</svg>
