<svg width="24" height="24" viewBox="0 0 24 24" fill="none" xmlns="http://www.w3.org/2000/svg">
<path d="M21.6256 6.25735C21.4414 5.09692 20.3805 4.08288 19.2064 3.94839C14.415 3.42624 9.58104 3.42638 4.78968 3.9488C3.61982 4.08284 2.5589 5.09678 2.37369 6.26156C1.7913 10.0665 1.79153 13.9379 2.37438 17.7427C2.55886 18.9032 3.61982 19.9171 4.79362 20.0515C7.18687 20.3126 9.59255 20.4433 12 20.4431C14.4075 20.4433 16.8131 20.3126 19.2064 20.0515L19.2102 20.0511C20.3803 19.9172 21.4412 18.9032 21.6263 17.7383C22.2087 13.9335 22.2085 10.0621 21.6256 6.25735ZM15.416 12.624L10.916 15.624C10.8031 15.6993 10.6718 15.7425 10.5362 15.7491C10.4006 15.7556 10.2658 15.7252 10.1461 15.6612C10.0264 15.5971 9.92637 15.5018 9.85661 15.3854C9.78686 15.2689 9.75001 15.1357 9.75001 15V8.99995C9.75001 8.86421 9.78686 8.731 9.85661 8.61455C9.92637 8.4981 10.0264 8.40277 10.1461 8.33872C10.2658 8.27466 10.4006 8.24429 10.5362 8.25085C10.6718 8.2574 10.8031 8.30063 10.916 8.37593L15.416 11.3759C15.5188 11.4444 15.603 11.5372 15.6613 11.6461C15.7195 11.7549 15.75 11.8765 15.75 12C15.75 12.1234 15.7195 12.245 15.6613 12.3538C15.603 12.4627 15.5188 12.5555 15.416 12.624Z" fill="black"/>
</svg>
