<svg width="106" height="106" viewBox="0 0 106 106" fill="none" xmlns="http://www.w3.org/2000/svg">
<path d="M94.8847 32.7358L93.6499 30.1486C93.5483 29.9382 93.3675 29.7768 93.147 29.6996C92.9265 29.6224 92.6844 29.6359 92.4739 29.737L88.4671 31.6522L86.1991 26.9146C86.1534 26.8075 86.0859 26.7111 86.001 26.6315C85.9161 26.5519 85.8156 26.4908 85.7058 26.4521C85.596 26.4134 85.4794 26.3979 85.3633 26.4067C85.2472 26.4154 85.1342 26.4482 85.0315 26.503L83.3515 27.343L80.8315 25.4782C80.702 25.3869 80.551 25.3312 80.3933 25.3164C80.2356 25.3017 80.0768 25.3285 79.9327 25.3942L77.5471 26.5114C77.4389 26.5569 77.3414 26.6247 77.261 26.7102C77.1806 26.7958 77.1191 26.8972 77.0803 27.008C77.0415 27.1188 77.0264 27.2365 77.0359 27.3535C77.0454 27.4706 77.0793 27.5843 77.1355 27.6874L78.1519 29.8126L43.5943 46.2934L43.1575 45.8734C43.0315 45.7436 42.8669 45.6579 42.6884 45.6292C42.5098 45.6004 42.3267 45.6301 42.1663 45.7138L37.4959 47.9482L37.3195 47.7802C37.1906 47.6583 37.0284 47.5773 36.8535 47.5474C36.6786 47.5175 36.4988 47.54 36.3367 47.6122L34.2535 48.6118C34.0553 48.6973 33.8976 48.8558 33.8132 49.0544C33.7287 49.253 33.724 49.4765 33.7999 49.6786L33.9847 50.2498C33.8447 50.3216 33.7265 50.4296 33.6423 50.5625C33.5581 50.6955 33.511 50.8485 33.5059 51.0058L33.3463 55.8862L25.3663 59.6998L24.1819 59.473C23.9966 59.436 23.8042 59.4627 23.6359 59.5486L13.7071 64.303C13.498 64.404 13.3357 64.5814 13.2535 64.7986L12.9595 65.6386L9.7507 67.1758C9.38321 67.3519 9.10069 67.6667 8.96522 68.051C8.82976 68.4354 8.85245 68.8578 9.0283 69.2254L15.9079 83.623C16.1585 84.1476 16.6073 84.5512 17.1555 84.7449C17.7037 84.9387 18.3064 84.9068 18.8311 84.6562L20.6203 83.8162C21.0426 83.6079 21.3867 83.2691 21.6015 82.85C21.8164 82.431 21.8905 81.9539 21.8131 81.4894L19.8727 73.6522C19.7629 73.2024 19.8106 72.7287 20.0078 72.3099C20.205 71.8911 20.5398 71.5525 20.9563 71.3506L37.1347 63.6226C37.6508 63.7033 38.1221 63.9629 38.4661 64.356C38.8101 64.7491 39.0048 65.2507 39.0163 65.773C39.3143 68.8718 39.8964 71.9366 40.7551 74.929C40.7813 75.0396 40.8298 75.1437 40.8974 75.2351C40.9651 75.3264 41.0506 75.4031 41.1488 75.4604C41.247 75.5177 41.3557 75.5545 41.4686 75.5686C41.5814 75.5826 41.6959 75.5737 41.8051 75.5422L47.0719 74.2822C47.1835 74.2604 47.2896 74.2162 47.3836 74.1523C47.4777 74.0883 47.5578 74.006 47.619 73.9101C47.6803 73.8143 47.7215 73.707 47.74 73.5948C47.7586 73.4826 47.7542 73.3678 47.7271 73.2574L46.1311 65.0422C46.2148 65.0349 46.2969 65.015 46.3747 64.9834L46.4587 64.933C46.9963 64.597 50.4235 63.001 52.5991 62.0014C52.7298 61.9498 52.8433 61.8625 52.9267 61.7494L54.8671 60.817C55.0067 60.7485 55.1263 60.6454 55.2146 60.5174C55.3028 60.3895 55.3567 60.241 55.3711 60.0862V59.7922C59.9185 64.2998 65.3935 67.7625 71.4151 69.9394C71.5214 69.988 71.6367 70.0139 71.7536 70.0154C71.8705 70.0169 71.9864 69.994 72.0939 69.9481C72.2014 69.9022 72.2982 69.8344 72.378 69.7491C72.4579 69.6637 72.519 69.5625 72.5575 69.4522L75.5395 61.699C75.5846 61.5955 75.6084 61.4841 75.6094 61.3712C75.6105 61.2584 75.5888 61.1465 75.5457 61.0423C75.5026 60.938 75.4389 60.8435 75.3585 60.7643C75.278 60.6852 75.1824 60.6231 75.0775 60.5818C67.2487 57.0538 63.2671 53.4922 61.7047 51.8962L79.9915 43.1602L82.8223 49.0402C83.0565 49.5235 83.4717 49.8951 83.978 50.0744C84.4844 50.2537 85.0409 50.2261 85.5271 49.9978L87.1231 49.2334C87.3632 49.1183 87.5783 48.9571 87.7561 48.7588C87.9338 48.5605 88.0707 48.3292 88.1589 48.0779C88.247 47.8266 88.2848 47.5605 88.2699 47.2946C88.2551 47.0287 88.1879 46.7684 88.0723 46.5286L85.2415 40.6486L90.5671 38.1286C90.676 38.0838 90.7743 38.0167 90.8556 37.9315C90.9369 37.8463 90.9994 37.745 91.039 37.6341C91.0786 37.5232 91.0944 37.4052 91.0855 37.2878C91.0765 37.1704 91.043 37.0562 90.9871 36.9526L90.4579 35.8522L94.4647 33.937C94.5771 33.8927 94.6786 33.8248 94.7623 33.7377C94.8461 33.6507 94.91 33.5466 94.9499 33.4326C94.9898 33.3186 95.0046 33.1973 94.9933 33.0771C94.9821 32.9568 94.945 32.8404 94.8847 32.7358ZM45.7867 63.2866V63.1186C45.7759 63.0454 45.7532 62.9744 45.7195 62.9086L44.3755 60.2122L45.0055 59.9182C45.5983 60.9117 46.2968 61.8383 47.0887 62.6818C46.5511 62.9002 46.0891 63.127 45.7867 63.2866ZM48.7519 61.8922C48.7519 61.8922 48.7519 61.8166 48.6763 61.783C47.884 60.991 47.1876 60.1085 46.6015 59.1538L49.7095 57.667L51.0115 60.8338L48.7519 61.8922Z" fill="url(#paint0_linear_1727_345)"/>
<path d="M92.5076 25.6463L88.4672 27.5615L86.1992 22.8323C86.1075 22.634 85.9422 22.4793 85.7383 22.4009C85.5345 22.3225 85.3081 22.3266 85.1072 22.4123L83.4272 23.2523L80.9072 21.3959C80.7809 21.2978 80.6292 21.2378 80.47 21.2229C80.3108 21.208 80.1506 21.2389 80.0084 21.3119L77.5472 22.4123C77.3368 22.5138 77.1754 22.6947 77.0982 22.9152C77.021 23.1356 77.0345 23.3777 77.1356 23.5883L78.152 25.7135L43.628 42.2111L43.1912 41.7827C43.0606 41.6605 42.8965 41.58 42.7199 41.5516C42.5434 41.5231 42.3623 41.548 42.2 41.6231L37.5296 43.8575L37.3532 43.6895C37.2241 43.5732 37.0636 43.4976 36.8917 43.4722C36.7199 43.4468 36.5444 43.4727 36.3872 43.5467L34.2872 44.5379C34.0951 44.6294 33.9448 44.7905 33.8669 44.9885C33.7889 45.1865 33.789 45.4067 33.8672 45.6047L34.052 46.1843C33.909 46.2524 33.7882 46.3594 33.7035 46.4932C33.6188 46.627 33.5736 46.7819 33.5732 46.9403L33.3884 51.8123L25.4 55.6259L24.2156 55.4075C24.031 55.3745 23.8407 55.3979 23.6696 55.4747L13.7576 60.2123C13.5458 60.3139 13.3828 60.495 13.304 60.7163L13.01 61.5563L9.80118 63.0935C9.61875 63.179 9.45513 63.2998 9.31983 63.4491C9.18452 63.5984 9.08023 63.773 9.01302 63.963C8.9458 64.1529 8.917 64.3543 8.92829 64.5554C8.93958 64.7566 8.99074 64.9535 9.07878 65.1347L15.9584 79.5323C16.209 80.0569 16.6578 80.4605 17.206 80.6543C17.7542 80.848 18.3569 80.8161 18.8816 80.5655L20.6708 79.7255C21.0931 79.5172 21.4372 79.1784 21.652 78.7593C21.8668 78.3403 21.941 77.8632 21.8636 77.3987L19.9064 69.5867C19.7971 69.1381 19.8451 68.6657 20.0424 68.2483C20.2396 67.8309 20.5741 67.4939 20.99 67.2935L37.1684 59.5655C37.6866 59.6414 38.1607 59.8996 38.5056 60.2938C38.8505 60.6879 39.0435 61.1922 39.05 61.7159C39.3485 64.8118 39.9306 67.8739 40.7888 70.8635C40.815 70.9741 40.8634 71.0782 40.9311 71.1696C40.9988 71.2609 41.0843 71.3376 41.1825 71.3949C41.2806 71.4522 41.3894 71.489 41.5022 71.5031C41.615 71.5171 41.7295 71.5082 41.8388 71.4767L47.1056 70.2167C47.2172 70.1949 47.3233 70.1507 47.4173 70.0868C47.5114 70.0228 47.5915 69.9405 47.6527 69.8446C47.714 69.7488 47.7551 69.6415 47.7737 69.5293C47.7923 69.4171 47.7879 69.3023 47.7608 69.1919L46.1648 60.9767C46.2489 60.9667 46.331 60.944 46.4084 60.9095L46.4924 60.8591C47.03 60.5315 50.4572 58.9271 52.6328 57.9359C52.7601 57.8785 52.8722 57.7922 52.9604 57.6839L54.9176 56.7431C55.0587 56.6767 55.1797 56.5741 55.2682 56.4457C55.3568 56.3173 55.4097 56.1678 55.4216 56.0123V55.7267C59.972 60.2285 65.4463 63.6879 71.4656 65.8655C71.5717 65.908 71.6854 65.9284 71.7998 65.9255C71.9141 65.9225 72.0266 65.8962 72.1304 65.8483C72.2342 65.8003 72.3271 65.7316 72.4035 65.6465C72.4798 65.5613 72.538 65.4615 72.5744 65.3531L75.5564 57.5999C75.6365 57.3886 75.6334 57.1549 75.5476 56.9459C75.4618 56.7369 75.2998 56.5683 75.0944 56.4743C67.2824 52.9631 63.2672 49.3763 61.7384 47.8055L80.0672 39.0695L82.898 44.9915C83.1318 45.4643 83.5409 45.8272 84.0382 46.0029C84.5356 46.1786 85.0818 46.1533 85.5608 45.9323L87.1568 45.1763C87.3969 45.0613 87.612 44.9 87.7898 44.7017C87.9675 44.5035 88.1044 44.2721 88.1925 44.0208C88.2807 43.7696 88.3185 43.5034 88.3036 43.2375C88.2887 42.9717 88.2216 42.7113 88.106 42.4715L85.2752 36.5411L90.6008 34.0211C90.7097 33.9763 90.808 33.9092 90.8893 33.824C90.9706 33.7388 91.033 33.6375 91.0726 33.5266C91.1122 33.4157 91.1281 33.2977 91.1192 33.1803C91.1102 33.0629 91.0767 32.9487 91.0208 32.8451L90.4916 31.7447L94.4984 29.8295C94.6073 29.7847 94.7056 29.7176 94.7869 29.6324C94.8682 29.5472 94.9306 29.4459 94.9702 29.335C95.0098 29.2241 95.0257 29.1061 95.0168 28.9887C95.0078 28.8713 94.9743 28.7571 94.9184 28.6535L93.6836 26.0663C93.6388 25.9574 93.5717 25.8591 93.4865 25.7778C93.4013 25.6965 93.3 25.634 93.1891 25.5944C93.0782 25.5548 92.9602 25.5389 92.8428 25.5479C92.7254 25.5568 92.6112 25.5903 92.5076 25.6463ZM86.8796 28.2923L73.1624 34.8443L71.306 30.9551L79.706 26.9483L83.6708 25.0583L85.0316 24.4031L86.8796 28.2923ZM80.2184 23.1095L81.5708 24.0923L79.7312 24.9323L79.0928 23.5967L80.2184 23.1095ZM51.0452 56.7095L48.7856 57.7595C48.7856 57.7595 48.7856 57.6839 48.71 57.6587C47.9212 56.8605 47.2251 55.9757 46.6352 55.0211L49.7432 53.5343L51.0452 56.7095ZM45.0392 55.7855C45.6308 56.7747 46.3294 57.6958 47.1224 58.5323C46.5848 58.7927 46.1228 59.0279 45.8204 59.1875V59.0195C45.8108 58.946 45.7881 58.8748 45.7532 58.8095L44.4428 56.0711L45.0392 55.7855ZM86.3924 43.6055L84.8048 44.3615C84.7399 44.3909 84.6662 44.3942 84.5989 44.3708C84.5317 44.3473 84.4761 44.2989 84.4436 44.2355L81.6212 38.3555L83.6876 37.3643L86.5184 43.2443C86.534 43.2762 86.5432 43.311 86.5454 43.3465C86.5475 43.382 86.5426 43.4176 86.5308 43.4512C86.5191 43.4848 86.5008 43.5157 86.4771 43.5422C86.4533 43.5687 86.4245 43.5902 86.3924 43.6055ZM92.9444 28.6115L88.9376 30.5267C88.7272 30.6282 88.5658 30.8091 88.4886 31.0296C88.4114 31.25 88.4249 31.4921 88.526 31.7027L89.0468 32.8031L83.7212 35.3231C83.6561 35.3659 83.5943 35.4137 83.5364 35.4659C83.4587 35.4765 83.3826 35.4963 83.3096 35.5247L80.0672 37.1039L79.3532 37.4483L59.9072 46.7219C59.7889 46.7779 59.6845 46.8595 59.6017 46.9608C59.5189 47.0621 59.4596 47.1806 59.4283 47.3077C59.3969 47.4348 59.3942 47.5672 59.4204 47.6954C59.4465 47.8237 59.5009 47.9445 59.5796 48.0491C59.7308 48.2507 63.3512 52.9883 73.616 57.7259L71.2388 63.8999C64.6364 61.3799 58.2608 56.5667 55.4804 53.1395C55.3687 53.0001 55.2176 52.8975 55.0468 52.845C54.8761 52.7926 54.6935 52.7928 54.5228 52.8455C54.4616 52.8612 54.4025 52.8837 54.3464 52.9127C53.9012 53.1227 53.8172 53.6015 53.6828 55.3571L52.5992 55.8779L51.0032 52.0055C50.9601 51.8936 50.8936 51.7922 50.8081 51.7082C50.7226 51.6242 50.6202 51.5594 50.5076 51.5183C50.2843 51.4263 50.0337 51.4263 49.8104 51.5183L42.8384 54.8783C42.7302 54.9238 42.6327 54.9916 42.5523 55.0771C42.4719 55.1627 42.4104 55.2641 42.3716 55.3749C42.3328 55.4857 42.3177 55.6034 42.3272 55.7204C42.3367 55.8375 42.3706 55.9512 42.4268 56.0543L44.0648 59.4815L45.854 68.7215L42.242 69.5615C41.5267 66.9658 41.0404 64.3125 40.7888 61.6319C40.758 60.6447 40.3622 59.704 39.6779 58.9918C38.9936 58.2796 38.0695 57.8465 37.0844 57.7763C36.9283 57.7614 36.7712 57.7905 36.6308 57.8603L20.234 65.6807C19.4504 66.0569 18.8204 66.6917 18.4501 67.4781C18.0798 68.2646 17.9919 69.1546 18.2012 69.9983L20.1332 77.7095C20.1445 77.7933 20.1285 77.8786 20.0877 77.9527C20.0469 78.0268 19.9833 78.0858 19.9064 78.1211L18.1172 78.9611C18.0144 79.0078 17.8975 79.0129 17.791 78.9754C17.6845 78.9378 17.5967 78.8604 17.546 78.7595L10.7672 64.5719L14.1272 62.9759C14.3236 62.8682 14.4732 62.6916 14.5472 62.4803L14.8412 61.6403L24.1652 57.1883L25.3496 57.4151C25.5342 57.4481 25.7245 57.4247 25.8956 57.3479L34.6316 53.1479C34.779 53.0816 34.9041 52.9743 34.992 52.8387C35.0799 52.7031 35.1268 52.5451 35.1272 52.3835L35.2784 47.5031L35.4716 47.4107C35.6678 47.3252 35.824 47.1681 35.9083 46.9714C35.9926 46.7747 35.9986 46.5533 35.9252 46.3523L35.7404 45.7727L36.5804 45.3695L36.7568 45.5291C36.8825 45.6538 37.0445 45.7355 37.2195 45.7627C37.3945 45.7898 37.5736 45.761 37.7312 45.6803L42.3932 43.4543L42.83 43.8743C42.956 44.0041 43.1205 44.0897 43.2991 44.1184C43.4777 44.1472 43.6608 44.1175 43.8212 44.0339L69.6932 31.6775L71.936 36.3563C71.9807 36.4652 72.0479 36.5635 72.133 36.6448C72.2182 36.7261 72.3196 36.7885 72.4304 36.8282C72.5413 36.8678 72.6593 36.8836 72.7767 36.8747C72.8941 36.8657 73.0083 36.8322 73.112 36.7763L88.1732 29.5775C88.2662 29.572 88.3573 29.5492 88.442 29.5103L92.4572 27.5951L92.9444 28.6115Z" fill="black"/>
<path d="M49.5247 43.5721L38.9071 48.6625C38.6966 48.7627 38.5345 48.9425 38.4565 49.1623C38.3785 49.382 38.391 49.6237 38.4913 49.8343C38.5915 50.0448 38.7713 50.2069 38.9911 50.2849C39.2108 50.3628 39.4526 50.3503 39.6631 50.2501L50.3227 45.1597C50.4269 45.1095 50.5203 45.0393 50.5974 44.953C50.6745 44.8667 50.7338 44.7661 50.772 44.6569C50.8103 44.5477 50.8266 44.4321 50.8201 44.3165C50.8136 44.201 50.7845 44.0879 50.7343 43.9837C50.6841 43.8794 50.6139 43.7861 50.5276 43.709C50.4413 43.6319 50.3407 43.5725 50.2315 43.5343C50.1223 43.4961 50.0067 43.4798 49.8912 43.4862C49.7756 43.4927 49.6625 43.5219 49.5583 43.5721H49.5247Z" fill="black"/>
<path d="M38.5711 82.8252L37.2943 85.6728M52.4479 18.4224L52.3807 21.5388L52.4479 18.4224ZM51.0535 85.6392L50.9863 88.7556L51.0535 85.6392ZM86.8795 54.3156L83.7631 54.2484L86.8795 54.3156ZM19.6711 52.9296L16.5463 52.8624L19.6711 52.9296ZM27.3655 28.2084L29.5243 30.4596L27.3655 28.2084ZM73.9099 76.7184L76.0687 78.9696L73.9099 76.7184ZM28.5835 75.786L26.3323 77.9448L28.5835 75.786ZM39.2263 20.7072L40.3351 23.622L39.2263 20.7072ZM63.0991 83.556L64.1995 86.4708L63.0991 83.556ZM19.6375 39.162L22.4767 40.4472L19.6375 39.162ZM80.9575 66.7308L83.7967 68.016L80.9575 66.7308ZM66.1399 21.5052L64.8631 24.3528L66.1399 21.5052Z" stroke="black" stroke-width="2.72" stroke-linecap="round" stroke-linejoin="round"/>
<defs>
<linearGradient id="paint0_linear_1727_345" x1="91.8871" y1="27.1323" x2="38.8108" y2="106.534" gradientUnits="userSpaceOnUse">
<stop stop-color="#FF8A00"/>
<stop offset="1" stop-color="#FFC700"/>
</linearGradient>
</defs>
</svg>
