<svg width="106" height="106" viewBox="0 0 106 106" fill="none" xmlns="http://www.w3.org/2000/svg">
<path d="M59.9087 60.7078C59.9048 60.7469 59.9048 60.7863 59.9087 60.8254C59.904 60.856 59.904 60.8871 59.9087 60.9178C59.9203 60.959 59.9373 60.9985 59.9591 61.0354C59.9575 61.0186 59.9575 61.0017 59.9591 60.985C59.9591 60.985 60.4043 62.5642 57.4391 65.3866C56.6251 66.1505 55.6987 66.785 54.6923 67.2682L53.8523 56.8018C59.4299 57.2806 59.8751 60.523 59.9003 60.7078H59.9087Z" fill="url(#paint0_linear_1727_331)"/>
<path d="M71.4503 59.8092C67.3931 61.926 63.5879 63.5976 60.5303 64.8492C62.2103 62.6232 62.0003 61.086 61.8491 60.5232L61.0091 50.4432C60.9617 50.1755 60.8162 49.935 60.6009 49.7689C60.3857 49.6029 60.1162 49.523 59.8452 49.5451C59.5742 49.5671 59.3212 49.6895 59.1357 49.8882C58.9501 50.0869 58.8454 50.3477 58.8419 50.6196L59.3459 56.7768C57.4139 55.4244 54.6083 54.8784 50.9459 55.1724C41.7059 55.92 32.5331 59.9772 29.0219 61.6992L26.9387 36.2472C26.9062 35.9659 26.7657 35.7081 26.5469 35.5284C26.328 35.3487 26.0479 35.261 25.7656 35.2839C25.4834 35.3068 25.221 35.4385 25.034 35.6511C24.8469 35.8637 24.7498 36.1407 24.7631 36.4236L26.8967 62.4132L24.0407 62.64L21.1847 27.024L24.0407 26.7972L24.3179 30.2244C24.3504 30.5057 24.4908 30.7634 24.7097 30.9431C24.9286 31.1229 25.2087 31.2105 25.4909 31.1876C25.7732 31.1648 26.0356 31.0331 26.2226 30.8205C26.4096 30.6078 26.5068 30.3309 26.4935 30.048L26.2247 26.8644C27.1739 26.1336 27.7367 21.7152 41.8991 20.5728C55.2719 19.4976 56.8175 27.3348 57.0191 28.1328L57.7247 36.8352C57.7564 37.1157 57.8979 37.3722 58.1183 37.5485C58.3388 37.7249 58.6201 37.8067 58.9007 37.776C59.0394 37.7695 59.1754 37.7357 59.3009 37.6763C59.4264 37.617 59.5389 37.5333 59.6319 37.4302C59.7248 37.3271 59.7964 37.2065 59.8425 37.0756C59.8886 36.9446 59.9082 36.8058 59.9003 36.6672V36.2388C61.6643 37.6668 64.7051 39.5988 69.9299 41.766C76.5005 44.5034 83.7346 45.2341 90.7199 43.866C88.4519 47.226 82.8155 53.946 71.4839 59.826L71.4503 59.8092Z" fill="url(#paint1_linear_1727_331)"/>
<path d="M49.1063 41.3374C46.9072 41.4223 44.7201 41.7034 42.5711 42.1774C42.272 42.2393 41.9992 42.3918 41.7899 42.6142C41.3195 43.1014 40.8575 43.597 40.3955 44.101C40.1687 44.3446 40.3199 44.689 40.6223 44.605C44.1362 43.6216 47.7767 43.1659 51.4247 43.2526C51.7271 43.2526 51.8195 42.9082 51.5675 42.7234C51.0215 42.337 50.4671 41.959 49.8875 41.5894C49.6573 41.4308 49.3857 41.3431 49.1063 41.3374Z" fill="white"/>
<path d="M41.8654 40.8084C42.7642 38.7924 43.663 36.8268 44.5534 34.9284C44.6715 34.665 44.7038 34.3712 44.6458 34.0884C44.503 33.3912 44.3602 32.6856 44.209 31.98C44.1978 31.9149 44.1656 31.8553 44.1173 31.8103C44.069 31.7652 44.0073 31.7372 43.9416 31.7305C43.8759 31.7239 43.8098 31.7389 43.7534 31.7733C43.697 31.8078 43.6535 31.8597 43.6294 31.9212C42.0614 35.2812 40.471 38.8456 38.8582 42.6144C38.7322 42.9168 39.0094 43.1352 39.2782 42.9336C39.9418 42.438 40.597 41.9676 41.2606 41.514C41.5246 41.3403 41.7342 41.0958 41.8654 40.8084Z" fill="white"/>
<path d="M46.0992 34.7853C47.292 36.4653 48.4932 38.1929 49.7028 39.9681C49.8736 40.2139 50.1132 40.4039 50.3916 40.5141C51.0804 40.7997 51.7776 41.0937 52.4664 41.4129C52.752 41.5389 52.9872 41.2785 52.8108 41.0265C50.7024 37.8429 48.6108 34.7433 46.5192 31.7025C46.4846 31.6497 46.4343 31.6091 46.3754 31.5863C46.3165 31.5635 46.252 31.5597 46.1909 31.5755C46.1297 31.5912 46.0751 31.6257 46.0345 31.6741C45.994 31.7225 45.9696 31.7823 45.9648 31.8453L45.864 33.9873C45.8566 34.2714 45.9389 34.5506 46.0992 34.7853Z" fill="white"/>
<path d="M46.2503 25.2515C46.2083 26.0915 46.1747 26.9903 46.1327 27.8639C46.1116 28.2124 46.1997 28.5589 46.3847 28.8551C49.4003 33.3323 52.4495 37.8599 55.4903 42.5723C55.7029 42.8925 55.9915 43.1552 56.3303 43.3367C57.1703 43.8071 58.0103 44.2943 58.8503 44.8151C59.1527 44.9999 59.3963 44.7647 59.2115 44.4623C55.1207 37.7423 50.9543 31.2911 46.9055 25.1423C46.891 25.0554 46.8426 24.9778 46.7709 24.9266C46.6993 24.8754 46.6102 24.8548 46.5233 24.8693C46.4364 24.8837 46.3588 24.9321 46.3076 25.0038C46.2564 25.0755 46.2358 25.1646 46.2503 25.2515Z" fill="white"/>
<path d="M53.8187 44.7227C48.6252 44.2901 43.3988 44.957 38.4803 46.6799C38.1069 46.8187 37.7766 47.0533 37.5227 47.3603C36.8507 48.2003 36.1787 49.0403 35.5151 49.8803C35.2631 50.1995 35.4311 50.5607 35.7587 50.4179C42.3809 47.4078 49.7382 46.3976 56.9267 47.5115C57.2543 47.5619 57.3467 47.1923 57.0695 46.9655C56.3219 46.3355 55.5743 45.7307 54.8183 45.1427C54.5315 44.911 54.1849 44.7653 53.8187 44.7227Z" fill="white"/>
<path d="M36.3887 44.874C38.7071 39.1844 41.0059 33.9148 43.2851 29.0652C43.4336 28.7453 43.4777 28.3867 43.4111 28.0404L42.8819 25.4364C42.8698 25.3653 42.8345 25.3003 42.7816 25.2513C42.7288 25.2024 42.6612 25.1722 42.5895 25.1655C42.5177 25.1588 42.4457 25.1759 42.3847 25.2143C42.3237 25.2526 42.277 25.31 42.2519 25.3776C39.1775 32.0976 36.0275 39.5232 32.8859 47.772C32.7431 48.1416 33.0455 48.3348 33.3311 48.0576C34.1123 47.3016 34.8935 46.5708 35.6747 45.882C35.9866 45.605 36.2308 45.2601 36.3887 44.874Z" fill="white"/>
<path d="M93.7355 41.4889C93.5866 41.3433 93.4001 41.2418 93.197 41.1958C92.9938 41.1499 92.7818 41.1612 92.5847 41.2285C85.3744 43.2227 77.7029 42.7345 70.8035 39.8425C62.1179 36.2221 59.9759 33.4753 59.6147 32.9125L59.1947 27.8725C59.1947 27.8725 59.1947 27.8221 59.1947 27.8053C59.1988 27.7831 59.1988 27.7603 59.1947 27.7381C58.7032 25.9152 57.7515 24.2492 56.4311 22.8997C54.4319 20.8333 49.5599 18.6073 42.8651 19.1113C31.9451 19.9513 27.6611 23.5297 25.6031 24.7897C25.4138 24.6842 25.1975 24.6374 24.9815 24.6553L19.9415 25.0669C19.8025 25.0734 19.6661 25.1072 19.5401 25.1664C19.4142 25.2257 19.3011 25.3092 19.2075 25.4122C19.1139 25.5152 19.0415 25.6357 18.9945 25.7667C18.9474 25.8977 18.9267 26.0367 18.9335 26.1757L23.9735 87.7981C24.0052 88.0786 24.1467 88.3351 24.3671 88.5114C24.5876 88.6878 24.8689 88.7696 25.1495 88.7389L30.1895 88.3357C30.4696 88.3184 30.7315 88.1914 30.9186 87.9823C31.1057 87.7732 31.2029 87.4988 31.1891 87.2185L29.2571 63.9085C31.7771 62.6485 41.5463 57.9781 51.1643 57.1885L51.9287 57.1381L52.8527 68.3857C52.8449 68.4471 52.8449 68.5091 52.8527 68.5705C52.8687 68.6195 52.8883 68.6672 52.9115 68.7133C52.9345 68.7584 52.9627 68.8007 52.9955 68.8393L53.0795 68.9317C53.1073 68.966 53.1415 68.9946 53.1803 69.0157L53.2811 69.0745H53.3483H53.4659H53.5163H53.6843H53.8859C53.9418 69.0786 53.998 69.0786 54.0539 69.0745C54.0539 69.0745 54.3059 69.0073 54.6671 68.8813C60.7333 66.8436 66.6312 64.3356 72.3071 61.3801C88.6535 52.8541 93.5423 42.7909 93.7439 42.3709C93.8305 42.186 93.8584 41.979 93.8239 41.7778C93.7893 41.5766 93.694 41.3907 93.5507 41.2453L93.7355 41.4889ZM26.0567 86.5885L24.2591 64.6729L27.1151 64.4461L28.9043 86.3533L26.0567 86.5885ZM59.6567 60.7921V60.9013C59.6567 60.9013 59.6567 60.9601 59.6567 60.9937C59.6534 61.0272 59.6534 61.061 59.6567 61.0945C59.6567 61.0945 60.0683 62.5477 57.3383 65.1433C56.595 65.8496 55.7445 66.4337 54.8183 66.8737L54.1211 57.1885C59.2535 57.6337 59.6735 60.6241 59.6903 60.7921H59.6567ZM71.4167 59.8093C67.3595 61.9261 63.5543 63.5977 60.4967 64.8493C62.1767 62.6233 61.9667 61.0861 61.8155 60.5233L60.9167 49.6033C60.8696 49.3361 60.7247 49.0961 60.5103 48.9299C60.2959 48.7637 60.0274 48.6832 59.7569 48.7042C59.4864 48.7251 59.2334 48.846 59.0472 49.0433C58.861 49.2406 58.7549 49.5001 58.7495 49.7713L59.3207 56.7601C57.3887 55.4077 54.5831 54.8617 50.9207 55.1557C41.6807 55.9033 32.5079 59.9605 28.9967 61.6825L26.9135 36.2305C26.881 35.9492 26.7406 35.6915 26.5217 35.5117C26.3028 35.332 26.0227 35.2444 25.7405 35.2672C25.4582 35.2901 25.1958 35.4218 25.0088 35.6344C24.8218 35.847 24.7246 36.124 24.7379 36.4069L26.8715 62.3965L24.0155 62.6233L21.1847 27.0241L24.0407 26.7973L24.3179 30.2245C24.3504 30.5058 24.4909 30.7635 24.7097 30.9433C24.9286 31.123 25.2087 31.2106 25.491 31.1878C25.7732 31.1649 26.0356 31.0332 26.2226 30.8206C26.4097 30.608 26.5068 30.331 26.4935 30.0481L26.2247 26.8645C27.1739 26.1337 32.4659 22.0009 43.1759 21.1357C54.2387 20.2453 56.8175 27.3349 57.0191 28.1077L58.4471 45.6385C58.4788 45.919 58.6203 46.1755 58.8407 46.3518C59.0612 46.5282 59.3425 46.61 59.6231 46.5793C59.7658 46.5773 59.9065 46.5464 60.037 46.4886C60.1674 46.4307 60.2848 46.3471 60.3821 46.2428C60.4794 46.1384 60.5546 46.0155 60.6031 45.8813C60.6517 45.7471 60.6726 45.6046 60.6647 45.4621L59.9087 36.2221C61.6727 37.6501 64.7135 39.5821 69.9383 41.7493C76.5089 44.4868 83.743 45.2175 90.7283 43.8493C88.4603 47.2093 82.8239 53.9293 71.4923 59.8093H71.4167Z" fill="black"/>
<path d="M21.8818 22.8577L22.6546 22.7905C22.9293 22.7694 23.2012 22.8571 23.4117 23.0347C23.6223 23.2123 23.7546 23.4654 23.7802 23.7397L24.0658 27.2173L26.2246 27.0409L25.8802 22.7569C25.8312 22.1977 25.562 21.6809 25.132 21.3202C24.7019 20.9595 24.1462 20.7843 23.587 20.8333L20.6303 21.0685C20.3509 21.0865 20.0779 21.16 19.8272 21.2846C19.5765 21.4093 19.3531 21.5826 19.1702 21.7945C18.9872 22.0064 18.8483 22.2527 18.7615 22.5189C18.6747 22.785 18.6418 23.0658 18.6647 23.3449L19.0175 27.6205L21.1846 27.4525L20.899 23.9749C20.8888 23.8367 20.9062 23.6978 20.9503 23.5664C20.9944 23.4351 21.0642 23.3138 21.1557 23.2098C21.2473 23.1057 21.3586 23.021 21.4833 22.9605C21.608 22.9001 21.7435 22.8651 21.8818 22.8577Z" fill="black"/>
<defs>
<linearGradient id="paint0_linear_1727_331" x1="59.7615" y1="57.1216" x2="50.8133" y2="62.5441" gradientUnits="userSpaceOnUse">
<stop stop-color="#FF8A00"/>
<stop offset="1" stop-color="#FFC700"/>
</linearGradient>
<linearGradient id="paint1_linear_1727_331" x1="88.2089" y1="21.8277" x2="49.96" y2="83.8325" gradientUnits="userSpaceOnUse">
<stop stop-color="#FF8A00"/>
<stop offset="1" stop-color="#FFC700"/>
</linearGradient>
</defs>
</svg>
