<svg width="65" height="28" viewBox="0 0 65 28" fill="none" xmlns="http://www.w3.org/2000/svg">
<path d="M14.4403 18.6113L8.41984 20.451C8.14618 20.5346 7.90103 20.7114 7.77558 20.9536L6.7207 22.3974C6.59523 22.6396 6.80043 22.9847 7.0741 22.9011L16.9257 19.8908C17.1993 19.8072 17.1766 19.4064 16.9372 19.2756L15.227 18.5748C15.0161 18.5373 14.7139 18.5277 14.4403 18.6113Z" fill="#6D6D6D"/>
<path d="M7.53634 19.1919L8.79715 13.1995C8.8029 12.892 8.83715 12.6776 8.75167 12.3979L7.85119 10.4302C7.76572 10.1505 7.37237 10.1687 7.2754 10.5042L4.90225 21.0162C4.89651 21.3238 5.16441 21.5478 5.38109 21.2777L7.04028 19.8532C7.31394 19.7696 7.43938 19.5274 7.53634 19.1919Z" fill="#6D6D6D"/>
<path d="M10.2848 12.8466L14.7708 17.0829C14.9475 17.3348 15.2781 17.4377 15.489 17.4752L17.5698 17.7569C17.872 17.7665 17.969 17.431 17.8207 17.2724L9.97741 9.8821C9.80072 9.63026 9.46432 9.83499 9.45858 10.1426L9.81174 12.2775C9.93144 12.3429 10.0169 12.6226 10.2848 12.8466Z" fill="#6D6D6D"/>
<path d="M8.31398 3.45804L8.80959 6.05916C8.92356 6.43214 9.00902 6.71188 9.27693 6.93584L20.5347 17.6665C20.8026 17.8905 21.1618 18.0866 21.464 18.0962L24.0292 18.3318C24.3314 18.3415 24.5197 17.9781 24.2517 17.7542L8.89555 3.07644C8.65613 2.94571 8.22851 3.17832 8.31398 3.45804Z" fill="#6D6D6D"/>
<path d="M19.4224 20.5551L5.46595 24.8197C5.10107 24.9312 4.8559 25.108 4.63924 25.3781L3.08825 27.4832C2.87159 27.7533 3.16801 28.0705 3.44165 27.9869L22.7801 22.0778C23.0538 21.9942 23.1222 21.5655 22.7917 21.4625L20.3288 20.584C20.1806 20.4254 19.7873 20.4436 19.4224 20.5551Z" fill="#6D6D6D"/>
<path d="M2.92972 23.0473L6.26696 7.8569C6.36394 7.52142 6.34121 7.12058 6.1645 6.86873L5.12158 4.43483C5.03611 4.15511 4.55151 4.20124 4.54577 4.50883L0.0162254 25.2628C-0.0807416 25.5983 0.278385 25.7944 0.523545 25.6175L2.51911 23.9883C2.70729 23.625 2.92397 23.3549 2.92972 23.0473Z" fill="#6D6D6D"/>
<path d="M24.277 4.1155C24.3114 4.1155 24.3973 4.18871 24.5347 4.33512H24.7753C24.8783 4.42522 24.9872 4.56601 25.1017 4.75747C25.2506 4.82505 25.3308 4.87573 25.3422 4.90952V4.9602C25.3422 5.00525 25.3021 5.06719 25.222 5.14603V5.33186C25.222 5.37691 25.1761 5.43886 25.0845 5.51769V6.95368C24.97 7.02125 24.8325 7.23524 24.6722 7.59564C24.6149 7.68574 24.5576 7.73079 24.5004 7.73079H24.2083C24.1396 7.80963 24.025 7.86594 23.8647 7.89973C23.8647 7.91099 23.6413 8.13625 23.1946 8.57549H22.9541C22.851 8.7219 22.7823 8.79511 22.7479 8.79511C22.599 8.81763 22.5246 8.85705 22.5246 8.91337C22.5246 9.0823 22.5016 9.16677 22.4558 9.16677H22.4387C22.3928 9.14425 22.347 9.11046 22.3012 9.06541H22.284C22.1809 9.06541 22.1008 9.12172 22.0435 9.23435C22.0435 9.24561 22.0378 9.26814 22.0263 9.30192H22.1981C22.221 9.30192 22.2497 9.35824 22.284 9.47086L21.9404 9.79185C21.8144 9.76932 21.7514 9.7468 21.7514 9.72427C21.843 9.66796 21.8889 9.59475 21.8889 9.50465V9.43708H21.8717C21.8488 9.43708 21.7514 9.51028 21.5796 9.6567H21.4422C21.4193 9.66796 21.2417 9.84253 20.9096 10.1804V10.3325C20.9096 10.3437 20.8408 10.3944 20.7034 10.4845C20.6919 10.4845 20.6576 10.4226 20.6003 10.2987C20.5659 10.3099 20.5488 10.3493 20.5488 10.4169V10.569C20.5488 10.5802 20.4056 10.721 20.1192 10.9913H19.8615C19.6095 11.5544 19.432 11.8529 19.3289 11.8867C19.054 12.157 18.9166 12.3259 18.9166 12.3935C18.8593 12.5737 18.7219 12.7652 18.5042 12.9679C18.2293 13.2044 18.0919 13.3452 18.0919 13.3902C18.0919 13.4578 17.9773 13.5986 17.7483 13.8126C17.7483 13.9252 17.5994 14.1111 17.3016 14.3701C17.1985 14.3926 17.1355 14.4095 17.1126 14.4208C17.1126 14.6122 17.0954 14.708 17.061 14.708L16.872 14.7924L16.8892 14.9783C16.9694 14.8882 17.0496 14.8431 17.1298 14.8431H17.1641C17.2443 14.8431 17.3302 14.8487 17.4218 14.86L17.5249 14.8431C17.5364 14.8431 17.5822 14.8825 17.6624 14.9614C17.6624 14.9501 17.6967 14.9163 17.7654 14.86C17.8571 14.9276 17.9201 14.9614 17.9544 14.9614H18.3324C18.3668 14.9614 18.4355 14.922 18.5386 14.8431C18.6188 14.8431 18.7333 14.922 18.8822 15.0796C19.0197 14.9332 19.1227 14.86 19.1915 14.86C19.3289 14.86 19.4549 14.8093 19.5694 14.708H19.5866C19.6324 14.753 19.6897 14.7981 19.7584 14.8431H19.9646L20.1192 14.7249H20.4628C20.4743 14.7249 20.5316 14.7699 20.6347 14.86C20.8179 14.7699 20.921 14.7249 20.9439 14.7249H21.5281C21.5395 14.7249 21.6197 14.646 21.7686 14.4883C21.8946 14.4883 21.9977 14.601 22.0779 14.8262C22.1351 14.9276 22.1981 14.9783 22.2668 14.9783H22.5589C22.5933 14.9783 22.6219 15.0233 22.6448 15.1134V15.7047C22.6448 15.7498 22.6849 15.8117 22.7651 15.8905C22.6505 15.9581 22.5417 16.1102 22.4387 16.3467C22.4043 16.3467 22.3814 16.4424 22.3699 16.6339C22.3012 16.724 22.1752 16.7972 21.9919 16.8535C21.9347 16.9323 21.8889 17.0337 21.8545 17.1576H21.3219L21.1157 16.9211H20.48C20.3655 16.8422 20.3082 16.7915 20.3082 16.769C20.2624 16.8028 20.1937 16.8535 20.102 16.9211H19.6038C19.6038 16.9661 19.5523 17.0055 19.4492 17.0393H19.3289C19.2144 17.0393 19.1571 16.9774 19.1571 16.8535C19.1342 16.8197 19.1113 16.8028 19.0884 16.8028C18.8822 16.8816 18.7161 16.9323 18.5901 16.9549C18.5901 16.9774 18.5615 17.0055 18.5042 17.0393H18.2293C18.2064 17.0393 17.9716 17.1519 17.5249 17.3772H17.5077C17.3703 17.2308 17.2672 17.1576 17.1985 17.1576C17.1412 17.1576 17.0839 17.2589 17.0267 17.4617C16.9809 17.4955 16.9408 17.5124 16.9064 17.5124H16.7861L16.6659 17.2927H16.6487C16.5914 17.349 16.5456 17.3772 16.5112 17.3772H16.0989L15.9443 17.4955H15.8755C15.7037 17.4955 15.5434 17.5405 15.3945 17.6306H15.2055C15.194 17.6306 15.1081 17.5574 14.9478 17.411L14.8447 17.4955H14.8103C14.7531 17.4391 14.7187 17.411 14.7072 17.411H14.1059L13.9856 17.4955H12.9548C12.9433 17.4955 12.9376 17.4898 12.9376 17.4786V17.1238L12.8002 16.9549V16.7014C12.7085 16.51 12.6627 16.3805 12.6627 16.3129C12.6627 16.189 12.7887 16.082 13.0407 15.9919C13.1209 15.8793 13.2068 15.823 13.2984 15.823C13.4702 15.8117 13.5619 15.7723 13.5733 15.7047H13.5905C13.6363 15.7385 13.6821 15.7723 13.7279 15.8061H14.1059C14.1288 15.6484 14.1746 15.5696 14.2434 15.5696H14.398C14.4782 15.5696 14.5583 15.4963 14.6385 15.3499C14.7072 15.1697 14.8046 15.0796 14.9306 15.0796H14.9993C15.0108 14.9332 15.0165 14.8375 15.0165 14.7924C15.2914 14.5334 15.4632 14.2913 15.5319 14.066C15.6236 13.8182 15.7037 13.6943 15.7725 13.6943C15.9328 13.6493 16.013 13.5648 16.013 13.4409C16.0703 13.3621 16.1275 13.3114 16.1848 13.2889L16.3223 13.3902C16.3452 13.3452 16.3623 13.2326 16.3738 13.0524C16.4082 13.0073 16.4425 12.9848 16.4769 12.9848L16.4597 12.951V12.9341C16.4597 12.9003 16.517 12.8215 16.6315 12.6976C16.6086 12.6638 16.5971 12.6357 16.5971 12.6131C17.5822 11.6558 18.0747 11.1659 18.0747 11.1434C18.0747 11.042 18.1205 10.9688 18.2122 10.9237C18.5558 10.5408 18.7848 10.3493 18.8994 10.3493C18.9567 10.3493 19.0311 10.2367 19.1227 10.0115C19.2716 9.84253 19.4148 9.75806 19.5523 9.75806V9.55533C19.7241 9.44271 19.81 9.34698 19.81 9.26814C19.81 9.21182 19.9073 9.0992 20.102 8.93026C20.251 8.75006 20.3884 8.65996 20.5144 8.65996C20.5144 8.52481 20.5831 8.41218 20.7206 8.32208C21.0985 7.92789 21.3047 7.73079 21.3391 7.73079C21.488 7.73079 21.6082 7.60691 21.6999 7.35913C21.906 7.25777 22.1294 7.07756 22.3699 6.81852V6.78474C22.3585 6.68337 22.3184 6.63269 22.2497 6.63269C22.1237 6.72279 22.0435 6.76784 22.0091 6.76784H21.9576C21.8774 6.689 21.8144 6.64959 21.7686 6.64959H21.5281C21.4937 6.64959 21.4135 6.69464 21.2875 6.78474L21.0814 6.66648C21.0814 6.689 21.047 6.72279 20.9783 6.76784H20.4285C20.3827 6.76784 20.3197 6.80726 20.2395 6.8861H19.7584C19.6783 6.96494 19.621 7.00436 19.5866 7.00436C19.5866 6.99309 19.5465 6.94804 19.4664 6.86921L19.2086 7.00436C18.613 7.01562 18.2694 7.02125 18.1778 7.02125C18.0862 7.02125 17.7826 7.01562 17.2672 7.00436C16.8663 7.12825 16.6487 7.19019 16.6143 7.19019C16.5914 7.23524 16.5513 7.25776 16.4941 7.25776H15.7725C15.7152 7.25776 15.6407 7.2634 15.5491 7.27466C15.5491 7.43234 15.4747 7.51117 15.3258 7.51117C15.2685 7.47739 15.2399 7.39292 15.2399 7.25776C15.2399 7.23524 15.1998 7.16203 15.1196 7.03814C15.1196 6.95931 15.0451 6.86357 14.8962 6.75095C14.8962 6.66085 14.8504 6.55385 14.7588 6.42996C14.7588 6.37365 14.7187 6.30045 14.6385 6.21034V5.83868C14.7531 5.71479 14.9077 5.65285 15.1024 5.65285C15.1024 5.64158 15.1368 5.6078 15.2055 5.55148H16.0474L16.1676 5.45012H17.6108L17.7654 5.31497H18.0232C18.0804 5.37128 18.132 5.39944 18.1778 5.39944C18.1778 5.38818 18.2122 5.35439 18.2809 5.29807H18.7448C18.8364 5.38818 18.8994 5.43323 18.9337 5.43323C19.0941 5.35439 19.1857 5.31497 19.2086 5.31497H19.8443L19.9818 5.19671H20.8752C20.8981 5.19671 20.9897 5.14603 21.1501 5.04467H21.1673L21.3391 5.16292C21.3391 5.15166 21.3792 5.11787 21.4593 5.06156H21.803L21.9748 4.9433H22.6792C22.7594 4.8532 22.8796 4.80815 23.04 4.80815C23.1087 4.75184 23.166 4.72368 23.2118 4.72368C23.2118 4.74621 23.2404 4.78 23.2977 4.82505H23.7444C23.8933 4.82505 24.0651 4.58853 24.2598 4.1155H24.277ZM22.3012 8.87958V8.89647C22.3012 8.90773 22.3069 8.91337 22.3184 8.91337L22.3356 8.84579H22.3184C22.3069 8.84579 22.3012 8.85705 22.3012 8.87958ZM21.8889 9.42018C21.9461 9.42018 21.9805 9.39766 21.9919 9.35261V9.31882H21.9576C21.9118 9.33008 21.8889 9.36387 21.8889 9.42018Z" fill="#6D6D6D"/>
<path d="M26.0123 6.97057C26.1039 6.97057 26.1898 7.04378 26.27 7.19019C26.27 7.2465 26.3444 7.3366 26.4933 7.46049C26.5048 7.48302 26.6308 7.60691 26.8713 7.83216H27.1978C27.3467 7.94478 27.4211 8.06304 27.4211 8.18693C27.4326 8.1644 27.4784 8.12498 27.5586 8.06867H27.9022C28.5321 8.66559 28.8471 8.97531 28.8471 8.99784C28.8471 9.06541 28.9273 9.17804 29.0877 9.33571V9.70738C29.0877 9.71864 29.0132 9.75806 28.8643 9.82563L28.8471 9.84253V10.5352C28.9273 10.6028 28.9674 10.676 28.9674 10.7548V11.8867L28.8643 12.0049V12.478C29.0247 12.6469 29.1048 12.737 29.1048 12.7483C29.1048 12.8271 29.0189 12.9454 28.8471 13.103V13.5761L28.7269 13.7281V14.4377L28.6238 14.5559V14.8262C28.6238 14.8375 28.5436 14.9895 28.3832 15.2824L28.3661 15.4175V15.4851L28.4863 15.6202L28.2458 15.8736V15.975C28.2458 16.0538 28.2057 16.1665 28.1255 16.3129C28.0454 16.4142 27.9938 16.555 27.9709 16.7352C27.9022 16.8253 27.8678 16.8873 27.8678 16.9211V17.1407C27.8678 17.1632 27.8048 17.2871 27.6788 17.5124C27.3925 18.0755 27.2493 18.3683 27.2493 18.3908V18.4415C27.2493 18.4866 27.2894 18.5485 27.3696 18.6273V18.8976C27.2779 18.999 27.2149 19.0497 27.1806 19.0497C27.1691 19.0497 27.1348 19.0215 27.0775 18.9652C26.9744 19.0441 26.9057 19.0835 26.8713 19.0835H26.8541L26.8198 19.0666C26.7511 19.2355 26.7052 19.32 26.6823 19.32C26.6823 19.3087 26.6022 19.2299 26.4418 19.0835H26.3387C26.3158 19.0835 26.2929 19.106 26.27 19.1511V19.7255C26.27 19.7592 26.1898 19.793 26.0295 19.8268V19.9113C26.0295 20.069 26.0066 20.1478 25.9607 20.1478L25.8748 20.1647C25.8061 20.1534 25.766 20.1478 25.7546 20.1478C25.7317 20.1591 25.7145 20.1647 25.703 20.1647C25.5999 20.0633 25.5484 19.9901 25.5484 19.9451C25.5484 19.855 25.4797 19.686 25.3422 19.4383H25.1189C25.0845 19.4383 25.0559 19.4833 25.033 19.5734C25.1246 19.6748 25.1704 19.7536 25.1704 19.8099V19.8437C25.1704 19.8662 25.1017 19.9 24.9642 19.9451C24.781 19.7311 24.6779 19.5959 24.655 19.5396H24.6378L24.5004 19.6579C24.4545 19.6579 24.3286 19.5509 24.1224 19.3369C24.0651 19.3932 24.0136 19.4214 23.9678 19.4214C23.8189 19.2637 23.6012 19.1342 23.3149 19.0328L22.6964 18.4077V18.1712L22.5761 18.0361V17.6813C22.4959 17.6137 22.4558 17.5461 22.4558 17.4786V16.4649L22.5761 16.3298V16.0088C22.6563 15.9187 22.6964 15.8568 22.6964 15.823V15.5527C22.6964 15.5189 22.7365 15.4569 22.8166 15.3668V14.9107C22.9083 14.8431 22.9541 14.7586 22.9541 14.6573C22.9541 14.5559 23.0171 14.4095 23.1431 14.218C23.1774 14.1392 23.1946 14.0829 23.1946 14.0491C23.1832 13.8239 23.1774 13.7056 23.1774 13.6943C23.1774 13.5704 23.229 13.4803 23.3321 13.424L23.418 13.3227V12.9341C23.418 12.9116 23.5497 12.6638 23.8131 12.1908V11.8867C23.9048 11.8304 23.9506 11.6896 23.9506 11.4643C23.9964 11.4306 24.1109 11.2109 24.2942 10.8055C24.3744 10.7154 24.4145 10.6478 24.4145 10.6028V10.4338C24.4145 10.4226 24.4603 10.3775 24.5519 10.2987L24.5347 10.1466V10.1297C24.5347 10.1072 24.5805 10.0227 24.6722 9.87632C24.7065 9.70738 24.7867 9.62291 24.9127 9.62291V9.33571C25.0731 9.22309 25.1532 9.16114 25.1532 9.14988V7.64632C25.1532 7.63506 25.2563 7.5337 25.4625 7.34223H25.703C25.8061 7.09446 25.9092 6.97057 26.0123 6.97057ZM27.3008 9.89321C26.8541 10.3662 26.6022 10.6028 26.5449 10.6028C26.4303 10.6591 26.2814 10.783 26.0982 10.9744C25.9035 10.9744 25.7603 11.1603 25.6687 11.5319V11.6333C25.6228 11.6671 25.5598 11.7741 25.4797 11.9543C25.4339 11.9543 25.4052 12.0669 25.3938 12.2921C25.348 12.2921 25.2907 12.3935 25.222 12.5962C25.1991 12.5962 25.1761 12.6188 25.1532 12.6638C25.1532 12.7877 25.199 12.8891 25.2907 12.9679C25.2907 13.103 25.3193 13.1706 25.3766 13.1706C25.3995 13.3734 25.4568 13.5254 25.5484 13.6268C25.5598 13.6268 25.5656 13.6324 25.5656 13.6437C25.4396 13.8126 25.3709 13.8971 25.3594 13.8971H25.3422C25.3308 13.8971 25.3079 13.8689 25.2735 13.8126V13.1537C25.1246 13.2213 25.0501 13.3058 25.0501 13.4071C25.0387 13.4409 25.033 13.5029 25.033 13.593C25.0215 13.593 24.9814 13.6324 24.9127 13.7112V13.9984C24.9127 14.0322 24.9528 14.0885 25.033 14.1674V14.1843L24.9127 14.3194V14.539C24.9127 14.5503 24.8039 14.6122 24.5863 14.7249C24.5634 14.7812 24.5519 14.8319 24.5519 14.8769C24.5519 15.0008 24.592 15.0853 24.6722 15.1303V15.6202L24.4316 15.8736V16.3298L24.5691 16.4818V16.8873C24.7523 17.3603 24.9012 17.5968 25.0158 17.5968C25.0616 17.5968 25.1761 17.6813 25.3594 17.8502H25.3766C25.6286 17.7827 25.8462 17.6306 26.0295 17.3941C26.0524 17.3941 26.1555 17.2984 26.3387 17.1069C26.4189 17.0618 26.4991 16.938 26.5792 16.7352C26.6938 16.6564 26.7511 16.5607 26.7511 16.448C26.7511 16.3917 26.8026 16.189 26.9057 15.8399C26.9057 15.8173 26.9343 15.7835 26.9916 15.7385V15.4175C26.9916 15.3837 27.0317 15.3274 27.1119 15.2486V15.0458C27.2837 14.7755 27.3696 14.6179 27.3696 14.5728V14.0491L27.4727 13.9308C27.4612 13.9308 27.4326 13.8971 27.3868 13.8295V13.3058L27.4898 13.1875V12.7314C27.4898 12.6188 27.5299 12.5343 27.6101 12.478V11.5488L27.7476 11.2954C27.7361 11.2954 27.6903 11.2447 27.6101 11.1434V10.079C27.5185 9.95515 27.4154 9.89321 27.3008 9.89321ZM28.0396 10.9744C28.0053 11.0758 27.9881 11.1546 27.9881 11.2109V11.2278C27.9881 11.2729 28.0053 11.3461 28.0396 11.4474C28.0625 11.4474 28.0854 11.3686 28.1083 11.2109C28.0854 11.0533 28.0625 10.9744 28.0396 10.9744ZM25.9779 12.1908L25.9951 12.2246V12.2752C25.9951 12.2978 25.9607 12.309 25.892 12.309V12.4949C25.8004 12.6188 25.7202 12.6807 25.6515 12.6807C25.5713 12.6807 25.5255 12.63 25.514 12.5287C25.5255 12.371 25.5484 12.2921 25.5828 12.2921C25.6286 12.3372 25.6744 12.3766 25.7202 12.4104C25.8347 12.309 25.9206 12.2358 25.9779 12.1908ZM24.8268 13.0524L24.8096 13.0862L24.8783 13.1199L24.8955 13.0862V13.0693L24.8268 13.0524Z" fill="#6D6D6D"/>
<path d="M31.3555 9.14988H31.3899C31.6992 9.29629 31.8538 9.39766 31.8538 9.45397C31.8538 9.55533 31.9225 9.65107 32.06 9.74117C32.2089 9.93263 32.3692 10.2198 32.541 10.6028L32.6097 10.6196C32.8961 10.3719 33.045 10.248 33.0564 10.248H33.1252C33.171 10.248 33.2569 10.3156 33.3829 10.4507C33.4974 10.4732 33.6005 10.5295 33.6921 10.6196C33.7151 10.6647 33.8296 10.7323 34.0358 10.8224C34.0701 10.8674 34.093 10.9406 34.1045 11.042C34.1159 11.0533 34.2706 11.2109 34.5684 11.515V11.7515L34.6886 11.8867V12.1063C34.6886 12.1176 34.7574 12.1795 34.8948 12.2921H34.912C35.0838 12.2921 35.1697 12.309 35.1697 12.3428V12.7821L34.7917 13.1706L34.8433 13.2213C34.7402 13.4128 34.6886 13.5141 34.6886 13.5254C34.6886 13.5592 34.7459 13.6268 34.8604 13.7281H35.1182C35.6336 13.2551 35.8913 12.9454 35.8913 12.799C35.8913 12.7314 36.0574 12.5455 36.3895 12.2415C36.3895 12.2302 36.5728 12.05 36.9393 11.7009H37.3345C37.3689 11.7009 37.4204 11.7966 37.4891 11.9881H37.5235C37.6037 11.9881 37.701 11.9317 37.8156 11.8191H37.8327C37.9015 11.8754 37.9988 12.0106 38.1248 12.2246C38.2966 12.371 38.3825 12.4498 38.3825 12.4611V12.7145L38.6231 12.9848V13.3058L38.7433 13.4409V15.1303C38.583 15.3781 38.5028 15.5189 38.5028 15.5527V15.9919L38.3997 16.0933V16.5832L38.2794 16.7183V17.0393C38.2794 17.0618 38.3081 17.1182 38.3653 17.2083V17.2252C38.3539 17.2252 38.3253 17.2533 38.2794 17.3096V18.526L38.3825 18.6442V19.3707L38.2623 19.5058V19.8944C38.5028 20.1196 38.6231 20.2379 38.6231 20.2492C38.6231 20.3393 38.5486 20.4463 38.3997 20.5701L38.3825 20.6039V20.8236L38.2794 20.9249C38.3023 20.97 38.3367 21.015 38.3825 21.0601V21.2797L38.5028 21.4486V22.0061L38.6231 22.1413V22.6312C38.772 22.7776 38.8464 22.8565 38.8464 22.8677C38.8464 22.879 38.8063 22.9578 38.7261 23.1042C38.898 23.1493 38.9839 23.2 38.9839 23.2563C38.9953 23.3351 39.001 23.4139 39.001 23.4928C39.0125 23.4928 39.0469 23.5266 39.1041 23.5941V24.0334C39.001 24.2699 38.938 24.3882 38.9151 24.3882H38.7433C38.7204 24.3882 38.5486 24.3037 38.2279 24.1348C38.1706 24.1348 38.079 24.0672 37.953 23.932C37.8385 23.887 37.6781 23.8081 37.4719 23.6955C37.4032 23.6617 37.3345 23.6448 37.2658 23.6448L37.197 23.6617C37.0711 23.5378 36.9393 23.3238 36.8019 23.0198C36.7904 23.0198 36.7389 22.9691 36.6473 22.8677V22.4285C36.5327 22.2933 36.4125 22.0399 36.2865 21.6682V21.1783C36.3666 21.0882 36.4067 21.0375 36.4067 21.0263V20.6039C36.3151 20.5251 36.2693 20.4294 36.2693 20.3167C36.2693 20.0915 36.3094 19.9789 36.3895 19.9789V19.6579C36.3895 19.6241 36.3495 19.5565 36.2693 19.4551V19.4214L36.3895 19.2186V18.3064L36.527 18.1374V17.6813L36.6473 17.5461V15.9919C36.7274 15.9243 36.7675 15.8511 36.7675 15.7723C36.7675 15.5132 36.7389 15.3443 36.6816 15.2655C36.6702 15.2655 36.6415 15.2092 36.5957 15.0965H36.4754C36.4411 15.1303 36.3895 15.226 36.3208 15.3837C36.1261 15.5189 36.0287 15.6484 36.0287 15.7723C35.8913 15.9074 35.7825 16.0538 35.7023 16.2115C35.6565 16.234 35.5878 16.341 35.4961 16.5325C35.3587 16.6113 35.29 16.7183 35.29 16.8535C35.2212 16.8985 35.1468 17.0281 35.0666 17.242C34.9635 17.4673 34.8833 17.6137 34.8261 17.6813V18.0867C34.8261 18.1318 34.7803 18.205 34.6886 18.3064V18.3402L34.7058 18.4077C34.6944 18.4077 34.5168 18.571 34.1732 18.8976C33.9441 19.0215 33.8181 19.0835 33.7952 19.0835L33.5891 18.9483C33.5203 18.9483 33.423 19.0272 33.297 19.1848L33.2626 19.2017H33.0393C32.9018 19.0666 32.8045 18.9821 32.7472 18.9483H32.541C32.4608 18.8695 32.3807 18.8301 32.3005 18.8301H32.1802C32.0084 18.6499 31.8652 18.5598 31.7507 18.5598C31.7392 18.526 31.7335 18.4922 31.7335 18.4584V18.4246C31.7335 18.3345 31.7736 18.2219 31.8538 18.0867V17.9685L31.9741 17.7489C31.9741 17.5799 32.0141 17.4673 32.0943 17.411V17.2927C32.0943 17.2702 32.1344 17.1745 32.2146 17.0055V16.8366L32.4723 16.5663V16.2284L32.5754 16.1102V14.9952C32.5754 14.9726 32.6613 14.7981 32.8331 14.4715V13.7957C32.8216 13.7957 32.8102 13.7901 32.7987 13.7788C32.73 13.7788 32.6498 13.8745 32.5582 14.066C32.5009 14.1223 32.3921 14.2856 32.2318 14.5559C32.186 14.5559 32.1287 14.6517 32.06 14.8431C32.037 14.8544 32.0027 14.922 31.9569 15.0458C31.9225 15.0571 31.8824 15.1528 31.8366 15.333C31.7335 15.3781 31.6304 15.5132 31.5273 15.7385C31.4014 15.8736 31.2295 16.1158 31.0119 16.4649C31.0119 16.4762 30.8917 16.6395 30.6511 16.9549C30.6511 17.0224 30.5767 17.1294 30.4278 17.2758C30.382 17.4335 30.3247 17.5292 30.256 17.563C30.2101 17.5856 30.1586 17.6757 30.1013 17.8333C29.8723 18.0586 29.7119 18.3007 29.6203 18.5598C29.5859 18.571 29.5458 18.6949 29.5 18.9314C29.2022 19.2468 28.996 19.4045 28.8815 19.4045C28.7097 19.427 28.5722 19.472 28.4691 19.5396C28.4577 19.5509 28.4405 19.5565 28.4176 19.5565C28.1084 19.3988 27.9423 19.32 27.9194 19.32H27.4898C27.4784 19.32 27.4211 19.2581 27.318 19.1342V18.6611C27.4097 18.5485 27.5586 18.3345 27.7647 18.0192C27.7876 18.0192 27.8105 17.9685 27.8335 17.8671C28.0511 17.6982 28.2172 17.4673 28.3317 17.1745C28.389 17.0731 28.4176 17.0112 28.4176 16.9886V16.769L28.7784 16.0426V15.8399C29.0533 15.2429 29.2022 14.9445 29.2251 14.9445H29.4485C29.5401 14.8769 29.6031 14.815 29.6374 14.7586V14.3701C29.6374 14.325 29.6833 14.2575 29.7749 14.1674V14.1336L29.7577 14.0491C29.8723 13.959 29.9582 13.8689 30.0154 13.7788V13.4409C30.0956 13.3846 30.1357 13.2889 30.1357 13.1537C30.2044 13.0411 30.2674 12.8665 30.3247 12.63C30.359 12.63 30.3934 12.523 30.4278 12.309C30.4392 12.309 30.4621 12.2809 30.4965 12.2246V11.7853C30.5538 11.729 30.611 11.6164 30.6683 11.4474C30.7256 11.4249 30.7542 11.4024 30.7542 11.3799V10.7886C30.6626 10.7886 30.6168 10.6647 30.6168 10.4169C30.6053 10.4169 30.5767 10.3831 30.5309 10.3156C30.6225 10.034 30.7313 9.89321 30.8573 9.89321C30.9375 9.85942 31.0692 9.74117 31.2525 9.53844V9.21746C31.2639 9.17241 31.2983 9.14988 31.3555 9.14988ZM39.2072 14.0829L39.2244 14.1167V14.3194C39.2244 14.3419 39.1614 14.3588 39.0354 14.3701C39.0125 14.3476 38.9896 14.2744 38.9667 14.1505C39.0239 14.1279 39.1041 14.1054 39.2072 14.0829ZM38.7949 21.1276H38.812C38.8579 21.1502 38.8808 21.1896 38.8808 21.2459C38.8693 21.3022 38.8464 21.3416 38.812 21.3642C38.7548 21.3416 38.7261 21.3022 38.7261 21.2459V21.229C38.7261 21.1727 38.7491 21.1389 38.7949 21.1276Z" fill="#6D6D6D"/>
<path d="M48.1585 0.939453H48.1928C48.2615 1.00703 48.3532 1.05208 48.4677 1.0746C48.4677 1.44627 48.6109 1.74473 48.8972 1.96998C49.1263 2.35291 49.2409 2.60632 49.2409 2.7302V2.79778C49.2409 2.80904 49.3096 2.8372 49.447 2.88225C49.5501 2.94983 49.6017 3.01177 49.6017 3.06808V3.38907L49.4642 3.54111V3.76073C49.384 3.81704 49.3439 3.91841 49.3439 4.06482C49.3439 4.12113 49.2867 4.19997 49.1721 4.30134H49.155L49.0175 4.18308H48.8285C48.714 4.18308 48.4334 4.59416 47.9867 5.41633C47.895 5.65285 47.8148 5.7711 47.7461 5.7711C47.6774 5.7711 47.6201 5.84994 47.5743 6.00762C47.3796 6.31171 47.2651 6.58201 47.2307 6.81852C47.1047 6.91989 47.0303 6.97057 47.0073 6.97057V7.19019C47.1104 7.12261 47.1792 7.08883 47.2135 7.08883L47.3681 7.19019C47.3681 7.11135 47.4082 7.07193 47.4884 7.07193V6.90299C47.4884 6.89173 47.5056 6.87484 47.54 6.85231H47.5571C47.5915 6.85231 47.6087 6.89173 47.6087 6.97057V7.00436C47.5399 7.06067 47.5056 7.10009 47.5056 7.12261C47.5056 7.16766 47.4598 7.20145 47.3681 7.22398C47.2994 7.41544 47.1906 7.58438 47.0417 7.73079C46.9272 8.0011 46.8527 8.14188 46.8184 8.15314H46.8012C46.6637 8.06304 46.595 7.94478 46.595 7.79837C46.4003 8.01236 46.3029 8.15877 46.3029 8.23761C46.1998 8.44034 46.1483 8.55296 46.1483 8.57549C46.3201 8.74443 46.406 8.84579 46.406 8.87958C46.406 8.94715 46.3487 9.02599 46.2342 9.11609H46.217C46.2056 9.11609 46.1769 9.09357 46.1311 9.04852V8.89647C46.1311 8.84016 46.1139 8.80637 46.0796 8.79511C46.0108 8.85142 45.8562 9.12735 45.6157 9.62291C45.5813 9.66796 45.5183 9.72427 45.4267 9.79185V10.0959L45.0315 10.9068C44.9743 10.9969 44.8998 11.0758 44.8082 11.1434C44.8082 11.3236 44.7337 11.5094 44.5848 11.7009C44.6536 11.8135 44.6936 11.9092 44.7051 11.9881C44.7509 11.9881 44.9113 12.0838 45.1862 12.2752C45.2663 12.2752 45.3064 12.3372 45.3064 12.4611C45.5355 12.6638 45.6501 12.7877 45.6501 12.8327C45.6501 12.8778 45.6901 12.951 45.7703 13.0524C45.7818 13.1425 45.8276 13.2326 45.9078 13.3227V13.6437C45.9765 13.6774 46.028 13.807 46.0624 14.0322C46.0624 14.066 46.091 14.111 46.1483 14.1674V14.9952L46.0452 15.1134L46.1655 15.2486C46.0624 15.5301 45.9765 15.6709 45.9078 15.6709C45.8276 15.6709 45.7818 15.7385 45.7703 15.8736C45.5069 16.0989 45.3752 16.2678 45.3752 16.3805C45.1804 16.5719 45.0315 16.6733 44.9285 16.6846V16.7183C44.9285 16.7972 44.8655 16.8873 44.7395 16.9886C44.6822 17.1576 44.6077 17.2589 44.5161 17.2927C44.4245 17.2927 44.2813 17.4054 44.0866 17.6306C43.869 17.8446 43.7487 17.9516 43.7258 17.9516C43.6914 17.9516 43.5941 18.0023 43.4337 18.1036C43.3764 18.1036 43.302 18.1487 43.2104 18.2388L42.7465 18.357C42.6778 18.4134 42.5289 18.4584 42.2998 18.4922C42.1394 18.6048 42.0421 18.6611 42.0077 18.6611C41.9275 18.5936 41.8817 18.5598 41.8703 18.5598C41.5381 18.7287 41.3548 18.8132 41.3205 18.8132C41.2174 18.7231 41.1601 18.678 41.1487 18.678H40.8222C40.742 18.7569 40.6848 18.7963 40.6504 18.7963H40.3755C40.1235 18.7287 39.9288 18.6048 39.7914 18.4246L39.5852 18.5429C39.3905 18.4753 39.2129 18.3514 39.0526 18.1712C38.9495 18.0698 38.898 17.9966 38.898 17.9516C38.898 17.8953 38.8235 17.8108 38.6746 17.6982C38.6746 17.4842 38.6288 17.3434 38.5372 17.2758C38.5372 17.2533 38.5543 17.2364 38.5887 17.2252H38.8464C38.9953 17.3716 39.0869 17.4448 39.1213 17.4448C39.2931 17.4448 39.4077 17.4955 39.4649 17.5968L39.568 17.6982C39.568 17.6757 39.6081 17.6419 39.6883 17.5968L39.8429 17.7151H40.0663C40.1579 17.7827 40.2094 17.8164 40.2209 17.8164C40.3125 17.8164 40.3583 17.7714 40.3583 17.6813V17.4617C40.3583 17.4054 40.3526 17.3321 40.3412 17.242L40.2209 17.3265C40.1636 17.3265 40.0491 17.2702 39.8773 17.1576C39.8773 17.09 39.9918 16.8479 40.2209 16.4311C40.3354 16.3185 40.4156 16.2622 40.4614 16.2622C40.6447 16.2622 40.7363 16.2228 40.7363 16.1439V16.0933C40.6561 16.0144 40.616 15.9525 40.616 15.9074V15.7723L40.5989 15.6878C40.7478 15.5977 40.8337 15.5527 40.8566 15.5527V15.3161C40.8566 15.2598 40.9024 15.1697 40.994 15.0458C40.994 14.9783 41.0284 14.9107 41.0971 14.8431C41.0971 14.753 41.1372 14.6911 41.2174 14.6573C41.2174 14.601 41.2632 14.4883 41.3548 14.3194C41.3548 14.2744 41.4006 14.1955 41.4923 14.0829C41.4923 14.0041 41.5667 13.9027 41.7156 13.7788V13.5423L41.8531 13.4071V13.2213C41.9447 12.9848 42.0249 12.8665 42.0936 12.8665C42.1623 12.8665 42.1967 12.8271 42.1967 12.7483C42.2196 12.5793 42.2482 12.4949 42.2826 12.4949C42.2826 12.5061 42.3227 12.5456 42.4029 12.6131L42.6262 12.3935L42.7637 12.4949C42.8095 12.4611 42.8324 12.4329 42.8324 12.4104C42.8324 12.2752 42.8209 12.2077 42.798 12.2077C42.5689 12.1176 42.4544 12.0218 42.4544 11.9205V11.8698L42.5747 11.7009V11.4981C42.6892 11.4306 42.8553 11.1659 43.0729 10.7041C43.1531 10.5802 43.2504 10.3775 43.365 10.0959C43.4566 9.99457 43.5654 9.93826 43.6914 9.927C43.7258 9.88195 43.7601 9.8369 43.7945 9.79185C43.7258 9.72427 43.6914 9.67359 43.6914 9.6398V9.58912C43.6914 9.51028 43.7544 9.47086 43.8804 9.47086C43.995 9.26814 44.0522 9.14988 44.0522 9.11609V8.69375C44.1897 8.35587 44.2985 8.14188 44.3787 8.05178H44.4817C44.539 8.0743 44.5677 8.10809 44.5677 8.15314V8.33897C44.5906 8.3615 44.602 8.37839 44.602 8.38966H44.6192C44.6536 8.32208 44.6707 8.2545 44.6707 8.18693V7.91663C44.6707 7.87158 44.7108 7.80963 44.791 7.73079V7.4267C44.791 7.39292 44.8311 7.3366 44.9113 7.25776V6.90299L45.0315 6.76784V6.56512C45.0315 6.53133 45.0716 6.47502 45.1518 6.39618V6.15966C45.1518 6.13714 45.2721 6.11461 45.5126 6.09209V5.46701L45.4267 5.36565V5.29807C45.4267 5.27555 45.484 5.25866 45.5985 5.24739C45.713 5.0334 45.7703 4.91515 45.7703 4.89262C45.7703 4.73495 45.8047 4.64484 45.8734 4.62232C45.8963 4.50969 45.9364 4.43086 45.9937 4.38581C46.0051 4.34075 46.0108 4.28444 46.0108 4.21687V4.1155C46.0108 4.09298 46.0853 4.06482 46.2342 4.03103C46.2457 3.88462 46.3373 3.64811 46.5091 3.32149V3.05119C46.6809 2.78089 46.7668 2.62321 46.7668 2.57816V2.12202C46.847 1.88551 46.9214 1.76725 46.9902 1.76725C47.0932 1.76725 47.1734 1.70531 47.2307 1.58142L47.4025 1.39559H47.6087C47.6545 1.39559 47.7633 1.32238 47.9351 1.17597C47.9695 1.15344 47.9981 1.14218 48.021 1.14218H48.0897C48.1012 1.00703 48.1241 0.939453 48.1585 0.939453ZM49.0519 4.41959C49.0748 4.41959 49.0862 4.44775 49.0862 4.50406C49.029 4.50406 48.9889 4.63358 48.966 4.89262C48.9201 4.89262 48.8686 4.98272 48.8113 5.16292C48.6052 5.3206 48.5021 5.43886 48.5021 5.51769C48.4792 5.63032 48.4334 5.68663 48.3646 5.68663V5.94004L48.1928 6.10898H48.1756C48.1527 6.10898 48.1298 6.08646 48.1069 6.04141V5.87247C48.1069 5.82742 48.1756 5.69227 48.3131 5.46701C48.3131 5.4107 48.4047 5.26992 48.588 5.04467C48.6796 4.89825 48.7254 4.79689 48.7254 4.74058C48.8056 4.65048 48.8514 4.54348 48.8629 4.41959H49.0519ZM46.9214 5.53459V5.58527C46.9214 5.59653 46.9329 5.60216 46.9558 5.60216H46.973L46.9558 5.53459H46.9214ZM46.2857 6.73405C46.2972 6.7791 46.3144 6.80163 46.3373 6.80163C46.4518 6.73405 46.5091 6.65522 46.5091 6.56512C46.5091 6.52007 46.595 6.46938 46.7668 6.41307C46.7439 6.31171 46.721 6.26103 46.6981 6.26103C46.5034 6.33986 46.3831 6.45249 46.3373 6.5989C46.3029 6.66648 46.2857 6.71153 46.2857 6.73405ZM46.028 7.1564C46.0968 7.17893 46.1426 7.19019 46.1655 7.19019C46.2227 7.16766 46.2514 7.15077 46.2514 7.13951V7.02125C46.2514 6.99873 46.2457 6.98746 46.2342 6.98746H46.1998C46.1884 6.98746 46.1311 7.04378 46.028 7.1564ZM46.9043 7.30845L46.9386 7.40981H46.9558C46.9672 7.40981 46.9787 7.39855 46.9902 7.37602V7.22398C46.9329 7.2465 46.9043 7.27466 46.9043 7.30845ZM44.2412 11.3292C44.1954 11.3855 44.1725 11.4193 44.1725 11.4306C44.1954 11.4869 44.224 11.5207 44.2584 11.5319C44.2813 11.4981 44.2928 11.4643 44.2928 11.4306C44.2928 11.3742 44.2756 11.3405 44.2412 11.3292ZM43.3306 12.951C43.3421 13.0298 43.3478 13.0749 43.3478 13.0862H43.4165C43.428 12.9961 43.4337 12.9454 43.4337 12.9341C43.4108 12.9341 43.3994 12.9228 43.3994 12.9003C43.3535 12.9228 43.3306 12.9397 43.3306 12.951ZM43.9835 13.3734H43.4509C43.3707 13.3734 43.3306 13.424 43.3306 13.5254C43.3306 13.5479 43.3879 13.6042 43.5024 13.6943H43.5196C43.5769 13.5479 43.617 13.4747 43.6399 13.4747C43.7315 13.486 43.8002 13.4916 43.8461 13.4916V13.5085C43.7888 13.5648 43.7258 13.6718 43.6571 13.8295C43.554 13.9308 43.3421 14.3025 43.0214 14.9445C42.9641 15.0121 42.9068 15.074 42.8496 15.1303V15.333C42.7465 15.5245 42.6377 15.6765 42.5231 15.7892C42.4544 15.9694 42.4029 16.0595 42.3685 16.0595V16.1102C42.3685 16.1552 42.317 16.2397 42.2139 16.3636C42.2139 16.4537 42.1681 16.5269 42.0764 16.5832C41.7672 16.8873 41.6125 17.045 41.6125 17.0562V17.2758C41.4636 17.4448 41.3892 17.5349 41.3892 17.5461L41.4235 17.563H41.7843L41.9046 17.4617H42.2654C42.4143 17.2927 42.5346 17.2083 42.6262 17.2083C43.0958 16.7803 43.3879 16.4931 43.5024 16.3467C43.6857 16.2791 43.869 16.1496 44.0522 15.9581C44.3271 15.6991 44.5161 15.4682 44.6192 15.2655C44.665 15.2542 44.7337 15.1416 44.8254 14.9276C44.917 14.9051 45.0258 14.7474 45.1518 14.4546V14.2687C45.1862 14.2349 45.2205 14.1955 45.2549 14.1505C45.2205 14.1054 45.1862 14.0604 45.1518 14.0153V13.6605L45.2549 13.5423C45.2205 13.5085 45.169 13.4522 45.1003 13.3734H44.7566L44.5505 13.5254C44.3099 13.3339 44.1782 13.2382 44.1553 13.2382L43.9835 13.3734ZM43.1073 13.9984L43.0901 14.0322L43.1588 14.066L43.176 14.0322V14.0153L43.1073 13.9984ZM41.7672 14.5897C41.7672 14.601 41.7614 14.6066 41.75 14.6066C41.7729 14.6517 41.7901 14.6742 41.8015 14.6742C41.8015 14.6629 41.8073 14.6573 41.8187 14.6573C41.7958 14.6235 41.7843 14.601 41.7843 14.5897H41.7672Z" fill="#6D6D6D"/>
<path d="M51.8867 4.79126C51.9554 4.79126 52.0872 4.90952 52.2819 5.14603C52.2819 5.23613 52.3277 5.30934 52.4193 5.36565L52.6255 5.58527V6.29481C52.7171 6.37365 52.7629 6.44686 52.7629 6.51443V6.54822C52.7629 6.57075 52.6999 6.63832 52.574 6.75095H51.8524C51.7607 6.84105 51.6863 6.8861 51.629 6.8861H51.5946C51.5259 6.8861 51.3827 6.82416 51.1651 6.70027C51.1651 6.62143 51.125 6.53696 51.0449 6.44686C51.0334 6.37928 51.0277 6.31734 51.0277 6.26103V5.5008L50.9074 5.34876V5.28118C50.9074 5.16855 51.0277 5.07845 51.2682 5.01088C51.2682 4.99962 51.2968 4.97146 51.3541 4.92641H51.6805L51.8867 4.79126ZM49.2752 9.99457H49.5501C49.8136 10.0847 49.9453 10.1804 49.9453 10.2818V10.2987C49.9338 10.4 49.9281 10.462 49.9281 10.4845C50.1801 10.9463 50.3061 11.194 50.3061 11.2278V11.7684C50.2259 11.8473 50.1858 11.9092 50.1858 11.9543L50.203 12.0556C49.9395 12.2358 49.8021 12.3485 49.7906 12.3935C49.8136 12.4498 49.825 12.4949 49.825 12.5287V12.5456C49.825 12.6357 49.7391 12.9003 49.5673 13.3396C49.4184 13.4747 49.2752 13.6943 49.1378 13.9984C49.1034 14.1336 48.9889 14.2856 48.7942 14.4546C48.6567 14.5784 48.588 14.6685 48.588 14.7249C48.588 14.7812 48.5479 14.8375 48.4677 14.8938V15.3161C48.4677 15.3612 48.4276 15.4288 48.3474 15.5189L48.3646 15.5358V15.654C48.3646 15.7216 48.3188 15.868 48.2272 16.0933C48.2272 16.2059 48.1871 16.296 48.1069 16.3636V17.0562C48.0153 17.1463 47.9695 17.2083 47.9695 17.242V17.5799C48.0726 17.6025 48.1356 17.6137 48.1585 17.6137H48.1756C48.1985 17.6137 48.336 17.5518 48.588 17.4279C48.6109 17.3716 48.7541 17.2758 49.0175 17.1407H49.4986C49.5329 17.1407 49.5558 17.197 49.5673 17.3096C49.4528 17.3885 49.3096 17.6193 49.1378 18.0023L49.0862 18.0699V18.3233C48.9373 18.6499 48.8342 18.8132 48.777 18.8132C48.6624 18.8132 48.4734 18.8808 48.21 19.0159V19.2693C48.21 19.2918 48.1642 19.3087 48.0726 19.32L47.9351 19.3031C47.9237 19.3144 47.9065 19.32 47.8836 19.32C47.8492 19.2637 47.8206 19.1792 47.7977 19.0666H47.5399C47.3796 18.9089 47.2593 18.8301 47.1791 18.8301C47.1448 18.8301 47.0016 18.6949 46.7496 18.4246C46.7038 18.3683 46.6294 18.3402 46.5263 18.3402L46.3716 18.1543V17.8333C46.28 17.732 46.2342 17.6644 46.2342 17.6306C46.3258 17.4617 46.3716 17.3659 46.3716 17.3434C46.3487 17.3434 46.3029 17.2927 46.2342 17.1914V17.1238C46.2342 17.1013 46.2857 17.0168 46.3888 16.8704C46.5034 16.4762 46.6179 16.2172 46.7324 16.0933V15.6709C46.7324 15.6259 46.7725 15.5639 46.8527 15.4851V15.1303L46.973 14.9952V14.86C46.973 14.8037 47.0417 14.6685 47.1791 14.4546C47.1791 14.3419 47.2421 14.1786 47.3681 13.9646L47.351 13.8971V13.8464C47.351 13.8239 47.391 13.7563 47.4712 13.6437L47.454 13.5085C47.5457 13.3846 47.5972 13.272 47.6087 13.1706C47.6774 13.1256 47.7118 13.0749 47.7118 13.0186V12.9003L47.8492 12.63C47.8492 12.6075 47.8721 12.5568 47.9179 12.478C47.9179 12.3541 48.021 12.1176 48.2272 11.7684C48.3303 11.5432 48.4391 11.3461 48.5536 11.1771C48.5765 11.0758 48.6223 10.9125 48.6911 10.6872C48.6911 10.6422 48.6968 10.6196 48.7082 10.6196L48.6911 10.5183V10.2987C48.7712 10.1748 48.903 10.1128 49.0862 10.1128C49.1206 10.1128 49.1836 10.0734 49.2752 9.99457ZM48.8629 14.9783H48.9144C48.9373 14.9783 48.9488 15.029 48.9488 15.1303C48.9373 15.1754 48.903 15.1979 48.8457 15.1979L48.8113 15.1472C48.8228 15.0346 48.84 14.9783 48.8629 14.9783Z" fill="#6D6D6D"/>
<path d="M54.1202 9.87632H54.6357C54.7044 9.94389 54.7617 9.97768 54.8075 9.97768H54.8418C55.2313 10.3606 55.426 10.5633 55.426 10.5859C55.426 10.6534 55.489 10.7379 55.615 10.8393L55.6665 10.8899V11.2954C55.6665 11.3292 55.7123 11.4024 55.804 11.515C55.8154 11.5601 55.8211 11.5939 55.8211 11.6164C55.8211 11.6727 55.7696 11.7684 55.6665 11.9036C55.7238 11.9824 55.7753 12.0782 55.8211 12.1908C55.7295 12.2809 55.6837 12.3485 55.6837 12.3935V12.9341C55.6035 12.9904 55.5462 13.0805 55.5119 13.2044C55.4317 13.2945 55.3916 13.424 55.3916 13.593C55.3 13.6605 55.2255 13.8013 55.1683 14.0153C55.1912 14.0153 55.2313 14.0604 55.2885 14.1505V15.1303C55.2084 15.1979 55.1683 15.2542 55.1683 15.2993V15.6033L55.0652 15.7216V16.0764C55.0652 16.0876 55.0423 16.1102 54.9965 16.1439H54.3264C54.3149 16.189 54.2233 16.3129 54.0515 16.5156H54.0343C53.6793 16.3241 53.4444 16.2059 53.3299 16.1608V16.1777C53.2726 16.2453 53.2154 16.3579 53.1581 16.5156L53.1237 16.5325H53.1066C53.0607 16.5325 52.9863 16.4931 52.8832 16.4142C52.677 16.6282 52.5625 16.7352 52.5396 16.7352C52.5167 16.7352 52.4709 16.7014 52.4021 16.6339H52.1788C52.1673 16.6339 52.1158 16.5607 52.0242 16.4142L52.007 16.448V17.1914C52.2361 17.3941 52.3506 17.5011 52.3506 17.5124V17.7995C52.5339 17.7995 52.8374 17.9178 53.2612 18.1543C53.2955 18.1994 53.3127 18.2388 53.3127 18.2726C53.0951 18.3514 52.9347 18.4922 52.8317 18.6949C52.8088 18.7738 52.7858 18.8132 52.7629 18.8132H52.7114C52.677 18.8132 52.614 18.7738 52.5224 18.6949C52.5224 18.7062 52.4995 18.7343 52.4537 18.7794H52.4193C52.3048 18.7794 52.133 18.6724 51.9039 18.4584C51.8008 18.4584 51.6405 18.3345 51.4228 18.0867H51.2682L50.7356 17.5799L50.7012 17.5968C50.5981 17.4617 50.4893 17.2589 50.3748 16.9886V16.3467C50.2946 16.2791 50.2545 16.189 50.2545 16.0764V15.6033C50.1744 15.5583 50.1343 15.4513 50.1343 15.2824C50.1343 15.2373 50.0713 15.1923 49.9453 15.1472C49.8422 15.0909 49.7849 15.0458 49.7735 15.0121V14.6235C49.7735 14.6122 49.8307 14.5559 49.9453 14.4546H50.014C50.0598 14.4546 50.1343 14.4489 50.2373 14.4377L50.4092 14.1505H50.4435L50.4779 14.1674C50.6726 13.7169 50.7929 13.4916 50.8387 13.4916C51.0334 13.4353 51.1308 13.3396 51.1308 13.2044C51.1308 13.1819 51.2052 13.0805 51.3541 12.9003C51.3541 12.8215 51.4515 12.6413 51.6462 12.3597C51.7264 12.1232 51.8123 11.9768 51.9039 11.9205H52.1101C52.1902 11.9205 52.2647 11.8416 52.3334 11.684C52.4021 11.3573 52.6026 11.0589 52.9347 10.7886C53.0722 10.676 53.1753 10.5295 53.244 10.3493C53.3815 10.3381 53.4502 10.293 53.4502 10.2142C53.5418 10.0565 53.5991 9.97768 53.622 9.97768H54.0171C54.0171 9.95516 54.0515 9.92137 54.1202 9.87632ZM52.5396 13.8464H52.5224C52.488 13.8464 52.4651 13.7788 52.4537 13.6437V13.6268C52.4537 13.4691 52.4995 13.3508 52.5911 13.272V13.1368C52.5911 13.0805 52.574 13.0411 52.5396 13.0186C52.3678 13.379 52.2303 13.5986 52.1272 13.6774V14.1505C52.1272 14.1617 52.1387 14.173 52.1616 14.1843C52.1845 14.1843 52.2074 14.1223 52.2303 13.9984L52.2647 13.9815H52.3162C52.3277 13.9815 52.3506 14.0829 52.385 14.2856L52.5568 14.4546H53.1581L53.2955 14.5728H53.622C53.6449 14.5728 53.7079 14.4489 53.811 14.2012V13.3227C53.8453 13.3001 53.9026 13.1931 53.9828 13.0017C54.0286 13.0017 54.0572 12.9003 54.0687 12.6976C54.1489 12.6188 54.189 12.523 54.189 12.4104C54.1775 12.1739 54.1603 12.0556 54.1374 12.0556C54.126 12.0444 54.1088 12.0387 54.0859 12.0387C53.9484 12.0387 53.8568 12.1514 53.811 12.3766C53.7881 12.3991 53.7251 12.416 53.622 12.4273C53.5991 12.4723 53.4788 12.6019 53.2612 12.8159C53.181 12.951 53.0035 13.1706 52.7286 13.4747C52.6255 13.7225 52.5625 13.8464 52.5396 13.8464Z" fill="#6D6D6D"/>
<path d="M60.9067 8.8289H61.9032C61.9719 8.90773 62.0807 8.94715 62.2296 8.94715C62.2754 8.94715 62.3327 8.98094 62.4014 9.04852H62.7279C62.808 9.11609 62.8825 9.16677 62.9512 9.20056C62.9627 9.1893 62.9799 9.18367 63.0028 9.18367C63.4724 9.62291 63.7072 9.87632 63.7072 9.94389C63.7415 10.034 63.816 10.1185 63.9305 10.1973V10.4507L64.1882 10.6703V11.1434C64.3371 11.4249 64.4116 11.5713 64.4116 11.5826V11.8529C64.2971 12.1795 64.1596 12.3428 63.9992 12.3428C63.9534 12.3428 63.9248 12.4104 63.9133 12.5456C63.9019 12.5456 63.8045 12.63 63.6213 12.799C63.4953 12.6751 63.4323 12.5287 63.4323 12.3597C63.3406 12.2133 63.2948 12.0894 63.2948 11.9881V11.9374L63.312 11.9036C63.2204 11.8923 63.0543 11.6389 62.8138 11.1434V10.7886C62.5847 10.3043 62.4472 10.0621 62.4014 10.0621C62.2067 10.0621 62.0807 10.0227 62.0234 9.94389H61.5252L61.4049 10.0453H61.0613L60.9239 10.1635H60.7005L60.5287 10.2818H60.3054C60.2481 10.3606 60.1507 10.4 60.0133 10.4C59.9331 10.4 59.8357 10.4676 59.7212 10.6028C59.5494 10.6478 59.3948 10.7717 59.2573 10.9744L59.2058 11.0082H59.0683C59.0225 11.1771 58.9538 11.2954 58.8622 11.363C58.7934 11.3742 58.6903 11.5038 58.5529 11.7515L58.4155 11.9036V12.2077C58.4155 12.2302 58.3296 12.3935 58.1577 12.6976V13.0693C58.1577 13.103 58.0776 13.2495 57.9172 13.5085V14.066L58.1577 14.3194V14.7586C58.1577 14.86 58.2036 14.9783 58.2952 15.1134C58.2952 15.2373 58.3296 15.3443 58.3983 15.4344C58.3983 15.4795 58.4441 15.5639 58.5357 15.6878V15.7216C58.5357 15.7329 58.53 15.7723 58.5185 15.8399C58.6904 16.1102 58.7763 16.3185 58.7763 16.4649L59.1199 17.09V17.1238C59.0741 17.1688 59.0512 17.2026 59.0512 17.2252C59.1886 17.4729 59.2573 17.6137 59.2573 17.6475V18.6273C59.2573 18.6386 59.3031 18.6949 59.3948 18.7963V19.6241L59.4979 19.7423V20.2323C59.4979 20.2435 59.4635 20.2886 59.3948 20.3674V20.587C59.349 20.6434 59.3089 20.6884 59.2745 20.7222C59.3547 20.8123 59.3948 20.8686 59.3948 20.8911C59.3146 21.0488 59.2745 21.1445 59.2745 21.1783V21.9217C59.0912 22.0681 58.9824 22.2201 58.9481 22.3778C58.9252 22.4003 58.908 22.4116 58.8965 22.4116V22.6481C58.7476 22.7945 58.6732 22.8902 58.6732 22.9353C58.7304 22.9691 58.7591 23.0085 58.7591 23.0535C58.7362 23.0761 58.6331 23.093 58.4498 23.1042C58.4384 23.2056 58.3467 23.3351 58.1749 23.4928L57.8485 23.7969H57.6423C57.608 23.8307 57.4762 23.9039 57.2472 24.0165C57.2472 24.039 57.2357 24.0503 57.2128 24.0503H56.7489C56.6687 23.9714 56.6057 23.932 56.5599 23.932H56.2678C56.1189 23.7856 55.867 23.6336 55.5119 23.4759C55.2828 23.2281 55.0308 22.9803 54.7559 22.7326C54.7559 22.665 54.6757 22.5355 54.5154 22.344C54.4008 22.1525 54.3436 22.0399 54.3436 22.0061V21.5838C54.252 21.5162 54.2061 21.4205 54.2061 21.2966V20.908C54.607 20.4913 54.8132 20.2829 54.8246 20.2829H54.859C54.9048 20.2829 54.9793 20.3505 55.0824 20.4857V20.7222L54.9793 20.8404V21.5669C55.0595 21.657 55.0995 21.7246 55.0995 21.7696L55.0824 21.9048C55.1511 21.9949 55.2084 22.1019 55.2542 22.2257C55.3916 22.3384 55.4603 22.4116 55.4603 22.4454C55.4603 22.5242 55.4947 22.5861 55.5634 22.6312C55.7811 22.8677 55.9872 23.0085 56.1819 23.0535C56.1819 23.0648 56.2678 23.1099 56.4397 23.1887C56.5542 23.1211 56.6516 23.0761 56.7317 23.0535H56.8348L57.5392 22.3609V22.1751L57.7626 21.9217V21.3473L57.9 21.1783V20.114C57.9115 20.0802 57.9401 20.0633 57.9859 20.0633C58.0203 20.1196 58.0604 20.1478 58.1062 20.1478L58.3983 19.8606V19.7086C58.3983 19.6748 58.3639 19.6128 58.2952 19.5227C58.2952 19.3988 58.2494 19.3369 58.1577 19.3369H58.1406V19.641C58.1406 19.6635 58.1291 19.6748 58.1062 19.6748C58.0489 19.6748 57.9802 19.6185 57.9 19.5058C57.9 19.3932 57.9458 19.3369 58.0375 19.3369C58.0718 19.3256 58.1062 19.32 58.1406 19.32C58.1406 19.2975 58.0317 19.1848 57.8141 18.9821C57.7912 18.9145 57.7798 18.8695 57.7798 18.847V18.2388C57.6194 17.9572 57.5392 17.7995 57.5392 17.7658V17.4955C57.356 17.2252 57.2643 17.0112 57.2643 16.8535C57.1727 16.7296 57.0181 16.4311 56.8005 15.9581V15.7554C56.8005 15.7329 56.7203 15.5639 56.5599 15.2486V14.9614C56.5599 14.9501 56.5141 14.8938 56.4225 14.7924V12.8834C56.4225 12.8496 56.4969 12.8102 56.6458 12.7652C56.6573 12.6751 56.7031 12.585 56.7833 12.4949V12.0387L56.663 11.8867C56.663 11.7966 56.7718 11.6558 56.9894 11.4643H57.1613V11.1771C57.2529 11.0533 57.3502 10.9913 57.4533 10.9913C57.5793 10.9913 57.6423 10.9575 57.6423 10.8899C57.5736 10.7435 57.5392 10.6591 57.5392 10.6365V10.6196C57.5621 10.5408 57.5908 10.5014 57.6251 10.5014H57.8657C57.8657 10.4 57.9745 10.248 58.1921 10.0453H58.4155C58.53 9.98894 58.6102 9.88195 58.656 9.72427C58.7133 9.60038 58.7877 9.53844 58.8793 9.53844C59.0282 9.44834 59.16 9.40329 59.2745 9.40329L59.326 9.42018C59.452 9.26251 59.5551 9.18367 59.6353 9.18367C59.7613 9.18367 59.8529 9.14988 59.9102 9.0823H59.9446L60.1335 9.20056C60.1335 9.1893 60.2366 9.0992 60.4428 8.93026H60.7864L60.9067 8.8289ZM57.1784 11.4981L57.1956 11.5657H57.23C57.2529 11.5657 57.2643 11.5601 57.2643 11.5488C57.2414 11.5488 57.2185 11.5319 57.1956 11.4981H57.1784ZM57.8141 16.2284V16.2622L57.8828 16.2791V16.2622L57.8657 16.2115C57.8428 16.2228 57.8256 16.2284 57.8141 16.2284ZM57.9344 16.3467C57.9344 16.3579 57.9287 16.3636 57.9172 16.3636L57.9344 16.3974H57.9688C57.9802 16.3974 57.9859 16.3917 57.9859 16.3805L57.9344 16.3467ZM58.2608 18.1374V18.1543C58.3639 18.4359 58.4269 18.5767 58.4498 18.5767H58.467C58.5014 18.5767 58.5185 18.5147 58.5185 18.3908V18.2895C58.5185 18.2669 58.5071 18.2163 58.4842 18.1374H58.2608ZM58.0547 18.9314L58.2093 19.0835H58.2265C58.2265 19.0722 58.2436 19.0384 58.278 18.9821C58.2436 18.9033 58.215 18.8639 58.1921 18.8639H58.1406C58.0833 18.8639 58.0547 18.8864 58.0547 18.9314ZM58.1921 20.6884V20.756H58.2265V20.7053C58.2265 20.694 58.215 20.6884 58.1921 20.6884Z" fill="#6D6D6D"/>
</svg>
