<svg width="62" height="21" viewBox="0 0 62 21" fill="none" xmlns="http://www.w3.org/2000/svg">
<path d="M11.5118 21C8.35129 21 5.72086 20.0261 3.62051 18.0783C1.54017 16.1101 0.5 13.5841 0.5 10.5C0.5 7.39565 1.54017 4.86957 3.62051 2.92174C5.70085 0.973913 8.33128 0 11.5118 0C13.9122 0 15.8425 0.568116 17.3028 1.70435C18.783 2.84058 19.8832 4.24058 20.6033 5.90435L15.3824 8.36957C15.1224 7.55797 14.6323 6.86812 13.9122 6.3C13.1921 5.71159 12.3919 5.41739 11.5118 5.41739C10.0716 5.41739 8.90138 5.90435 8.00123 6.87826C7.10108 7.85217 6.65101 9.05942 6.65101 10.5C6.65101 11.9406 7.10108 13.1478 8.00123 14.1217C8.90138 15.0957 10.0716 15.5826 11.5118 15.5826C12.3919 15.5826 13.1921 15.2986 13.9122 14.7304C14.6323 14.142 15.1224 13.442 15.3824 12.6304L20.6033 15.0652C20.2832 15.8159 19.8832 16.5159 19.4031 17.1652C18.923 17.7942 18.3229 18.413 17.6028 19.0217C16.8827 19.6304 15.9925 20.1174 14.9324 20.4826C13.8922 20.8275 12.752 21 11.5118 21Z" fill="#6D6D6D"/>
<path d="M37.8641 20.6348H30.963L28.2025 14.2435H26.0122V20.6348H19.9512V0.334782H30.6329C32.8933 0.334782 34.6536 1.00435 35.9138 2.34348C37.194 3.66232 37.8341 5.31594 37.8341 7.30435C37.8341 8.88696 37.474 10.1855 36.7539 11.2C36.0538 12.2145 35.2137 12.9652 34.2335 13.4522L37.8641 20.6348ZM29.7028 8.88696C30.2628 8.88696 30.7329 8.75507 31.113 8.4913C31.4931 8.20725 31.6831 7.80145 31.6831 7.27391C31.6831 6.76667 31.4931 6.38116 31.113 6.11739C30.7329 5.83333 30.2628 5.6913 29.7028 5.6913H26.0122V8.88696H29.7028Z" fill="#6D6D6D"/>
<path d="M61.5 20.6348H55.439V8.43043L50.9683 20.6348H48.2678L43.7971 8.43043V20.6348H37.7361V0.334782H46.1075L49.6181 10.0739L53.1286 0.334782H61.5V20.6348Z" fill="#6D6D6D"/>
</svg>
