<svg width="38" height="33" viewBox="0 0 38 33" fill="none" xmlns="http://www.w3.org/2000/svg">
<g opacity="0.4">
<path d="M11.8148 5.47223L4.89197 17.5153L7.41259 21.7356L14.4064 9.71025H19.1814L16.7318 5.47223H11.8148Z" fill="#6D6D6D"/>
<path d="M32.8811 17.4783L25.8775 5.46875L20.9461 5.52419L27.8988 17.5861L25.5078 21.7022L30.4189 21.7168L32.8811 17.4783Z" fill="#6D6D6D"/>
<path d="M11.878 29.5814L25.8147 29.6483L28.2654 25.3828L14.3091 25.2456L11.9603 21.1055L9.45923 25.3181L11.878 29.5814Z" fill="#6D6D6D"/>
</g>
<g opacity="0.1">
<path d="M14.0844 9.32952L9.37195 17.5234L11.0878 20.3949L15.8486 12.213H19.099L17.4315 9.32952H14.0844Z" fill="#6D6D6D"/>
<path d="M28.4246 17.4983L23.6571 9.32715L20.3003 9.36487L25.0331 17.5716L23.4054 20.3721L26.7485 20.3821L28.4246 17.4983Z" fill="#6D6D6D"/>
<path d="M14.1274 25.733L23.6144 25.7786L25.2826 22.8764L15.7824 22.783L14.1834 19.9661L12.4809 22.8324L14.1274 25.733Z" fill="#6D6D6D"/>
</g>
<path d="M9.6078 0.866165L0.411621 16.8945L3.75997 22.5115L13.0505 6.50665H19.3935L16.1395 0.866165H9.6078Z" fill="#6D6D6D"/>
<path d="M37.6264 16.8237L28.317 0.860352L21.7622 0.934047L31.0038 16.967L27.8256 22.4382L34.3536 22.4576L37.6264 16.8237Z" fill="#6D6D6D"/>
<path d="M9.70856 32.9114L28.2336 33.0004L31.4911 27.3305L12.9401 27.1482L9.81796 21.645L6.49353 27.2446L9.70856 32.9114Z" fill="#6D6D6D"/>
<path d="M25.1706 16.871L23.6415 19.5598L22.0698 22.224L18.969 22.2485L15.8683 22.224L14.2966 19.5598L12.7675 16.871L14.2966 14.1823L15.8683 11.5181L18.969 11.4935L22.0698 11.5181L23.6415 14.1823L25.1706 16.871Z" fill="#6D6D6D"/>
</svg>
