<svg width="31" height="32" viewBox="0 0 31 32" fill="none" xmlns="http://www.w3.org/2000/svg">
<path d="M12.7727 16C12.7727 17.5564 13.9938 18.8182 15.5 18.8182C17.0062 18.8182 18.2273 17.5564 18.2273 16C18.2273 14.4436 17.0062 13.1818 15.5 13.1818C13.9938 13.1818 12.7727 14.4436 12.7727 16Z" fill="#6D6D6D"/>
<path fill-rule="evenodd" clip-rule="evenodd" d="M14.1364 1.90909C14.1364 1.13087 14.7469 0.5 15.5 0.5C16.2531 0.5 16.8636 1.13087 16.8636 1.90909V2.02757C16.8636 2.80627 17.4339 3.45043 18.1696 3.61906C22.8045 4.68146 26.4534 8.45199 27.4816 13.2414C27.6447 14.0016 28.2681 14.5909 29.0217 14.5909H29.1364C29.8895 14.5909 30.5 15.2218 30.5 16C30.5 16.7782 29.8895 17.4091 29.1364 17.4091H29.0217C28.2681 17.4091 27.6447 17.9984 27.4816 18.7586C26.4534 23.548 22.8045 27.3185 18.1696 28.3809C17.4339 28.5496 16.8636 29.1937 16.8636 29.9724V30.0909C16.8636 30.8691 16.2531 31.5 15.5 31.5C14.7469 31.5 14.1364 30.8691 14.1364 30.0909V29.9724C14.1364 29.1937 13.5661 28.5496 12.8304 28.3809C8.19547 27.3185 4.54657 23.548 3.51845 18.7586C3.35525 17.9984 2.73187 17.4091 1.97829 17.4091H1.86364C1.11052 17.4091 0.5 16.7782 0.5 16C0.5 15.2218 1.11052 14.5909 1.86364 14.5909H1.97829C2.73187 14.5909 3.35525 14.0016 3.51845 13.2414C4.54657 8.45199 8.19547 4.68146 12.8304 3.61906C13.5661 3.45043 14.1364 2.80627 14.1364 2.02757V1.90909ZM6.35327 18.8301C6.14026 18.0939 6.71655 17.4091 7.46011 17.4091C8.13484 17.4091 8.68182 16.8439 8.68182 16.1467V15.8533C8.68182 15.1561 8.13484 14.5909 7.46011 14.5909C6.71655 14.5909 6.14026 13.9061 6.35327 13.1699C7.27103 9.99811 9.69172 7.49673 12.7612 6.54838C13.4736 6.32827 14.1364 6.92377 14.1364 7.69211C14.1364 8.38933 14.6833 8.95455 15.3581 8.95455H15.6419C16.3167 8.95455 16.8636 8.38933 16.8636 7.69211C16.8636 6.92377 17.5264 6.32827 18.2388 6.54838C21.3083 7.49673 23.729 9.99811 24.6467 13.1699C24.8597 13.9061 24.2835 14.5909 23.5399 14.5909C22.8652 14.5909 22.3182 15.1561 22.3182 15.8533V16.1467C22.3182 16.8439 22.8652 17.4091 23.5399 17.4091C24.2835 17.4091 24.8597 18.0939 24.6467 18.8301C23.729 22.0019 21.3083 24.5033 18.2388 25.4516C17.5264 25.6717 16.8636 25.0762 16.8636 24.3079C16.8636 23.6107 16.3167 23.0455 15.6419 23.0455H15.3581C14.6833 23.0455 14.1364 23.6107 14.1364 24.3079C14.1364 25.0762 13.4736 25.6717 12.7612 25.4516C9.69172 24.5033 7.27103 22.0019 6.35327 18.8301Z" fill="#6D6D6D"/>
</svg>
