<svg width="23" height="33" viewBox="0 0 23 33" fill="none" xmlns="http://www.w3.org/2000/svg">
<path d="M21.4579 27.3458L22.7659 30.9357C23.152 31.9952 22.0493 32.9807 21.0642 32.4564L17.6125 30.6195L12.0121 27.4927L9.88143 28.6834L10.5397 26.6706L11.8933 22.5144C11.9103 22.4614 11.9386 22.4128 11.9763 22.3723C12.0139 22.3317 12.0599 22.3 12.111 22.2796C12.1621 22.2592 12.217 22.2505 12.2718 22.2541C12.3266 22.2578 12.3799 22.2737 12.4279 22.3007L14.1732 23.2794L15.4577 23.9922L11.9479 13.243L6.24149 30.719L6.20617 30.7386L5.19302 31.303L2.28043 32.9292L2.10221 32.9782C1.96716 33.0084 1.82715 33.0075 1.69249 32.9755C1.55783 32.9435 1.43195 32.8812 1.32411 32.7933C1.21628 32.7053 1.12923 32.5939 1.06937 32.4673C1.00952 32.3406 0.978394 32.202 0.978275 32.0615C0.97808 31.9906 0.986164 31.92 1.00236 31.8511L1.06016 31.6765L9.50893 5.80179L11.1434 0.821927C11.1954 0.649623 11.2982 0.497696 11.4379 0.386715C11.5777 0.275733 11.7476 0.211059 11.9248 0.201447C12.1019 0.191836 12.2777 0.237752 12.4283 0.332979C12.5789 0.428206 12.697 0.568141 12.7667 0.733844L12.8053 0.856179L21.4579 27.3458Z" fill="#6D6D6D"/>
</svg>
