<svg width="64" height="64" viewBox="0 0 64 64" fill="none" xmlns="http://www.w3.org/2000/svg">
<g clip-path="url(#clip0_1728_87)">
<path d="M13.936 40.6204C13.8858 40.62 13.8358 40.6139 13.787 40.6021C13.6109 40.5602 13.4378 40.5066 13.2688 40.4415C11.0936 39.6055 10.771 37.5092 11.4162 35.8034C11.651 35.1201 12.0832 34.5233 12.6573 34.0898C12.7244 34.0293 12.8034 33.9836 12.889 33.9555C12.9747 33.9275 13.0652 33.9178 13.1548 33.927C13.2444 33.9362 13.3311 33.9642 13.4093 34.0091C13.4876 34.054 13.5557 34.1149 13.6094 34.1878C13.663 34.2608 13.7009 34.3442 13.7208 34.4327C13.7407 34.5213 13.742 34.613 13.7247 34.7021C13.7074 34.7912 13.6718 34.8757 13.6203 34.9502C13.5688 35.0247 13.5025 35.0875 13.4255 35.1347C13.0525 35.4225 12.7743 35.8172 12.6275 36.2671C12.4319 36.7896 11.9331 38.528 13.7313 39.2189C13.8467 39.2637 13.9648 39.3008 14.085 39.33C14.24 39.3663 14.3764 39.459 14.468 39.5902C14.5596 39.7215 14.6001 39.8822 14.5817 40.0416C14.5632 40.201 14.4872 40.348 14.3681 40.4546C14.249 40.5611 14.0952 40.6196 13.936 40.6191V40.6204Z" fill="#FF8A00"/>
<path d="M23.2756 17.7215C21.3968 17.7078 19.5357 17.3539 17.7811 16.6766C17.6994 16.6481 17.6241 16.6035 17.5597 16.5452C17.4953 16.4869 17.4432 16.4163 17.4063 16.3373C17.3695 16.2584 17.3487 16.1729 17.3452 16.0857C17.3417 15.9986 17.3555 15.9116 17.3859 15.8299C17.4163 15.7483 17.4626 15.6736 17.522 15.6102C17.5815 15.5469 17.653 15.4962 17.7322 15.4612C17.8114 15.4262 17.8968 15.4075 17.9833 15.4063C18.0698 15.405 18.1557 15.4213 18.2359 15.4541C22.151 16.9339 25.0466 16.2626 25.0764 16.256C25.2435 16.2158 25.4197 16.2443 25.5661 16.335C25.7124 16.4258 25.8171 16.5714 25.8569 16.7399C25.8968 16.9085 25.8686 17.0861 25.7786 17.2336C25.6886 17.3812 25.5441 17.4867 25.3769 17.5269C24.6854 17.6675 23.9809 17.7327 23.2756 17.7215Z" fill="#FF8A00"/>
<path d="M48.3729 43.755C47.7056 43.7619 47.0564 43.5368 46.5345 43.1177L40.7745 38.4496C40.7077 38.396 40.6521 38.3296 40.6108 38.2543C40.5696 38.1789 40.5435 38.0961 40.5341 38.0106C40.5247 37.925 40.5321 37.8385 40.556 37.7558C40.5799 37.6732 40.6197 37.5962 40.6733 37.5291C40.7268 37.4621 40.7929 37.4064 40.8679 37.3652C40.9428 37.324 41.0251 37.2981 41.11 37.2891C41.1949 37.2801 41.2808 37.2881 41.3626 37.3126C41.4444 37.3372 41.5206 37.3778 41.5868 37.4321L47.3468 42.0989C48.1371 42.7402 49.4003 42.4907 50.162 41.5294C50.5335 41.0786 50.7309 40.5075 50.7178 39.9216C50.7159 39.6769 50.6613 39.4356 50.5577 39.2144C50.4542 38.9931 50.3041 38.7972 50.118 38.6403L31.6474 23.5506C31.5788 23.4975 31.5216 23.4311 31.4789 23.3554C31.4362 23.2796 31.409 23.1959 31.3989 23.1094C31.3887 23.0229 31.3959 22.9352 31.4199 22.8514C31.4439 22.7677 31.4843 22.6897 31.5387 22.622C31.5931 22.5543 31.6604 22.4982 31.7366 22.4571C31.8128 22.416 31.8964 22.3906 31.9825 22.3826C32.0685 22.3746 32.1553 22.384 32.2377 22.4103C32.3201 22.4366 32.3965 22.4793 32.4623 22.5358L50.9316 37.628C51.263 37.9013 51.5314 38.2441 51.7182 38.6325C51.905 39.0209 52.0058 39.4456 52.0134 39.8772C52.0372 40.777 51.7392 41.6555 51.1739 42.3523C50.8397 42.7812 50.4149 43.1297 49.9304 43.3724C49.4459 43.615 48.9138 43.7457 48.3729 43.755Z" fill="#FF8A00"/>
<path d="M43.4381 47.2033C42.7707 47.2095 42.1216 46.9839 41.5997 46.5646L33.5893 40.0105C33.4619 39.8995 33.3823 39.7429 33.3675 39.5738C33.3526 39.4047 33.4037 39.2364 33.5098 39.1046C33.616 38.9728 33.7688 38.8879 33.936 38.8678C34.1032 38.8477 34.2716 38.894 34.4055 38.997L42.4133 45.5485C43.2023 46.1885 44.4668 45.9325 45.2285 44.9764C45.5992 44.5256 45.7965 43.9553 45.7843 43.3699C45.7824 43.1251 45.7276 42.8837 45.6238 42.6624C45.52 42.4412 45.3696 42.2453 45.1832 42.0885L37.1638 35.5266C37.0948 35.4736 37.0371 35.4071 36.9941 35.3312C36.9511 35.2553 36.9236 35.1714 36.9134 35.0846C36.9031 34.9978 36.9102 34.9098 36.9343 34.8258C36.9584 34.7418 36.999 34.6636 37.0537 34.5957C37.1083 34.5278 37.176 34.4717 37.2525 34.4306C37.3291 34.3896 37.4131 34.3645 37.4995 34.3568C37.5859 34.3491 37.6729 34.3589 37.7554 34.3858C37.838 34.4126 37.9143 34.4559 37.98 34.513L45.9916 41.0724C46.3233 41.3454 46.5919 41.6881 46.7787 42.0766C46.9656 42.465 47.0661 42.8899 47.0734 43.3215C47.0972 44.2212 46.7987 45.0994 46.2326 45.7953C45.8996 46.2243 45.476 46.5732 44.9927 46.8168C44.5094 47.0603 43.9783 47.1923 43.4381 47.2033Z" fill="#FF8A00"/>
<path d="M38.7716 50.7154C38.1034 50.7216 37.4534 50.4961 36.9306 50.0767L30.0175 44.497C29.9511 44.4434 29.8958 44.3771 29.8548 44.3019C29.8137 44.2268 29.7878 44.1442 29.7784 44.059C29.7594 43.8868 29.8091 43.714 29.9165 43.5788C30.0239 43.4435 30.1801 43.3568 30.351 43.3377C30.5218 43.3186 30.6931 43.3686 30.8273 43.4769L37.7403 49.0579C38.5345 49.7006 39.7989 49.4498 40.5607 48.4911C41.2175 47.6682 41.3043 46.562 40.768 45.8619C40.6943 45.7651 40.6095 45.6774 40.5154 45.6006L33.5933 40.0144C33.4591 39.9061 33.3731 39.7486 33.3541 39.5764C33.3352 39.4042 33.3848 39.2314 33.4922 39.0962C33.5996 38.9609 33.7559 38.8742 33.9267 38.8551C34.0975 38.8359 34.2688 38.886 34.403 38.9943L41.3277 44.5832C41.5008 44.724 41.6572 44.8844 41.7941 45.0612C42.6906 46.2367 42.5973 48.0183 41.5712 49.3061C41.238 49.7362 40.8137 50.0859 40.3294 50.3298C39.845 50.5736 39.3128 50.7053 38.7716 50.7154Z" fill="#FF8A00"/>
<path d="M16.4015 38.3817C16.2658 38.3817 16.1335 38.3387 16.0233 38.2588C15.9131 38.1789 15.8306 38.0661 15.7874 37.9364C15.1578 36.049 13.0253 35.0172 13.0033 35.0041L12.9852 34.9937L12.7092 34.8513C12.0265 34.4973 11.3813 34.163 10.7776 33.9971C10.6135 33.9501 10.4745 33.8399 10.3905 33.6902C10.3066 33.5406 10.2846 33.3636 10.3293 33.1977C10.374 33.0318 10.4817 32.8904 10.6292 32.8041C10.7767 32.7177 10.9519 32.6935 11.117 32.7367C11.8516 32.9378 12.5563 33.3035 13.3026 33.6901L13.5617 33.8208C13.778 33.9252 16.2292 35.1569 17.0104 37.5106C17.0651 37.6748 17.0527 37.8541 16.9762 38.0091C16.8997 38.1642 16.7652 38.2822 16.6023 38.3373C16.5382 38.363 16.4704 38.378 16.4015 38.3817Z" fill="#FF8A00"/>
<path d="M32.0271 52.6368C31.3527 52.6329 30.6996 52.3985 30.1745 51.972C29.8208 51.6846 29.4451 51.3907 29.0085 51.0498C28.5719 50.7089 28.0744 50.3197 27.5134 49.8743C27.4451 49.8215 27.3879 49.7555 27.3452 49.6802C27.3025 49.6048 27.2751 49.5217 27.2646 49.4355C27.2541 49.3494 27.2608 49.262 27.2842 49.1785C27.3076 49.095 27.3473 49.017 27.4009 48.9491C27.4545 48.8812 27.5211 48.8248 27.5966 48.7832C27.6721 48.7415 27.7551 48.7154 27.8407 48.7065C27.9263 48.6975 28.0129 48.7059 28.0953 48.731C28.1776 48.7561 28.2542 48.7976 28.3205 48.8529C28.875 49.297 29.3673 49.6836 29.8027 50.0284C30.238 50.3733 30.6214 50.6697 30.9842 50.9623C31.3729 51.2823 32.4391 51.8609 33.8033 50.3693C34.5068 49.476 34.5314 48.2626 33.859 47.5978C33.8235 47.5619 33.7859 47.5283 33.7463 47.4972L30.0164 44.5023C29.8857 44.3932 29.8026 44.2367 29.7851 44.0665C29.7676 43.8963 29.817 43.726 29.9228 43.5922C30.0285 43.4584 30.1821 43.3718 30.3506 43.3509C30.519 43.3301 30.6889 43.3768 30.8235 43.4809L34.556 46.4771C34.6321 46.5382 34.7048 46.6037 34.7737 46.673C35.9319 47.8159 35.9474 49.7672 34.8009 51.2039L34.7737 51.2353C33.8435 52.2606 32.8796 52.6368 32.0271 52.6368Z" fill="#FF8A00"/>
<path d="M42.5755 30.3022C41.8273 30.2976 41.0843 30.1759 40.3731 29.9417C39.1463 29.5333 38.012 28.8839 37.0357 28.0308L30.6396 22.7384L26.797 23.8826C26.0884 25.5714 24.5622 27.9224 21.5643 27.9224C21.1972 27.9199 20.8309 27.8859 20.4696 27.8205C19.7026 27.6899 19.3282 27.2759 19.1494 26.9546C18.6934 26.133 19.0665 25.1338 19.1105 25.0228C19.1185 25.0023 19.1276 24.9822 19.1377 24.9627C20.0589 23.1851 22.102 18.4569 22.1175 18.4099C22.1331 18.3629 22.1447 18.3537 22.1603 18.3263C22.1965 18.2688 23.0529 16.8896 24.5337 16.4233C25.7839 16.0315 31.2705 14.1846 31.325 14.165C32.4929 13.8121 33.7379 13.8121 34.9058 14.165C37.3972 14.9617 40.9949 16.358 41.0351 16.371L41.0701 16.3867C41.0947 16.3972 43.6612 17.5335 45.931 16.2783C46.0056 16.2352 46.088 16.2075 46.1733 16.1968C46.2587 16.1862 46.3453 16.1928 46.4281 16.2162C46.5109 16.2396 46.5883 16.2795 46.6556 16.3334C46.723 16.3873 46.7791 16.4542 46.8205 16.5301C46.862 16.6061 46.888 16.6896 46.8971 16.7759C46.9062 16.8621 46.8982 16.9493 46.8735 17.0323C46.8489 17.1154 46.808 17.1927 46.7534 17.2597C46.6988 17.3267 46.6315 17.382 46.5554 17.4225C43.7998 18.9506 40.855 17.7164 40.5544 17.5844C40.2953 17.4852 36.8867 16.1686 34.5146 15.4097C33.1024 14.9578 31.7525 15.4097 31.7382 15.4097C31.6799 15.4293 26.1829 17.2749 24.9237 17.6759C24.0168 17.9658 23.4014 18.8135 23.2835 18.9885C23.0477 19.5319 21.2106 23.7768 20.3037 25.5374C20.2403 25.7177 20.1612 26.1134 20.2804 26.3211C20.3024 26.3603 20.3698 26.4804 20.6872 26.5353C22.9946 26.9363 24.6827 25.783 25.7062 23.1093C25.7418 23.0158 25.7984 22.9319 25.8714 22.8639C25.9444 22.796 26.0319 22.7459 26.1272 22.7175L30.5969 21.3866C30.6982 21.3561 30.8053 21.3512 30.909 21.3721C31.0127 21.3931 31.1096 21.4393 31.1915 21.5067L37.8636 27.0277L37.8934 27.0538C38.0812 27.2288 42.5638 31.3079 46.6552 27.076C46.7754 26.952 46.9396 26.8812 47.1116 26.8793C47.2837 26.8773 47.4494 26.9443 47.5724 27.0656C47.6954 27.1868 47.7656 27.3524 47.7676 27.5258C47.7695 27.6992 47.703 27.8663 47.5828 27.9903C45.883 29.751 44.1146 30.3022 42.5755 30.3022Z" fill="#FF8A00"/>
<path d="M49.101 37.6071C48.9292 37.6128 48.7621 37.5495 48.6367 37.4311C48.5112 37.3126 48.4375 37.1488 48.4318 36.9756C48.4261 36.8024 48.489 36.634 48.6064 36.5075C48.7239 36.381 48.8864 36.3067 49.0582 36.301C49.1502 36.2918 50.907 36.0946 52.13 33.1807C52.1608 33.0985 52.2079 33.0234 52.2682 32.96C52.3286 32.8966 52.401 32.8461 52.4812 32.8115C52.5613 32.777 52.6476 32.7591 52.7348 32.759C52.8219 32.7589 52.9083 32.7765 52.9885 32.8108C53.0688 32.8451 53.1414 32.8954 53.2019 32.9586C53.2624 33.0219 53.3097 33.0968 53.3408 33.1789C53.3719 33.261 53.3863 33.3486 53.383 33.4364C53.3798 33.5243 53.359 33.6105 53.3219 33.6901C51.7581 37.4177 49.2435 37.598 49.1372 37.6084L49.101 37.6071Z" fill="#FF8A00"/>
<path d="M25.7126 51.1438C25.2689 51.1395 24.8298 51.0532 24.417 50.8891C22.2431 50.0532 21.9205 47.9569 22.5657 46.2511C22.8733 45.4005 23.4701 44.6874 24.2499 44.2384C24.6666 44.0162 25.1255 43.8862 25.596 43.8569C26.0664 43.8276 26.5377 43.8996 26.9784 44.0683C27.4191 44.237 27.819 44.4984 28.1517 44.8352C28.4843 45.1719 28.7419 45.5762 28.9074 46.0212C29.2087 46.8807 29.1935 47.8208 28.8646 48.67C28.3555 50.0245 27.2348 51.1438 25.7126 51.1438ZM25.7747 45.1474C25.4605 45.1471 25.1514 45.2281 24.8769 45.3825C24.3666 45.6827 23.978 46.155 23.7796 46.7161C23.584 47.2385 23.0852 48.9783 24.8821 49.6679C26.679 50.3575 27.459 48.7223 27.6546 48.205C27.8706 47.6491 27.8835 47.0338 27.6909 46.4692C27.5964 46.1993 27.4438 45.9539 27.2439 45.7507C27.0441 45.5474 26.8021 45.3913 26.5352 45.2937C26.2947 45.1996 26.0392 45.15 25.7812 45.1474H25.7747Z" fill="#FF8A00"/>
<path d="M20.976 48.4571C20.5324 48.4528 20.0932 48.3665 19.6805 48.2025C17.5053 47.3678 17.1827 45.2715 17.8278 43.5644C18.1357 42.7139 18.7324 42.0009 19.5121 41.5517C19.9291 41.3285 20.3887 41.1976 20.8599 41.1677C21.3312 41.1379 21.8034 41.2098 22.2449 41.3787C22.6864 41.5476 23.087 41.8096 23.4201 42.1471C23.7531 42.4846 24.0108 42.8899 24.176 43.3358C24.4773 44.1949 24.4622 45.1346 24.1333 45.9834C23.6189 47.3326 22.497 48.4571 20.976 48.4571ZM21.0369 42.4607C20.0795 42.4607 19.3527 43.1961 19.0431 44.0281C18.8474 44.5505 18.3474 46.2903 20.1456 46.9812C21.9438 47.6722 22.7224 46.0356 22.918 45.5171C23.1341 44.9611 23.1469 44.3459 22.9543 43.7812C22.86 43.5113 22.7073 43.2659 22.5075 43.0626C22.3077 42.8593 22.0656 42.7033 21.7987 42.6057C21.5558 42.5106 21.2975 42.4614 21.0369 42.4607Z" fill="#FF8A00"/>
<path d="M16.7318 44.378C16.2881 44.3739 15.849 44.2875 15.4363 44.1233C13.2611 43.2874 12.9385 41.1924 13.5836 39.4853C13.8918 38.635 14.4884 37.922 15.2679 37.4725C15.6846 37.2502 16.1436 37.1201 16.6142 37.0907C17.0848 37.0614 17.5562 37.1336 17.9969 37.3024C18.4377 37.4712 18.8377 37.7329 19.1702 38.0699C19.5027 38.4069 19.7602 38.8115 19.9253 39.2567C20.2275 40.1157 20.2123 41.0556 19.8826 41.9042C19.376 43.2534 18.2541 44.378 16.7318 44.378ZM16.794 38.3816C15.8366 38.3816 15.1098 39.1169 14.7989 39.9489C14.6032 40.4714 14.1045 42.2112 15.9027 42.9021C17.7009 43.593 18.4795 41.9565 18.6751 41.4379C18.8898 40.8817 18.9027 40.2669 18.7114 39.7021C18.6168 39.4323 18.4641 39.187 18.2643 38.9837C18.0645 38.7805 17.8225 38.6244 17.5558 38.5266C17.3129 38.4314 17.0546 38.3823 16.794 38.3816Z" fill="#FF8A00"/>
<path d="M37.182 13.1919C37.0703 13.1918 36.9605 13.1625 36.8633 13.107C33.2954 11.0746 29.5551 12.7661 29.5188 12.7844C29.4415 12.8202 29.358 12.8404 29.2729 12.8436C29.1879 12.8469 29.103 12.8333 29.0232 12.8035C28.9434 12.7737 28.8701 12.7284 28.8077 12.6701C28.7453 12.6118 28.6948 12.5417 28.6593 12.4637C28.6237 12.3858 28.6037 12.3015 28.6005 12.2158C28.5972 12.13 28.6107 12.0445 28.6403 11.964C28.6698 11.8835 28.7148 11.8097 28.7726 11.7467C28.8304 11.6838 28.9 11.6329 28.9773 11.5971C29.1535 11.5148 33.3627 9.6131 37.5007 11.9706C37.6251 12.0417 37.7227 12.1523 37.7782 12.2851C37.8338 12.4179 37.8442 12.5656 37.8078 12.705C37.7714 12.8444 37.6903 12.9677 37.5771 13.0558C37.4639 13.1439 37.325 13.1917 37.182 13.1919Z" fill="#FF8A00"/>
<path d="M11.3593 34.2087C11.2805 34.2086 11.2023 34.194 11.1287 34.1656L7.9818 32.9522C7.83799 32.8796 7.72613 32.7556 7.66801 32.6043C7.60989 32.4531 7.60966 32.2855 7.66736 32.1341C7.72506 31.9827 7.83658 31.8584 7.98019 31.7853C8.1238 31.7123 8.28924 31.6957 8.44431 31.7388L10.9862 32.7197L17.1582 16.4441L14.6163 15.4646C14.4581 15.401 14.3312 15.2773 14.2628 15.1202C14.1944 14.963 14.1901 14.785 14.2509 14.6247C14.3117 14.4644 14.4326 14.3346 14.5876 14.2635C14.7425 14.1924 14.919 14.1856 15.0788 14.2446L18.2257 15.458C18.3052 15.4887 18.3778 15.5349 18.4396 15.5939C18.5014 15.6529 18.551 15.7236 18.5856 15.802C18.6203 15.8803 18.6393 15.9648 18.6415 16.0506C18.6438 16.1363 18.6293 16.2217 18.5988 16.3018L11.9643 33.7895C11.9174 33.9128 11.8344 34.019 11.7264 34.0938C11.6184 34.1687 11.4904 34.2088 11.3593 34.2087Z" fill="#FF8A00"/>
<path d="M7.55545 34.364C7.47662 34.3639 7.39847 34.3493 7.32485 34.3209L0.427357 31.6604C0.268507 31.5986 0.140165 31.4763 0.0700961 31.3198C2.72468e-05 31.1634 -0.00613453 30.9854 0.0529438 30.8244L8.00501 9.85726C8.03544 9.77714 8.08124 9.70386 8.13978 9.64159C8.19831 9.57933 8.26844 9.5293 8.34617 9.49437C8.42389 9.45943 8.50767 9.44028 8.59274 9.438C8.6778 9.43573 8.76248 9.45037 8.84193 9.4811L15.7381 12.1469C15.8177 12.1774 15.8905 12.2235 15.9524 12.2825C16.0143 12.3414 16.0641 12.4121 16.0989 12.4905C16.1336 12.5689 16.1528 12.6534 16.1551 12.7392C16.1574 12.825 16.143 12.9105 16.1125 12.9906L8.16177 33.9435C8.11497 34.0673 8.03191 34.1739 7.92361 34.249C7.81531 34.3241 7.68691 34.3642 7.55545 34.364ZM1.49489 30.6742L7.18234 32.8672L14.6706 13.1278L8.98315 10.9348L1.49489 30.6742Z" fill="#FF8A00"/>
<path d="M52.6366 34.2087C52.5055 34.2088 52.3775 34.1687 52.2695 34.0939C52.1615 34.019 52.0785 33.9129 52.0316 33.7895L45.3971 16.3018C45.3666 16.2216 45.3522 16.1362 45.3545 16.0504C45.3569 15.9645 45.376 15.88 45.4108 15.8017C45.4455 15.7233 45.4953 15.6526 45.5572 15.5936C45.6191 15.5347 45.6919 15.4886 45.7715 15.458L48.9171 14.2447C48.9968 14.2126 49.0821 14.1969 49.1679 14.1984C49.2537 14.1999 49.3384 14.2185 49.417 14.2533C49.4956 14.288 49.5665 14.3382 49.6257 14.4008C49.685 14.4635 49.7312 14.5374 49.7619 14.6182C49.7925 14.699 49.8069 14.7852 49.8042 14.8717C49.8016 14.9582 49.7819 15.0432 49.7463 15.122C49.7108 15.2007 49.66 15.2716 49.5971 15.3304C49.5341 15.3892 49.4602 15.4348 49.3796 15.4646L46.839 16.4442L53.011 32.7132L55.5516 31.7389C55.6313 31.7068 55.7166 31.6911 55.8024 31.6926C55.8882 31.6941 55.9729 31.7127 56.0515 31.7475C56.1301 31.7823 56.201 31.8324 56.2602 31.8951C56.3195 31.9577 56.3657 32.0316 56.3964 32.1124C56.427 32.1932 56.4414 32.2794 56.4387 32.3659C56.4361 32.4524 56.4164 32.5374 56.3808 32.6162C56.3453 32.695 56.2945 32.7658 56.2316 32.8246C56.1686 32.8834 56.0947 32.929 56.0141 32.9588L52.8685 34.1722C52.7941 34.1988 52.7155 34.2112 52.6366 34.2087Z" fill="#FF8A00"/>
<path d="M56.4403 34.364C56.3091 34.364 56.181 34.3237 56.073 34.2486C55.9649 34.1735 55.882 34.0671 55.8353 33.9435L47.8846 12.9841C47.8541 12.904 47.8396 12.8186 47.8418 12.7329C47.8441 12.6471 47.8631 12.5627 47.8977 12.4843C47.9324 12.4059 47.982 12.3352 48.0438 12.2762C48.1055 12.2172 48.1782 12.171 48.2577 12.1404L55.1552 9.4811C55.2346 9.45037 55.3193 9.43573 55.4044 9.438C55.4894 9.44028 55.5732 9.45943 55.6509 9.49437C55.7286 9.5293 55.7988 9.57933 55.8573 9.64159C55.9159 9.70386 55.9617 9.77714 55.9921 9.85726L63.9429 30.8244C64.004 30.9861 63.9991 31.1655 63.9291 31.3235C63.8592 31.4814 63.7299 31.6049 63.5697 31.6669L56.6722 34.3275C56.5978 34.3538 56.5192 34.3662 56.4403 34.364ZM49.3252 13.1278L56.8148 32.8672L62.5022 30.6742L55.0127 10.9348L49.3252 13.1278Z" fill="#FF8A00"/>
<path d="M58.4989 29.5862C58.365 29.5861 58.2343 29.544 58.125 29.4659C58.0158 29.3878 57.9332 29.2774 57.8887 29.15L57.5869 28.288C57.5585 28.2071 57.5463 28.1214 57.5508 28.0357C57.5553 27.9501 57.5766 27.8662 57.6132 27.7888C57.6499 27.7114 57.7014 27.6421 57.7647 27.5847C57.8279 27.5274 57.9018 27.4832 57.982 27.4546C58.0622 27.4261 58.1472 27.4137 58.2322 27.4183C58.3171 27.4229 58.4004 27.4443 58.4771 27.4812C58.5539 27.5182 58.6226 27.5701 58.6795 27.6339C58.7364 27.6977 58.7802 27.7721 58.8086 27.853L59.1104 28.7151C59.1388 28.7959 59.151 28.8816 59.1465 28.9673C59.142 29.0529 59.1207 29.1368 59.084 29.2142C59.0474 29.2916 58.9959 29.3609 58.9326 29.4183C58.8694 29.4756 58.7955 29.5198 58.7153 29.5484C58.6459 29.5737 58.5727 29.5865 58.4989 29.5862Z" fill="#FF8A00"/>
<path d="M5.46827 29.5862C5.39494 29.5864 5.32215 29.5736 5.25321 29.5484C5.09238 29.4894 4.96123 29.3687 4.88841 29.2125C4.81558 29.0564 4.807 28.8775 4.86454 28.7151L5.16641 27.853C5.19473 27.7721 5.23858 27.6977 5.29545 27.6339C5.35232 27.5701 5.4211 27.5182 5.49785 27.4812C5.5746 27.4443 5.65783 27.4229 5.74278 27.4183C5.82773 27.4137 5.91275 27.4261 5.99296 27.4546C6.07318 27.4832 6.14704 27.5274 6.21031 27.5847C6.27358 27.6421 6.32503 27.7114 6.36172 27.7888C6.39841 27.8662 6.41963 27.9501 6.42416 28.0357C6.42868 28.1214 6.41643 28.2071 6.38811 28.288L6.08624 29.15C6.04133 29.2787 5.95758 29.3899 5.84675 29.4682C5.73591 29.5464 5.60356 29.5877 5.46827 29.5862Z" fill="#FF8A00"/>
<path d="M31.8702 7.89812C31.6984 7.89812 31.5337 7.82932 31.4122 7.70684C31.2907 7.58437 31.2225 7.41826 31.2225 7.24506V0.653061C31.2225 0.479859 31.2907 0.31375 31.4122 0.191277C31.5337 0.0688045 31.6984 0 31.8702 0C32.042 0 32.2068 0.0688045 32.3283 0.191277C32.4498 0.31375 32.518 0.479859 32.518 0.653061V7.24506C32.518 7.41826 32.4498 7.58437 32.3283 7.70684C32.2068 7.82932 32.042 7.89812 31.8702 7.89812Z" fill="#FF8A00"/>
<path d="M31.8702 64C31.6984 64 31.5337 63.9312 31.4122 63.8087C31.2907 63.6862 31.2225 63.5201 31.2225 63.3469V56.7549C31.2225 56.5817 31.2907 56.4156 31.4122 56.2932C31.5337 56.1707 31.6984 56.1019 31.8702 56.1019C32.042 56.1019 32.2068 56.1707 32.3283 56.2932C32.4498 56.4156 32.518 56.5817 32.518 56.7549V63.3469C32.518 63.5201 32.4498 63.6862 32.3283 63.8087C32.2068 63.9312 32.042 64 31.8702 64Z" fill="#FF8A00"/>
<path d="M53.857 54.8192C53.7718 54.8192 53.6874 54.8022 53.6087 54.7693C53.53 54.7364 53.4586 54.6881 53.3984 54.6272L48.7746 49.9657C48.7127 49.9054 48.6634 49.8334 48.6294 49.7537C48.5955 49.674 48.5776 49.5883 48.5769 49.5016C48.5761 49.4149 48.5925 49.3289 48.6251 49.2486C48.6577 49.1684 48.7058 49.0955 48.7666 49.0342C48.8274 48.9728 48.8997 48.9243 48.9793 48.8915C49.0589 48.8587 49.1442 48.8421 49.2303 48.8429C49.3163 48.8437 49.4013 48.8617 49.4803 48.8959C49.5593 48.9301 49.6308 48.9799 49.6906 49.0423L54.3144 53.7038C54.4051 53.7951 54.467 53.9114 54.4921 54.0381C54.5172 54.1648 54.5045 54.2962 54.4555 54.4156C54.4066 54.5351 54.3236 54.6372 54.217 54.709C54.1105 54.7808 53.9852 54.8192 53.857 54.8192Z" fill="#FF8A00"/>
<path d="M9.88365 54.8192C9.75547 54.8192 9.63018 54.7808 9.52364 54.709C9.4171 54.6372 9.3341 54.5351 9.28513 54.4156C9.23617 54.2962 9.22345 54.1648 9.24858 54.0381C9.27371 53.9114 9.33557 53.7951 9.42632 53.7038L14.0501 49.0423C14.1099 48.9799 14.1814 48.9301 14.2604 48.8959C14.3394 48.8617 14.4244 48.8437 14.5104 48.8429C14.5964 48.8421 14.6817 48.8587 14.7613 48.8915C14.841 48.9243 14.9133 48.9728 14.9741 49.0342C15.0349 49.0955 15.083 49.1684 15.1156 49.2486C15.1482 49.3289 15.1646 49.4149 15.1638 49.5016C15.1631 49.5883 15.1452 49.674 15.1112 49.7537C15.0773 49.8334 15.0279 49.9054 14.9661 49.9657L10.3423 54.6272C10.2821 54.6881 10.2106 54.7364 10.1319 54.7693C10.0532 54.8022 9.96886 54.8192 9.88365 54.8192Z" fill="#FF8A00"/>
<path d="M22.5903 9.85071C22.4614 9.85063 22.3355 9.81181 22.2287 9.73922C22.1218 9.66663 22.0389 9.56356 21.9904 9.4432L20.5498 5.87748C20.5157 5.79771 20.4978 5.71188 20.497 5.62503C20.4963 5.53818 20.5127 5.45205 20.5454 5.37168C20.578 5.29131 20.6262 5.21832 20.6872 5.15697C20.7482 5.09562 20.8207 5.04715 20.9005 5.0144C20.9803 4.98165 21.0658 4.96528 21.1519 4.96623C21.2381 4.96719 21.3232 4.98547 21.4022 5.01998C21.4813 5.0545 21.5527 5.10457 21.6123 5.16726C21.6719 5.22995 21.7186 5.304 21.7495 5.38507L23.1901 8.95079C23.2303 9.04997 23.2456 9.15759 23.2348 9.26416C23.224 9.37073 23.1873 9.47297 23.1281 9.56189C23.0688 9.65081 22.9887 9.72366 22.8949 9.77403C22.8012 9.82439 22.6965 9.85073 22.5903 9.85071Z" fill="#FF8A00"/>
<path d="M42.5974 59.3503C42.4685 59.3502 42.3426 59.3114 42.2358 59.2388C42.1289 59.1662 42.046 59.0632 41.9975 58.9428L40.4208 55.0454C40.36 54.8858 40.3637 54.7085 40.4311 54.5516C40.4985 54.3948 40.6242 54.2708 40.7813 54.2063C40.9383 54.1419 41.1142 54.142 41.2711 54.2069C41.428 54.2717 41.5535 54.3959 41.6205 54.5529L43.1959 58.4504C43.2281 58.5298 43.2444 58.6148 43.244 58.7006C43.2436 58.7864 43.2264 58.8713 43.1934 58.9503C43.1604 59.0294 43.1123 59.1012 43.0519 59.1615C42.9914 59.2219 42.9197 59.2696 42.8409 59.302C42.7636 59.3338 42.6809 59.3502 42.5974 59.3503Z" fill="#FF8A00"/>
<path d="M5.3116 43.571C5.16305 43.5697 5.01944 43.517 4.90485 43.4217C4.79026 43.3264 4.71165 43.1943 4.68219 43.0475C4.65274 42.9007 4.67423 42.7481 4.74306 42.6154C4.81189 42.4827 4.92388 42.3778 5.06027 42.3184L8.92618 40.725C9.00531 40.6906 9.09044 40.6726 9.17658 40.6718C9.26273 40.671 9.34816 40.6876 9.42788 40.7205C9.5076 40.7534 9.58001 40.8021 9.64086 40.8635C9.70171 40.925 9.74978 40.9981 9.78227 41.0786C9.81475 41.159 9.831 41.2452 9.83004 41.332C9.82909 41.4189 9.81097 41.5047 9.77673 41.5844C9.74249 41.6641 9.69283 41.7361 9.63065 41.7962C9.56847 41.8563 9.49502 41.9033 9.4146 41.9344L5.54869 43.5227C5.47337 43.5537 5.39294 43.5701 5.3116 43.571Z" fill="#FF8A00"/>
<path d="M58.0313 43.8532C57.9453 43.853 57.8602 43.8352 57.7812 43.8009L53.9334 42.1683C53.855 42.135 53.7839 42.0865 53.724 42.0255C53.6642 41.9645 53.6169 41.8922 53.5847 41.8127C53.5526 41.7333 53.5363 41.6483 53.5368 41.5625C53.5373 41.4767 53.5545 41.3918 53.5875 41.3128C53.6205 41.2337 53.6687 41.1619 53.7292 41.1016C53.7897 41.0413 53.8614 40.9936 53.9402 40.9612C54.019 40.9288 54.1033 40.9124 54.1884 40.9129C54.2735 40.9134 54.3577 40.9307 54.4361 40.964L58.2839 42.598C58.422 42.6564 58.5357 42.7613 58.6057 42.8948C58.6757 43.0282 58.6977 43.182 58.6679 43.33C58.6381 43.4779 58.5584 43.6109 58.4424 43.7063C58.3263 43.8017 58.181 43.8536 58.0313 43.8532Z" fill="#FF8A00"/>
<path d="M41.2786 9.73707C41.1927 9.73733 41.1076 9.72 41.0286 9.68614C40.9499 9.65313 40.8784 9.6048 40.8183 9.5439C40.7582 9.48301 40.7106 9.41076 40.6782 9.33129C40.6458 9.25182 40.6293 9.16668 40.6297 9.08077C40.63 8.99486 40.6471 8.90985 40.6801 8.83062L42.1609 5.2845C42.1918 5.20256 42.2388 5.12775 42.2991 5.06451C42.3593 5.00128 42.4316 4.95093 42.5115 4.91645C42.5915 4.88198 42.6775 4.86409 42.7645 4.86385C42.8514 4.86361 42.9376 4.88103 43.0177 4.91507C43.0979 4.94911 43.1704 4.99907 43.231 5.06198C43.2916 5.12488 43.339 5.19944 43.3703 5.28121C43.4017 5.36298 43.4165 5.45028 43.4137 5.53791C43.4109 5.62554 43.3906 5.71171 43.3541 5.79128L41.8758 9.3374C41.8264 9.45589 41.7433 9.55702 41.6371 9.62812C41.5308 9.69922 41.4061 9.73712 41.2786 9.73707Z" fill="#FF8A00"/>
<path d="M20.599 59.281C20.5132 59.2806 20.4282 59.2633 20.349 59.23C20.2705 59.1968 20.1994 59.1483 20.1395 59.0873C20.0797 59.0263 20.0323 58.954 20.0002 58.8745C19.9681 58.7951 19.9518 58.71 19.9523 58.6243C19.9528 58.5385 19.97 58.4536 20.0031 58.3745L21.6225 54.4954C21.6555 54.4163 21.7036 54.3445 21.7642 54.2842C21.8247 54.2239 21.8964 54.1762 21.9752 54.1438C22.054 54.1114 22.1383 54.095 22.2234 54.0955C22.3085 54.096 22.3927 54.1133 22.4711 54.1466C22.5495 54.1799 22.6207 54.2284 22.6805 54.2894C22.7403 54.3504 22.7877 54.4227 22.8198 54.5022C22.8519 54.5816 22.8682 54.6666 22.8677 54.7524C22.8672 54.8382 22.85 54.9231 22.817 55.0021L21.1963 58.8813C21.1468 58.9998 21.0637 59.1009 20.9575 59.172C20.8512 59.2431 20.7265 59.281 20.599 59.281Z" fill="#FF8A00"/>
<path d="M13.936 40.6204C13.8858 40.62 13.8358 40.6139 13.787 40.6021C13.6109 40.5602 13.4378 40.5066 13.2688 40.4415C11.0936 39.6055 10.771 37.5092 11.4162 35.8034C11.651 35.1201 12.0832 34.5233 12.6573 34.0898C12.7244 34.0293 12.8034 33.9836 12.889 33.9555C12.9747 33.9275 13.0652 33.9178 13.1548 33.927C13.2444 33.9362 13.3311 33.9642 13.4093 34.0091C13.4876 34.054 13.5557 34.1149 13.6094 34.1878C13.663 34.2608 13.7009 34.3442 13.7208 34.4327C13.7407 34.5213 13.742 34.613 13.7247 34.7021C13.7074 34.7912 13.6718 34.8757 13.6203 34.9502C13.5688 35.0247 13.5025 35.0875 13.4255 35.1347C13.0525 35.4225 12.7743 35.8172 12.6275 36.2671C12.4319 36.7896 11.9331 38.528 13.7313 39.2189C13.8467 39.2637 13.9648 39.3008 14.085 39.33C14.24 39.3663 14.3764 39.459 14.468 39.5902C14.5596 39.7215 14.6001 39.8822 14.5817 40.0416C14.5632 40.201 14.4872 40.348 14.3681 40.4546C14.249 40.5611 14.0952 40.6196 13.936 40.6191V40.6204Z" stroke="#FF8A00" stroke-width="0.7"/>
<path d="M23.2756 17.7215C21.3968 17.7078 19.5357 17.3539 17.7811 16.6766C17.6994 16.6481 17.6241 16.6035 17.5597 16.5452C17.4953 16.4869 17.4432 16.4163 17.4063 16.3373C17.3695 16.2584 17.3487 16.1729 17.3452 16.0857C17.3417 15.9986 17.3555 15.9116 17.3859 15.8299C17.4163 15.7483 17.4626 15.6736 17.522 15.6102C17.5815 15.5469 17.653 15.4962 17.7322 15.4612C17.8114 15.4262 17.8968 15.4075 17.9833 15.4063C18.0698 15.405 18.1557 15.4213 18.2359 15.4541C22.151 16.9339 25.0466 16.2626 25.0764 16.256C25.2435 16.2158 25.4197 16.2443 25.5661 16.335C25.7124 16.4258 25.8171 16.5714 25.8569 16.7399C25.8968 16.9085 25.8686 17.0861 25.7786 17.2336C25.6886 17.3812 25.5441 17.4867 25.3769 17.5269C24.6854 17.6675 23.9809 17.7327 23.2756 17.7215Z" stroke="#FF8A00" stroke-width="0.7"/>
<path d="M48.3729 43.755C47.7056 43.7619 47.0564 43.5368 46.5345 43.1177L40.7745 38.4496C40.7077 38.396 40.6521 38.3296 40.6108 38.2543C40.5696 38.1789 40.5435 38.0961 40.5341 38.0106C40.5247 37.925 40.5321 37.8385 40.556 37.7558C40.5799 37.6732 40.6197 37.5962 40.6733 37.5291C40.7268 37.4621 40.7929 37.4064 40.8679 37.3652C40.9428 37.324 41.0251 37.2981 41.11 37.2891C41.1949 37.2801 41.2808 37.2881 41.3626 37.3126C41.4444 37.3372 41.5206 37.3778 41.5868 37.4321L47.3468 42.0989C48.1371 42.7402 49.4003 42.4907 50.162 41.5294C50.5335 41.0786 50.7309 40.5075 50.7178 39.9216C50.7159 39.6769 50.6613 39.4356 50.5577 39.2144C50.4542 38.9931 50.3041 38.7972 50.118 38.6403L31.6474 23.5506C31.5788 23.4975 31.5216 23.4311 31.4789 23.3554C31.4362 23.2796 31.409 23.1959 31.3989 23.1094C31.3887 23.0229 31.3959 22.9352 31.4199 22.8514C31.4439 22.7677 31.4843 22.6897 31.5387 22.622C31.5931 22.5543 31.6604 22.4982 31.7366 22.4571C31.8128 22.416 31.8964 22.3906 31.9825 22.3826C32.0685 22.3746 32.1553 22.384 32.2377 22.4103C32.3201 22.4366 32.3965 22.4793 32.4623 22.5358L50.9316 37.628C51.263 37.9013 51.5314 38.2441 51.7182 38.6325C51.905 39.0209 52.0058 39.4456 52.0134 39.8772C52.0372 40.777 51.7392 41.6555 51.1739 42.3523C50.8397 42.7812 50.4149 43.1297 49.9304 43.3724C49.4459 43.615 48.9138 43.7457 48.3729 43.755Z" stroke="#FF8A00" stroke-width="0.7"/>
<path d="M43.4381 47.2033C42.7707 47.2095 42.1216 46.9839 41.5997 46.5646L33.5893 40.0105C33.4619 39.8995 33.3823 39.7429 33.3675 39.5738C33.3526 39.4047 33.4037 39.2364 33.5098 39.1046C33.616 38.9728 33.7688 38.8879 33.936 38.8678C34.1032 38.8477 34.2716 38.894 34.4055 38.997L42.4133 45.5485C43.2023 46.1885 44.4668 45.9325 45.2285 44.9764C45.5992 44.5256 45.7965 43.9553 45.7843 43.3699C45.7824 43.1251 45.7276 42.8837 45.6238 42.6624C45.52 42.4412 45.3696 42.2453 45.1832 42.0885L37.1638 35.5266C37.0948 35.4736 37.0371 35.4071 36.9941 35.3312C36.9511 35.2553 36.9236 35.1714 36.9134 35.0846C36.9031 34.9978 36.9102 34.9098 36.9343 34.8258C36.9584 34.7418 36.999 34.6636 37.0537 34.5957C37.1083 34.5278 37.176 34.4717 37.2525 34.4306C37.3291 34.3896 37.4131 34.3645 37.4995 34.3568C37.5859 34.3491 37.6729 34.3589 37.7554 34.3858C37.838 34.4126 37.9143 34.4559 37.98 34.513L45.9916 41.0724C46.3233 41.3454 46.5919 41.6881 46.7787 42.0766C46.9656 42.465 47.0661 42.8899 47.0734 43.3215C47.0972 44.2212 46.7987 45.0994 46.2326 45.7953C45.8996 46.2243 45.476 46.5732 44.9927 46.8168C44.5094 47.0603 43.9783 47.1923 43.4381 47.2033Z" stroke="#FF8A00" stroke-width="0.7"/>
<path d="M38.7716 50.7154C38.1034 50.7216 37.4534 50.4961 36.9306 50.0767L30.0175 44.497C29.9511 44.4434 29.8958 44.3771 29.8548 44.3019C29.8137 44.2268 29.7878 44.1442 29.7784 44.059C29.7594 43.8868 29.8091 43.714 29.9165 43.5788C30.0239 43.4435 30.1801 43.3568 30.351 43.3377C30.5218 43.3186 30.6931 43.3686 30.8273 43.4769L37.7403 49.0579C38.5345 49.7006 39.7989 49.4498 40.5607 48.4911C41.2175 47.6682 41.3043 46.562 40.768 45.8619C40.6943 45.7651 40.6095 45.6774 40.5154 45.6006L33.5933 40.0144C33.4591 39.9061 33.3731 39.7486 33.3541 39.5764C33.3352 39.4042 33.3848 39.2314 33.4922 39.0962C33.5996 38.9609 33.7559 38.8742 33.9267 38.8551C34.0975 38.8359 34.2688 38.886 34.403 38.9943L41.3277 44.5832C41.5008 44.724 41.6572 44.8844 41.7941 45.0612C42.6906 46.2367 42.5973 48.0183 41.5712 49.3061C41.238 49.7362 40.8137 50.0859 40.3294 50.3298C39.845 50.5736 39.3128 50.7053 38.7716 50.7154Z" stroke="#FF8A00" stroke-width="0.7"/>
<path d="M16.4015 38.3817C16.2658 38.3817 16.1335 38.3387 16.0233 38.2588C15.9131 38.1789 15.8306 38.0661 15.7874 37.9364C15.1578 36.049 13.0253 35.0172 13.0033 35.0041L12.9852 34.9937L12.7092 34.8513C12.0265 34.4973 11.3813 34.163 10.7776 33.9971C10.6135 33.9501 10.4745 33.8399 10.3905 33.6902C10.3066 33.5406 10.2846 33.3636 10.3293 33.1977C10.374 33.0318 10.4817 32.8904 10.6292 32.8041C10.7767 32.7177 10.9519 32.6935 11.117 32.7367C11.8516 32.9378 12.5563 33.3035 13.3026 33.6901L13.5617 33.8208C13.778 33.9252 16.2292 35.1569 17.0104 37.5106C17.0651 37.6748 17.0527 37.8541 16.9762 38.0091C16.8997 38.1642 16.7652 38.2822 16.6023 38.3373C16.5382 38.363 16.4704 38.378 16.4015 38.3817Z" stroke="#FF8A00" stroke-width="0.7"/>
<path d="M32.0271 52.6368C31.3527 52.6329 30.6996 52.3985 30.1745 51.972C29.8208 51.6846 29.4451 51.3907 29.0085 51.0498C28.5719 50.7089 28.0744 50.3197 27.5134 49.8743C27.4451 49.8215 27.3879 49.7555 27.3452 49.6802C27.3025 49.6048 27.2751 49.5217 27.2646 49.4355C27.2541 49.3494 27.2608 49.262 27.2842 49.1785C27.3076 49.095 27.3473 49.017 27.4009 48.9491C27.4545 48.8812 27.5211 48.8248 27.5966 48.7832C27.6721 48.7415 27.7551 48.7154 27.8407 48.7065C27.9263 48.6975 28.0129 48.7059 28.0953 48.731C28.1776 48.7561 28.2542 48.7976 28.3205 48.8529C28.875 49.297 29.3673 49.6836 29.8027 50.0284C30.238 50.3733 30.6214 50.6697 30.9842 50.9623C31.3729 51.2823 32.4391 51.8609 33.8033 50.3693C34.5068 49.476 34.5314 48.2626 33.859 47.5978C33.8235 47.5619 33.7859 47.5283 33.7463 47.4972L30.0164 44.5023C29.8857 44.3932 29.8026 44.2367 29.7851 44.0665C29.7676 43.8963 29.817 43.726 29.9228 43.5922C30.0285 43.4584 30.1821 43.3718 30.3506 43.3509C30.519 43.3301 30.6889 43.3768 30.8235 43.4809L34.556 46.4771C34.6321 46.5382 34.7048 46.6037 34.7737 46.673C35.9319 47.8159 35.9474 49.7672 34.8009 51.2039L34.7737 51.2353C33.8435 52.2606 32.8796 52.6368 32.0271 52.6368Z" stroke="#FF8A00" stroke-width="0.7"/>
<path d="M42.5755 30.3022C41.8273 30.2976 41.0843 30.1759 40.3731 29.9417C39.1463 29.5333 38.012 28.8839 37.0357 28.0308L30.6396 22.7384L26.797 23.8826C26.0884 25.5714 24.5622 27.9224 21.5643 27.9224C21.1972 27.9199 20.8309 27.8859 20.4696 27.8205C19.7026 27.6899 19.3282 27.2759 19.1494 26.9546C18.6934 26.133 19.0665 25.1338 19.1105 25.0228C19.1185 25.0023 19.1276 24.9822 19.1377 24.9627C20.0589 23.1851 22.102 18.4569 22.1175 18.4099C22.1331 18.3629 22.1447 18.3537 22.1603 18.3263C22.1965 18.2688 23.0529 16.8896 24.5337 16.4233C25.7839 16.0315 31.2705 14.1846 31.325 14.165C32.4929 13.8121 33.7379 13.8121 34.9058 14.165C37.3972 14.9617 40.9949 16.358 41.0351 16.371L41.0701 16.3867C41.0947 16.3972 43.6612 17.5335 45.931 16.2783C46.0056 16.2352 46.088 16.2075 46.1733 16.1968C46.2587 16.1862 46.3453 16.1928 46.4281 16.2162C46.5109 16.2396 46.5883 16.2795 46.6556 16.3334C46.723 16.3873 46.7791 16.4542 46.8205 16.5301C46.862 16.6061 46.888 16.6896 46.8971 16.7759C46.9062 16.8621 46.8982 16.9493 46.8735 17.0323C46.8489 17.1154 46.808 17.1927 46.7534 17.2597C46.6988 17.3267 46.6315 17.382 46.5554 17.4225C43.7998 18.9506 40.855 17.7164 40.5544 17.5844C40.2953 17.4852 36.8867 16.1686 34.5146 15.4097C33.1024 14.9578 31.7525 15.4097 31.7382 15.4097C31.6799 15.4293 26.1829 17.2749 24.9237 17.6759C24.0168 17.9658 23.4014 18.8135 23.2835 18.9885C23.0477 19.5319 21.2106 23.7768 20.3037 25.5374C20.2403 25.7177 20.1612 26.1134 20.2804 26.3211C20.3024 26.3603 20.3698 26.4804 20.6872 26.5353C22.9946 26.9363 24.6827 25.783 25.7062 23.1093C25.7418 23.0158 25.7984 22.9319 25.8714 22.8639C25.9444 22.796 26.0319 22.7459 26.1272 22.7175L30.5969 21.3866C30.6982 21.3561 30.8053 21.3512 30.909 21.3721C31.0127 21.3931 31.1096 21.4393 31.1915 21.5067L37.8636 27.0277L37.8934 27.0538C38.0812 27.2288 42.5638 31.3079 46.6552 27.076C46.7754 26.952 46.9396 26.8812 47.1116 26.8793C47.2837 26.8773 47.4494 26.9443 47.5724 27.0656C47.6954 27.1868 47.7656 27.3524 47.7676 27.5258C47.7695 27.6992 47.703 27.8663 47.5828 27.9903C45.883 29.751 44.1146 30.3022 42.5755 30.3022Z" stroke="#FF8A00" stroke-width="0.7"/>
<path d="M49.101 37.6071C48.9292 37.6128 48.7621 37.5495 48.6367 37.4311C48.5112 37.3126 48.4375 37.1488 48.4318 36.9756C48.4261 36.8024 48.489 36.634 48.6064 36.5075C48.7239 36.381 48.8864 36.3067 49.0582 36.301C49.1502 36.2918 50.907 36.0946 52.13 33.1807C52.1608 33.0985 52.2079 33.0234 52.2682 32.96C52.3286 32.8966 52.401 32.8461 52.4812 32.8115C52.5613 32.777 52.6476 32.7591 52.7348 32.759C52.8219 32.7589 52.9083 32.7765 52.9885 32.8108C53.0688 32.8451 53.1414 32.8954 53.2019 32.9586C53.2624 33.0219 53.3097 33.0968 53.3408 33.1789C53.3719 33.261 53.3863 33.3486 53.383 33.4364C53.3798 33.5243 53.359 33.6105 53.3219 33.6901C51.7581 37.4177 49.2435 37.598 49.1372 37.6084L49.101 37.6071Z" stroke="#FF8A00" stroke-width="0.7"/>
<path d="M25.7126 51.1438C25.2689 51.1395 24.8298 51.0532 24.417 50.8891C22.2431 50.0532 21.9205 47.9569 22.5657 46.2511C22.8733 45.4005 23.4701 44.6874 24.2499 44.2384C24.6666 44.0162 25.1255 43.8862 25.596 43.8569C26.0664 43.8276 26.5377 43.8996 26.9784 44.0683C27.4191 44.237 27.819 44.4984 28.1517 44.8352C28.4843 45.1719 28.7419 45.5762 28.9074 46.0212C29.2087 46.8807 29.1935 47.8208 28.8646 48.67C28.3555 50.0245 27.2348 51.1438 25.7126 51.1438ZM25.7747 45.1474C25.4605 45.1471 25.1514 45.2281 24.8769 45.3825C24.3666 45.6827 23.978 46.155 23.7796 46.7161C23.584 47.2385 23.0852 48.9783 24.8821 49.6679C26.679 50.3575 27.459 48.7223 27.6546 48.205C27.8706 47.6491 27.8835 47.0338 27.6909 46.4692C27.5964 46.1993 27.4438 45.9539 27.2439 45.7507C27.0441 45.5474 26.8021 45.3913 26.5352 45.2937C26.2947 45.1996 26.0392 45.15 25.7812 45.1474H25.7747Z" stroke="#FF8A00" stroke-width="0.7"/>
<path d="M20.976 48.4571C20.5324 48.4528 20.0932 48.3665 19.6805 48.2025C17.5053 47.3678 17.1827 45.2715 17.8278 43.5644C18.1357 42.7139 18.7324 42.0009 19.5121 41.5517C19.9291 41.3285 20.3887 41.1976 20.8599 41.1677C21.3312 41.1379 21.8034 41.2098 22.2449 41.3787C22.6864 41.5476 23.087 41.8096 23.4201 42.1471C23.7531 42.4846 24.0108 42.8899 24.176 43.3358C24.4773 44.1949 24.4622 45.1346 24.1333 45.9834C23.6189 47.3326 22.497 48.4571 20.976 48.4571ZM21.0369 42.4607C20.0795 42.4607 19.3527 43.1961 19.0431 44.0281C18.8474 44.5505 18.3474 46.2903 20.1456 46.9812C21.9438 47.6722 22.7224 46.0356 22.918 45.5171C23.1341 44.9611 23.1469 44.3459 22.9543 43.7812C22.86 43.5113 22.7073 43.2659 22.5075 43.0626C22.3077 42.8593 22.0656 42.7033 21.7987 42.6057C21.5558 42.5106 21.2975 42.4614 21.0369 42.4607Z" stroke="#FF8A00" stroke-width="0.7"/>
<path d="M16.7318 44.378C16.2881 44.3739 15.849 44.2875 15.4363 44.1233C13.2611 43.2874 12.9385 41.1924 13.5836 39.4853C13.8918 38.635 14.4884 37.922 15.2679 37.4725C15.6846 37.2502 16.1436 37.1201 16.6142 37.0907C17.0848 37.0614 17.5562 37.1336 17.9969 37.3024C18.4377 37.4712 18.8377 37.7329 19.1702 38.0699C19.5027 38.4069 19.7602 38.8115 19.9253 39.2567C20.2275 40.1157 20.2123 41.0556 19.8826 41.9042C19.376 43.2534 18.2541 44.378 16.7318 44.378ZM16.794 38.3816C15.8366 38.3816 15.1098 39.1169 14.7989 39.9489C14.6032 40.4714 14.1045 42.2112 15.9027 42.9021C17.7009 43.593 18.4795 41.9565 18.6751 41.4379C18.8898 40.8817 18.9027 40.2669 18.7114 39.7021C18.6168 39.4323 18.4641 39.187 18.2643 38.9837C18.0645 38.7805 17.8225 38.6244 17.5558 38.5266C17.3129 38.4314 17.0546 38.3823 16.794 38.3816Z" stroke="#FF8A00" stroke-width="0.7"/>
<path d="M37.182 13.1919C37.0703 13.1918 36.9605 13.1625 36.8633 13.107C33.2954 11.0746 29.5551 12.7661 29.5188 12.7844C29.4415 12.8202 29.358 12.8404 29.2729 12.8436C29.1879 12.8469 29.103 12.8333 29.0232 12.8035C28.9434 12.7737 28.8701 12.7284 28.8077 12.6701C28.7453 12.6118 28.6948 12.5417 28.6593 12.4637C28.6237 12.3858 28.6037 12.3015 28.6005 12.2158C28.5972 12.13 28.6107 12.0445 28.6403 11.964C28.6698 11.8835 28.7148 11.8097 28.7726 11.7467C28.8304 11.6838 28.9 11.6329 28.9773 11.5971C29.1535 11.5148 33.3627 9.6131 37.5007 11.9706C37.6251 12.0417 37.7227 12.1523 37.7782 12.2851C37.8338 12.4179 37.8442 12.5656 37.8078 12.705C37.7714 12.8444 37.6903 12.9677 37.5771 13.0558C37.4639 13.1439 37.325 13.1917 37.182 13.1919Z" stroke="#FF8A00" stroke-width="0.7"/>
<path d="M11.3593 34.2087C11.2805 34.2086 11.2023 34.194 11.1287 34.1656L7.9818 32.9522C7.83799 32.8796 7.72613 32.7556 7.66801 32.6043C7.60989 32.4531 7.60966 32.2855 7.66736 32.1341C7.72506 31.9827 7.83658 31.8584 7.98019 31.7853C8.1238 31.7123 8.28924 31.6957 8.44431 31.7388L10.9862 32.7197L17.1582 16.4441L14.6163 15.4646C14.4581 15.401 14.3312 15.2773 14.2628 15.1202C14.1944 14.963 14.1901 14.785 14.2509 14.6247C14.3117 14.4644 14.4326 14.3346 14.5876 14.2635C14.7425 14.1924 14.919 14.1856 15.0788 14.2446L18.2257 15.458C18.3052 15.4887 18.3778 15.5349 18.4396 15.5939C18.5014 15.6529 18.551 15.7236 18.5856 15.802C18.6203 15.8803 18.6393 15.9648 18.6415 16.0506C18.6438 16.1363 18.6293 16.2217 18.5988 16.3018L11.9643 33.7895C11.9174 33.9128 11.8344 34.019 11.7264 34.0938C11.6184 34.1687 11.4904 34.2088 11.3593 34.2087Z" stroke="#FF8A00" stroke-width="0.7"/>
<path d="M7.55545 34.364C7.47662 34.3639 7.39847 34.3493 7.32485 34.3209L0.427357 31.6604C0.268507 31.5986 0.140165 31.4763 0.0700961 31.3198C2.72468e-05 31.1634 -0.00613453 30.9854 0.0529438 30.8244L8.00501 9.85726C8.03544 9.77714 8.08124 9.70386 8.13978 9.64159C8.19831 9.57933 8.26844 9.5293 8.34617 9.49437C8.42389 9.45943 8.50767 9.44028 8.59274 9.438C8.6778 9.43573 8.76248 9.45037 8.84193 9.4811L15.7381 12.1469C15.8177 12.1774 15.8905 12.2235 15.9524 12.2825C16.0143 12.3414 16.0641 12.4121 16.0989 12.4905C16.1336 12.5689 16.1528 12.6534 16.1551 12.7392C16.1574 12.825 16.143 12.9105 16.1125 12.9906L8.16177 33.9435C8.11497 34.0673 8.03191 34.1739 7.92361 34.249C7.81531 34.3241 7.68691 34.3642 7.55545 34.364ZM1.49489 30.6742L7.18234 32.8672L14.6706 13.1278L8.98315 10.9348L1.49489 30.6742Z" stroke="#FF8A00" stroke-width="0.7"/>
<path d="M52.6366 34.2087C52.5055 34.2088 52.3775 34.1687 52.2695 34.0939C52.1615 34.019 52.0785 33.9129 52.0316 33.7895L45.3971 16.3018C45.3666 16.2216 45.3522 16.1362 45.3545 16.0504C45.3569 15.9645 45.376 15.88 45.4108 15.8017C45.4455 15.7233 45.4953 15.6526 45.5572 15.5936C45.6191 15.5347 45.6919 15.4886 45.7715 15.458L48.9171 14.2447C48.9968 14.2126 49.0821 14.1969 49.1679 14.1984C49.2537 14.1999 49.3384 14.2185 49.417 14.2533C49.4956 14.288 49.5665 14.3382 49.6257 14.4008C49.685 14.4635 49.7312 14.5374 49.7619 14.6182C49.7925 14.699 49.8069 14.7852 49.8042 14.8717C49.8016 14.9582 49.7819 15.0432 49.7463 15.122C49.7108 15.2007 49.66 15.2716 49.5971 15.3304C49.5341 15.3892 49.4602 15.4348 49.3796 15.4646L46.839 16.4442L53.011 32.7132L55.5516 31.7389C55.6313 31.7068 55.7166 31.6911 55.8024 31.6926C55.8882 31.6941 55.9729 31.7127 56.0515 31.7475C56.1301 31.7823 56.201 31.8324 56.2602 31.8951C56.3195 31.9577 56.3657 32.0316 56.3964 32.1124C56.427 32.1932 56.4414 32.2794 56.4387 32.3659C56.4361 32.4524 56.4164 32.5374 56.3808 32.6162C56.3453 32.695 56.2945 32.7658 56.2316 32.8246C56.1686 32.8834 56.0947 32.929 56.0141 32.9588L52.8685 34.1722C52.7941 34.1988 52.7155 34.2112 52.6366 34.2087Z" stroke="#FF8A00" stroke-width="0.7"/>
<path d="M56.4403 34.364C56.3091 34.364 56.181 34.3237 56.073 34.2486C55.9649 34.1735 55.882 34.0671 55.8353 33.9435L47.8846 12.9841C47.8541 12.904 47.8396 12.8186 47.8418 12.7329C47.8441 12.6471 47.8631 12.5627 47.8977 12.4843C47.9324 12.4059 47.982 12.3352 48.0438 12.2762C48.1055 12.2172 48.1782 12.171 48.2577 12.1404L55.1552 9.4811C55.2346 9.45037 55.3193 9.43573 55.4044 9.438C55.4894 9.44028 55.5732 9.45943 55.6509 9.49437C55.7286 9.5293 55.7988 9.57933 55.8573 9.64159C55.9159 9.70386 55.9617 9.77714 55.9921 9.85726L63.9429 30.8244C64.004 30.9861 63.9991 31.1655 63.9291 31.3235C63.8592 31.4814 63.7299 31.6049 63.5697 31.6669L56.6722 34.3275C56.5978 34.3538 56.5192 34.3662 56.4403 34.364ZM49.3252 13.1278L56.8148 32.8672L62.5022 30.6742L55.0127 10.9348L49.3252 13.1278Z" stroke="#FF8A00" stroke-width="0.7"/>
<path d="M58.4989 29.5862C58.365 29.5861 58.2343 29.544 58.125 29.4659C58.0158 29.3878 57.9332 29.2774 57.8887 29.15L57.5869 28.288C57.5585 28.2071 57.5463 28.1214 57.5508 28.0357C57.5553 27.9501 57.5766 27.8662 57.6132 27.7888C57.6499 27.7114 57.7014 27.6421 57.7647 27.5847C57.8279 27.5274 57.9018 27.4832 57.982 27.4546C58.0622 27.4261 58.1472 27.4137 58.2322 27.4183C58.3171 27.4229 58.4004 27.4443 58.4771 27.4812C58.5539 27.5182 58.6226 27.5701 58.6795 27.6339C58.7364 27.6977 58.7802 27.7721 58.8086 27.853L59.1104 28.7151C59.1388 28.7959 59.151 28.8816 59.1465 28.9673C59.142 29.0529 59.1207 29.1368 59.084 29.2142C59.0474 29.2916 58.9959 29.3609 58.9326 29.4183C58.8694 29.4756 58.7955 29.5198 58.7153 29.5484C58.6459 29.5737 58.5727 29.5865 58.4989 29.5862Z" stroke="#FF8A00" stroke-width="0.7"/>
<path d="M5.46827 29.5862C5.39494 29.5864 5.32215 29.5736 5.25321 29.5484C5.09238 29.4894 4.96123 29.3687 4.88841 29.2125C4.81558 29.0564 4.807 28.8775 4.86454 28.7151L5.16641 27.853C5.19473 27.7721 5.23858 27.6977 5.29545 27.6339C5.35232 27.5701 5.4211 27.5182 5.49785 27.4812C5.5746 27.4443 5.65783 27.4229 5.74278 27.4183C5.82773 27.4137 5.91275 27.4261 5.99296 27.4546C6.07318 27.4832 6.14704 27.5274 6.21031 27.5847C6.27358 27.6421 6.32503 27.7114 6.36172 27.7888C6.39841 27.8662 6.41963 27.9501 6.42416 28.0357C6.42868 28.1214 6.41643 28.2071 6.38811 28.288L6.08624 29.15C6.04133 29.2787 5.95758 29.3899 5.84675 29.4682C5.73591 29.5464 5.60356 29.5877 5.46827 29.5862Z" stroke="#FF8A00" stroke-width="0.7"/>
<path d="M31.8702 7.89812C31.6984 7.89812 31.5337 7.82932 31.4122 7.70684C31.2907 7.58437 31.2225 7.41826 31.2225 7.24506V0.653061C31.2225 0.479859 31.2907 0.31375 31.4122 0.191277C31.5337 0.0688045 31.6984 0 31.8702 0C32.042 0 32.2068 0.0688045 32.3283 0.191277C32.4498 0.31375 32.518 0.479859 32.518 0.653061V7.24506C32.518 7.41826 32.4498 7.58437 32.3283 7.70684C32.2068 7.82932 32.042 7.89812 31.8702 7.89812Z" stroke="#FF8A00" stroke-width="0.7"/>
<path d="M31.8702 64C31.6984 64 31.5337 63.9312 31.4122 63.8087C31.2907 63.6862 31.2225 63.5201 31.2225 63.3469V56.7549C31.2225 56.5817 31.2907 56.4156 31.4122 56.2932C31.5337 56.1707 31.6984 56.1019 31.8702 56.1019C32.042 56.1019 32.2068 56.1707 32.3283 56.2932C32.4498 56.4156 32.518 56.5817 32.518 56.7549V63.3469C32.518 63.5201 32.4498 63.6862 32.3283 63.8087C32.2068 63.9312 32.042 64 31.8702 64Z" stroke="#FF8A00" stroke-width="0.7"/>
<path d="M53.857 54.8192C53.7718 54.8192 53.6874 54.8022 53.6087 54.7693C53.53 54.7364 53.4586 54.6881 53.3984 54.6272L48.7746 49.9657C48.7127 49.9054 48.6634 49.8334 48.6294 49.7537C48.5955 49.674 48.5776 49.5883 48.5769 49.5016C48.5761 49.4149 48.5925 49.3289 48.6251 49.2486C48.6577 49.1684 48.7058 49.0955 48.7666 49.0342C48.8274 48.9728 48.8997 48.9243 48.9793 48.8915C49.0589 48.8587 49.1442 48.8421 49.2303 48.8429C49.3163 48.8437 49.4013 48.8617 49.4803 48.8959C49.5593 48.9301 49.6308 48.9799 49.6906 49.0423L54.3144 53.7038C54.4051 53.7951 54.467 53.9114 54.4921 54.0381C54.5172 54.1648 54.5045 54.2962 54.4555 54.4156C54.4066 54.5351 54.3236 54.6372 54.217 54.709C54.1105 54.7808 53.9852 54.8192 53.857 54.8192Z" stroke="#FF8A00" stroke-width="0.7"/>
<path d="M9.88365 54.8192C9.75547 54.8192 9.63018 54.7808 9.52364 54.709C9.4171 54.6372 9.3341 54.5351 9.28513 54.4156C9.23617 54.2962 9.22345 54.1648 9.24858 54.0381C9.27371 53.9114 9.33557 53.7951 9.42632 53.7038L14.0501 49.0423C14.1099 48.9799 14.1814 48.9301 14.2604 48.8959C14.3394 48.8617 14.4244 48.8437 14.5104 48.8429C14.5964 48.8421 14.6817 48.8587 14.7613 48.8915C14.841 48.9243 14.9133 48.9728 14.9741 49.0342C15.0349 49.0955 15.083 49.1684 15.1156 49.2486C15.1482 49.3289 15.1646 49.4149 15.1638 49.5016C15.1631 49.5883 15.1452 49.674 15.1112 49.7537C15.0773 49.8334 15.0279 49.9054 14.9661 49.9657L10.3423 54.6272C10.2821 54.6881 10.2106 54.7364 10.1319 54.7693C10.0532 54.8022 9.96886 54.8192 9.88365 54.8192Z" stroke="#FF8A00" stroke-width="0.7"/>
<path d="M22.5903 9.85071C22.4614 9.85063 22.3355 9.81181 22.2287 9.73922C22.1218 9.66663 22.0389 9.56356 21.9904 9.4432L20.5498 5.87748C20.5157 5.79771 20.4978 5.71188 20.497 5.62503C20.4963 5.53818 20.5127 5.45205 20.5454 5.37168C20.578 5.29131 20.6262 5.21832 20.6872 5.15697C20.7482 5.09562 20.8207 5.04715 20.9005 5.0144C20.9803 4.98165 21.0658 4.96528 21.1519 4.96623C21.2381 4.96719 21.3232 4.98547 21.4022 5.01998C21.4813 5.0545 21.5527 5.10457 21.6123 5.16726C21.6719 5.22995 21.7186 5.304 21.7495 5.38507L23.1901 8.95079C23.2303 9.04997 23.2456 9.15759 23.2348 9.26416C23.224 9.37073 23.1873 9.47297 23.1281 9.56189C23.0688 9.65081 22.9887 9.72366 22.8949 9.77403C22.8012 9.82439 22.6965 9.85073 22.5903 9.85071Z" stroke="#FF8A00" stroke-width="0.7"/>
<path d="M42.5974 59.3503C42.4685 59.3502 42.3426 59.3114 42.2358 59.2388C42.1289 59.1662 42.046 59.0632 41.9975 58.9428L40.4208 55.0454C40.36 54.8858 40.3637 54.7085 40.4311 54.5516C40.4985 54.3948 40.6242 54.2708 40.7813 54.2063C40.9383 54.1419 41.1142 54.142 41.2711 54.2069C41.428 54.2717 41.5535 54.3959 41.6205 54.5529L43.1959 58.4504C43.2281 58.5298 43.2444 58.6148 43.244 58.7006C43.2436 58.7864 43.2264 58.8713 43.1934 58.9503C43.1604 59.0294 43.1123 59.1012 43.0519 59.1615C42.9914 59.2219 42.9197 59.2696 42.8409 59.302C42.7636 59.3338 42.6809 59.3502 42.5974 59.3503Z" stroke="#FF8A00" stroke-width="0.7"/>
<path d="M5.3116 43.571C5.16305 43.5697 5.01944 43.517 4.90485 43.4217C4.79026 43.3264 4.71165 43.1943 4.68219 43.0475C4.65274 42.9007 4.67423 42.7481 4.74306 42.6154C4.81189 42.4827 4.92388 42.3778 5.06027 42.3184L8.92618 40.725C9.00531 40.6906 9.09044 40.6726 9.17658 40.6718C9.26273 40.671 9.34816 40.6876 9.42788 40.7205C9.5076 40.7534 9.58001 40.8021 9.64086 40.8635C9.70171 40.925 9.74978 40.9981 9.78227 41.0786C9.81475 41.159 9.831 41.2452 9.83004 41.332C9.82909 41.4189 9.81097 41.5047 9.77673 41.5844C9.74249 41.6641 9.69283 41.7361 9.63065 41.7962C9.56847 41.8563 9.49502 41.9033 9.4146 41.9344L5.54869 43.5227C5.47337 43.5537 5.39294 43.5701 5.3116 43.571Z" stroke="#FF8A00" stroke-width="0.7"/>
<path d="M58.0313 43.8532C57.9453 43.853 57.8602 43.8352 57.7812 43.8009L53.9334 42.1683C53.855 42.135 53.7839 42.0865 53.724 42.0255C53.6642 41.9645 53.6169 41.8922 53.5847 41.8127C53.5526 41.7333 53.5363 41.6483 53.5368 41.5625C53.5373 41.4767 53.5545 41.3918 53.5875 41.3128C53.6205 41.2337 53.6687 41.1619 53.7292 41.1016C53.7897 41.0413 53.8614 40.9936 53.9402 40.9612C54.019 40.9288 54.1033 40.9124 54.1884 40.9129C54.2735 40.9134 54.3577 40.9307 54.4361 40.964L58.2839 42.598C58.422 42.6564 58.5357 42.7613 58.6057 42.8948C58.6757 43.0282 58.6977 43.182 58.6679 43.33C58.6381 43.4779 58.5584 43.6109 58.4424 43.7063C58.3263 43.8017 58.181 43.8536 58.0313 43.8532Z" stroke="#FF8A00" stroke-width="0.7"/>
<path d="M41.2786 9.73707C41.1927 9.73733 41.1076 9.72 41.0286 9.68614C40.9499 9.65313 40.8784 9.6048 40.8183 9.5439C40.7582 9.48301 40.7106 9.41076 40.6782 9.33129C40.6458 9.25182 40.6293 9.16668 40.6297 9.08077C40.63 8.99486 40.6471 8.90985 40.6801 8.83062L42.1609 5.2845C42.1918 5.20256 42.2388 5.12775 42.2991 5.06451C42.3593 5.00128 42.4316 4.95093 42.5115 4.91645C42.5915 4.88198 42.6775 4.86409 42.7645 4.86385C42.8514 4.86361 42.9376 4.88103 43.0177 4.91507C43.0979 4.94911 43.1704 4.99907 43.231 5.06198C43.2916 5.12488 43.339 5.19944 43.3703 5.28121C43.4017 5.36298 43.4165 5.45028 43.4137 5.53791C43.4109 5.62554 43.3906 5.71171 43.3541 5.79128L41.8758 9.3374C41.8264 9.45589 41.7433 9.55702 41.6371 9.62812C41.5308 9.69922 41.4061 9.73712 41.2786 9.73707Z" stroke="#FF8A00" stroke-width="0.7"/>
<path d="M20.599 59.281C20.5132 59.2806 20.4282 59.2633 20.349 59.23C20.2705 59.1968 20.1994 59.1483 20.1395 59.0873C20.0797 59.0263 20.0323 58.954 20.0002 58.8745C19.9681 58.7951 19.9518 58.71 19.9523 58.6243C19.9528 58.5385 19.97 58.4536 20.0031 58.3745L21.6225 54.4954C21.6555 54.4163 21.7036 54.3445 21.7642 54.2842C21.8247 54.2239 21.8964 54.1762 21.9752 54.1438C22.054 54.1114 22.1383 54.095 22.2234 54.0955C22.3085 54.096 22.3927 54.1133 22.4711 54.1466C22.5495 54.1799 22.6207 54.2284 22.6805 54.2894C22.7403 54.3504 22.7877 54.4227 22.8198 54.5022C22.8519 54.5816 22.8682 54.6666 22.8677 54.7524C22.8672 54.8382 22.85 54.9231 22.817 55.0021L21.1963 58.8813C21.1468 58.9998 21.0637 59.1009 20.9575 59.172C20.8512 59.2431 20.7265 59.281 20.599 59.281Z" stroke="#FF8A00" stroke-width="0.7"/>
</g>
<defs>
<clipPath id="clip0_1728_87">
<rect width="64" height="64" fill="white"/>
</clipPath>
</defs>
</svg>
