<svg width="64" height="64" viewBox="0 0 64 64" fill="none" xmlns="http://www.w3.org/2000/svg">
<path fill-rule="evenodd" clip-rule="evenodd" d="M6.39987 14.1333C4.64522 14.1333 3.19987 15.5787 3.19987 17.3333V24.2667C3.19987 25.1377 3.929 25.8667 4.79987 25.8667H5.87488C6.52896 25.8667 6.95946 26.4367 6.78321 27.0667L1.22905 46.9208C0.447825 49.7132 2.58799 52.5333 5.48738 52.5333H17.9249L24.0707 28.7875C24.1921 28.3188 24.6032 28 25.0874 28H45.8124C46.7551 27.968 47.2883 27.5347 47.704 26.9333H55.4249C56.5906 26.9333 57.5582 25.9654 57.5582 24.8V23.1208L57.7707 22.9161C58.3417 22.3675 58.6665 21.6085 58.6665 20.8161V16.7995C58.6665 15.3394 57.46 14.1328 55.9998 14.1328L6.39987 14.1333ZM6.39987 16.2667H55.9999C56.307 16.2667 56.5332 16.4928 56.5332 16.8V20.8167C56.5332 21.0279 56.4489 21.2278 56.2957 21.375L55.4249 22.2125V24.8H45.8957L45.8829 25.8708H25.0871C23.6412 25.8708 22.3661 26.8584 22.0038 28.2581L16.2705 50.4042H5.48712C3.94493 50.4042 2.86741 48.985 3.28296 47.5L8.83711 27.6456C9.37905 25.7087 7.88584 23.7375 5.87462 23.7375H5.33295V17.3375C5.35001 16.5215 6.03464 16.279 6.39987 16.2667Z" fill="#FF8A00"/>
<path fill-rule="evenodd" clip-rule="evenodd" d="M4.2666 20.5334V22.6668H57.6458V20.5334H4.2666Z" fill="#FF8A00"/>
<path fill-rule="evenodd" clip-rule="evenodd" d="M23.5667 14.8625L21.4333 21.2625L23.4584 21.9375L25.5917 15.5375L23.5667 14.8625Z" fill="#FF8A00"/>
<path fill-rule="evenodd" clip-rule="evenodd" d="M19.3 14.8625L17.1666 21.2625L19.1916 21.9375L21.325 15.5375L19.3 14.8625Z" fill="#FF8A00"/>
<path fill-rule="evenodd" clip-rule="evenodd" d="M15.0334 14.8625L12.9 21.2625L14.925 21.9375L17.0584 15.5375L15.0334 14.8625Z" fill="#FF8A00"/>
<path fill-rule="evenodd" clip-rule="evenodd" d="M10.7666 14.8625L8.6333 21.2625L10.6583 21.9375L12.7916 15.5375L10.7666 14.8625Z" fill="#FF8A00"/>
<path fill-rule="evenodd" clip-rule="evenodd" d="M60.8 16.2666V20.5333H62.9334V16.2666H60.8Z" fill="#FF8A00"/>
<path fill-rule="evenodd" clip-rule="evenodd" d="M33.0958 26.675L32.9291 27.3417C32.6646 28.3998 32.5333 29.4884 32.5333 30.5792V30.7584C32.5333 31.6271 32.6818 32.4822 32.85 33.3334H25.4916C24.7533 33.3334 24.0365 33.0929 23.4458 32.65L22.5083 31.9459L21.225 33.6584L22.1667 34.3584C23.1269 35.0786 24.2913 35.4709 25.4916 35.4709H34.1333C34.2959 35.4711 34.4564 35.434 34.6026 35.3628C34.7488 35.2916 34.8768 35.1879 34.9769 35.0597C35.0769 34.9315 35.1464 34.7823 35.18 34.6232C35.2136 34.4641 35.2105 34.2994 35.1708 34.1417L35.0042 33.475C34.782 32.5863 34.6667 31.6744 34.6667 30.7584V30.5792C34.6667 29.6629 34.7821 28.7513 35.0042 27.8625L35.1708 27.1917L33.0958 26.675Z" fill="#FF8A00"/>
<path fill-rule="evenodd" clip-rule="evenodd" d="M25.5834 25.8542C25.3012 25.8587 25.0323 25.9746 24.8355 26.1769C24.6387 26.3792 24.5301 26.6512 24.5334 26.9334V27.7501C24.5334 29.6135 25.5917 31.3208 27.2584 32.1542C27.4059 32.2282 27.5685 32.2671 27.7334 32.2675C27.9766 32.271 28.2137 32.191 28.4054 32.0412C28.5971 31.8914 28.7318 31.6807 28.7872 31.4438C28.8427 31.207 28.8155 30.9584 28.7102 30.7391C28.605 30.5199 28.4279 30.343 28.2084 30.2381C27.2656 29.7626 26.6667 28.807 26.6667 27.7506V26.9342C26.6684 26.7917 26.6415 26.65 26.5876 26.5181C26.5337 26.3861 26.4539 26.2663 26.3529 26.1657C26.2519 26.0651 26.1318 25.9858 25.9996 25.9324C25.8675 25.879 25.7259 25.8525 25.5834 25.8548V25.8542Z" fill="#FF8A00"/>
<path fill-rule="evenodd" clip-rule="evenodd" d="M53.3334 12V14.6667H55.4667V12H53.3334Z" fill="#FF8A00"/>
<path fill-rule="evenodd" clip-rule="evenodd" d="M3.21638 45.0668C3.07503 45.0648 2.9347 45.0909 2.80353 45.1436C2.67237 45.1963 2.55298 45.2745 2.45232 45.3738C2.35166 45.473 2.27173 45.5913 2.21717 45.7217C2.16262 45.8521 2.13452 45.9921 2.13452 46.1334C2.13452 46.2748 2.16262 46.4147 2.21717 46.5451C2.27173 46.6756 2.35166 46.7938 2.45232 46.8931C2.55298 46.9923 2.67237 47.0706 2.80353 47.1233C2.9347 47.176 3.07503 47.2021 3.21638 47.2001H11.7164C11.8577 47.2021 11.998 47.176 12.1292 47.1233C12.2604 47.0706 12.3798 46.9923 12.4804 46.8931C12.5811 46.7938 12.661 46.6756 12.7156 46.5451C12.7701 46.4147 12.7982 46.2748 12.7982 46.1334C12.7982 45.9921 12.7701 45.8521 12.7156 45.7217C12.661 45.5913 12.5811 45.473 12.4804 45.3738C12.3798 45.2745 12.2604 45.1963 12.1292 45.1436C11.998 45.0909 11.8577 45.0648 11.7164 45.0668H3.21638Z" fill="#FF8A00"/>
<path fill-rule="evenodd" clip-rule="evenodd" d="M4.28315 40.8002C4.14181 40.7982 4.00147 40.8243 3.87031 40.877C3.73914 40.9297 3.61976 41.0079 3.5191 41.1072C3.41844 41.2064 3.3385 41.3247 3.28395 41.4551C3.22939 41.5855 3.20129 41.7255 3.20129 41.8668C3.20129 42.0082 3.22939 42.1481 3.28395 42.2785C3.3385 42.4089 3.41844 42.5272 3.5191 42.6265C3.61976 42.7257 3.73914 42.804 3.87031 42.8567C4.00147 42.9094 4.14181 42.9355 4.28315 42.9335H12.7873C12.9286 42.9355 13.069 42.9094 13.2001 42.8567C13.3313 42.804 13.4507 42.7257 13.5514 42.6265C13.652 42.5272 13.7319 42.4089 13.7865 42.2785C13.8411 42.1481 13.8692 42.0082 13.8692 41.8668C13.8692 41.7255 13.8411 41.5855 13.7865 41.4551C13.7319 41.3247 13.652 41.2064 13.5514 41.1072C13.4507 41.0079 13.3313 40.9297 13.2001 40.877C13.069 40.8243 12.9286 40.7982 12.7873 40.8002H4.28315Z" fill="#FF8A00"/>
<path fill-rule="evenodd" clip-rule="evenodd" d="M5.3498 36.5336C5.20846 36.5316 5.06812 36.5577 4.93696 36.6104C4.80579 36.6631 4.68641 36.7413 4.58575 36.8406C4.48509 36.9398 4.40515 37.0581 4.3506 37.1885C4.29604 37.3189 4.26794 37.4589 4.26794 37.6002C4.26794 37.7416 4.29604 37.8815 4.3506 38.0119C4.40515 38.1423 4.48509 38.2606 4.58575 38.3599C4.68641 38.4591 4.80579 38.5374 4.93696 38.5901C5.06812 38.6428 5.20846 38.6689 5.3498 38.6669H13.854C13.9953 38.6689 14.1356 38.6428 14.2668 38.5901C14.398 38.5374 14.5173 38.4591 14.618 38.3599C14.7187 38.2606 14.7986 38.1423 14.8532 38.0119C14.9077 37.8815 14.9358 37.7416 14.9358 37.6002C14.9358 37.4589 14.9077 37.3189 14.8532 37.1885C14.7986 37.0581 14.7187 36.9398 14.618 36.8406C14.5173 36.7413 14.398 36.6631 14.2668 36.6104C14.1356 36.5577 13.9953 36.5316 13.854 36.5336H5.3498Z" fill="#FF8A00"/>
<path fill-rule="evenodd" clip-rule="evenodd" d="M6.41645 32.2667C6.27511 32.2647 6.13477 32.2908 6.00361 32.3435C5.87244 32.3962 5.75306 32.4745 5.6524 32.5737C5.55174 32.673 5.47181 32.7912 5.41725 32.9217C5.36269 33.0521 5.33459 33.192 5.33459 33.3334C5.33459 33.4747 5.36269 33.6147 5.41725 33.7451C5.47181 33.8755 5.55174 33.9938 5.6524 34.093C5.75306 34.1923 5.87244 34.2705 6.00361 34.3232C6.13477 34.3759 6.27511 34.402 6.41645 34.4H14.9206C15.0619 34.402 15.2023 34.3759 15.3334 34.3232C15.4646 34.2705 15.584 34.1923 15.6847 34.093C15.7853 33.9938 15.8652 33.8755 15.9198 33.7451C15.9744 33.6147 16.0025 33.4747 16.0025 33.3334C16.0025 33.192 15.9744 33.0521 15.9198 32.9217C15.8652 32.7912 15.7853 32.673 15.6847 32.5737C15.584 32.4745 15.4646 32.3962 15.3334 32.3435C15.2023 32.2908 15.0619 32.2647 14.9206 32.2667H6.41645Z" fill="#FF8A00"/>
<path fill-rule="evenodd" clip-rule="evenodd" d="M7.4831 28.0001C7.34176 27.9981 7.20142 28.0242 7.07026 28.0769C6.93909 28.1296 6.81971 28.2079 6.71905 28.3071C6.61839 28.4064 6.53845 28.5246 6.4839 28.6551C6.42934 28.7855 6.40125 28.9254 6.40125 29.0668C6.40125 29.2081 6.42934 29.3481 6.4839 29.4785C6.53845 29.6089 6.61839 29.7272 6.71905 29.8264C6.81971 29.9257 6.93909 30.0039 7.07026 30.0566C7.20142 30.1093 7.34176 30.1354 7.4831 30.1334H15.9873C16.1286 30.1354 16.2689 30.1093 16.4001 30.0566C16.5313 30.0039 16.6506 29.9257 16.7513 29.8264C16.852 29.7272 16.9319 29.6089 16.9865 29.4785C17.041 29.3481 17.0691 29.2081 17.0691 29.0668C17.0691 28.9254 17.041 28.7855 16.9865 28.6551C16.9319 28.5246 16.852 28.4064 16.7513 28.3071C16.6506 28.2079 16.5313 28.1296 16.4001 28.0769C16.2689 28.0242 16.1286 27.9981 15.9873 28.0001H7.4831Z" fill="#FF8A00"/>
</svg>
