<svg width="64" height="64" viewBox="0 0 64 64" fill="none" xmlns="http://www.w3.org/2000/svg">
<g clip-path="url(#clip0_1728_118)">
<path d="M31.6288 21.9776C29.4733 21.9776 28.0538 20.8934 28.0039 19.1987C27.9988 19.029 28.0613 18.8642 28.1778 18.7405C28.2942 18.6169 28.4549 18.5446 28.6247 18.5395C28.7944 18.5344 28.9592 18.597 29.0828 18.7134C29.2065 18.8298 29.2788 18.9906 29.2839 19.1603C29.3261 20.576 30.9863 20.7066 31.698 20.6963C32.4096 20.6861 33.0701 20.4147 33.4272 20.0038C33.5427 19.8727 33.6275 19.7174 33.6753 19.5493C33.7232 19.3813 33.7329 19.2046 33.7037 19.0323C33.6384 18.5344 33.3402 18.1619 32.0973 17.9584L31.7351 17.9034C30.6612 17.7408 29.4452 17.5578 28.6157 16.384C28.4517 16.1565 28.3358 15.898 28.2751 15.6242C28.2143 15.3504 28.21 15.0672 28.2624 14.7917C28.424 14.0415 28.8741 13.385 29.5156 12.9638C30.4384 12.3379 31.8541 12.2419 33.0355 12.727C33.4602 12.8974 33.846 13.1518 34.17 13.4749C34.494 13.798 34.7494 14.1832 34.921 14.6074C34.9543 14.6861 34.9715 14.7708 34.9715 14.8563C34.9715 14.9418 34.9544 15.0264 34.9212 15.1052C34.888 15.184 34.8393 15.2554 34.778 15.315C34.7168 15.3747 34.6442 15.4215 34.5645 15.4526C34.4849 15.4838 34.3998 15.4986 34.3143 15.4963C34.2289 15.494 34.1447 15.4746 34.0668 15.4393C33.989 15.4039 33.919 15.3533 33.861 15.2904C33.8031 15.2276 33.7583 15.1537 33.7293 15.0733C33.6198 14.811 33.4592 14.5731 33.2568 14.3736C33.0544 14.174 32.8143 14.0168 32.5504 13.911C31.7607 13.5872 30.8084 13.6333 30.2336 14.0237C29.8788 14.254 29.6245 14.6103 29.522 15.0208C29.5004 15.1288 29.5015 15.2401 29.5253 15.3477C29.5491 15.4552 29.5951 15.5566 29.6602 15.6454C30.1504 16.3379 30.8404 16.4736 31.9258 16.6374C32.0538 16.6566 32.1818 16.6746 32.3034 16.695C32.9063 16.7936 34.7354 17.0931 34.9722 18.871C35.0249 19.2225 35.0004 19.5812 34.9005 19.9223C34.8006 20.2633 34.6276 20.5786 34.3936 20.8461C33.792 21.5424 32.7898 21.9661 31.7146 21.9801L31.6288 21.9776Z" fill="#FF8A00"/>
<path d="M31.6162 13.696C31.4465 13.696 31.2837 13.6285 31.1637 13.5085C31.0436 13.3885 30.9762 13.2257 30.9762 13.056V11.136C30.9762 10.9662 31.0436 10.8034 31.1637 10.6834C31.2837 10.5634 31.4465 10.496 31.6162 10.496C31.7859 10.496 31.9487 10.5634 32.0687 10.6834C32.1888 10.8034 32.2562 10.9662 32.2562 11.136V13.056C32.2562 13.2257 32.1888 13.3885 32.0687 13.5085C31.9487 13.6285 31.7859 13.696 31.6162 13.696Z" fill="#FF8A00"/>
<path d="M31.4882 23.936C31.3184 23.936 31.1556 23.8685 31.0356 23.7485C30.9156 23.6285 30.8482 23.4657 30.8482 23.296V21.376C30.8482 21.2062 30.9156 21.0434 31.0356 20.9234C31.1556 20.8034 31.3184 20.736 31.4882 20.736C31.6579 20.736 31.8207 20.8034 31.9407 20.9234C32.0607 21.0434 32.1282 21.2062 32.1282 21.376V23.296C32.1282 23.4657 32.0607 23.6285 31.9407 23.7485C31.8207 23.8685 31.6579 23.936 31.4882 23.936Z" fill="#FF8A00"/>
<path d="M31.6277 27.5339C29.5546 27.5334 27.5283 26.9182 25.8049 25.7661C24.0815 24.6141 22.7384 22.9768 21.9454 21.0615C21.1525 19.1461 20.9453 17.0386 21.35 15.0055C21.7547 12.9724 22.7533 11.1049 24.2193 9.63924C25.6853 8.17357 27.553 7.17552 29.5862 6.77128C31.6195 6.36704 33.7269 6.57477 35.6421 7.36819C37.5572 8.16162 39.1941 9.50512 40.3458 11.2288C41.4975 12.9525 42.1121 14.979 42.1121 17.052C42.1084 19.8313 41.0025 22.4956 39.037 24.4606C37.0716 26.4256 34.4069 27.5309 31.6277 27.5339ZM31.6277 7.85006C29.8078 7.85057 28.0289 8.39068 26.516 9.40211C25.0031 10.4135 23.8241 11.8509 23.128 13.5323C22.4319 15.2138 22.2501 17.0639 22.6054 18.8488C22.9608 20.6336 23.8374 22.273 25.1244 23.5596C26.4114 24.8463 28.051 25.7224 29.836 26.0773C31.6209 26.4321 33.471 26.2497 35.1522 25.5532C36.8335 24.8567 38.2705 23.6772 39.2815 22.164C40.2925 20.6508 40.8321 18.8718 40.8321 17.052C40.8284 14.6122 39.8574 12.2734 38.1319 10.5485C36.4065 8.82349 34.0675 7.85311 31.6277 7.85006Z" fill="#FF8A00"/>
<path d="M62.2081 30.0799H49.9201C49.7504 30.0799 49.5876 30.0125 49.4676 29.8925C49.3476 29.7724 49.2801 29.6096 49.2801 29.4399C49.2801 29.2702 49.3476 29.1074 49.4676 28.9874C49.5876 28.8673 49.7504 28.7999 49.9201 28.7999H62.2081C62.3779 28.7999 62.5407 28.8673 62.6607 28.9874C62.7807 29.1074 62.8481 29.2702 62.8481 29.4399C62.8481 29.6096 62.7807 29.7724 62.6607 29.8925C62.5407 30.0125 62.3779 30.0799 62.2081 30.0799Z" fill="#FF8A00"/>
<path d="M62.2082 46.336H59.3922C59.2224 46.336 59.0597 46.2685 58.9396 46.1485C58.8196 46.0285 58.7522 45.8657 58.7522 45.696C58.7522 45.5262 58.8196 45.3634 58.9396 45.2434C59.0597 45.1234 59.2224 45.056 59.3922 45.056H62.2082C62.3779 45.056 62.5407 45.1234 62.6607 45.2434C62.7808 45.3634 62.8482 45.5262 62.8482 45.696C62.8482 45.8657 62.7808 46.0285 62.6607 46.1485C62.5407 46.2685 62.3779 46.336 62.2082 46.336Z" fill="#FF8A00"/>
<path d="M56.9601 46.336H44.8001C44.6304 46.336 44.4676 46.2685 44.3476 46.1485C44.2276 46.0285 44.1601 45.8657 44.1601 45.696C44.1601 45.5262 44.2276 45.3634 44.3476 45.2434C44.4676 45.1234 44.6304 45.056 44.8001 45.056H56.9601C57.1299 45.056 57.2927 45.1234 57.4127 45.2434C57.5327 45.3634 57.6001 45.5262 57.6001 45.696C57.6001 45.8657 57.5327 46.0285 57.4127 46.1485C57.2927 46.2685 57.1299 46.336 56.9601 46.336Z" fill="#FF8A00"/>
<path d="M62.2082 50.5599H59.3922C59.2224 50.5599 59.0597 50.4925 58.9396 50.3724C58.8196 50.2524 58.7522 50.0896 58.7522 49.9199C58.7522 49.7502 58.8196 49.5874 58.9396 49.4674C59.0597 49.3473 59.2224 49.2799 59.3922 49.2799H62.2082C62.3779 49.2799 62.5407 49.3473 62.6607 49.4674C62.7808 49.5874 62.8482 49.7502 62.8482 49.9199C62.8482 50.0896 62.7808 50.2524 62.6607 50.3724C62.5407 50.4925 62.3779 50.5599 62.2082 50.5599Z" fill="#FF8A00"/>
<path d="M62.2082 54.5279H57.0882C56.9184 54.5279 56.7556 54.4605 56.6356 54.3405C56.5156 54.2205 56.4482 54.0577 56.4482 53.8879C56.4482 53.7182 56.5156 53.5554 56.6356 53.4354C56.7556 53.3154 56.9184 53.2479 57.0882 53.2479H62.2082C62.3779 53.2479 62.5407 53.3154 62.6607 53.4354C62.7807 53.5554 62.8482 53.7182 62.8482 53.8879C62.8482 54.0577 62.7807 54.2205 62.6607 54.3405C62.5407 54.4605 62.3779 54.5279 62.2082 54.5279Z" fill="#FF8A00"/>
<path d="M62.2081 58.7519H56.9601C56.7904 58.7519 56.6276 58.6845 56.5076 58.5645C56.3876 58.4445 56.3201 58.2817 56.3201 58.1119C56.3201 57.9422 56.3876 57.7794 56.5076 57.6594C56.6276 57.5394 56.7904 57.4719 56.9601 57.4719H62.2081C62.3779 57.4719 62.5407 57.5394 62.6607 57.6594C62.7807 57.7794 62.8481 57.9422 62.8481 58.1119C62.8481 58.2817 62.7807 58.4445 62.6607 58.5645C62.5407 58.6845 62.3779 58.7519 62.2081 58.7519Z" fill="#FF8A00"/>
<path d="M56.9602 50.5599H45.6962C45.5265 50.5599 45.3637 50.4925 45.2437 50.3724C45.1236 50.2524 45.0562 50.0896 45.0562 49.9199C45.0562 49.7502 45.1236 49.5874 45.2437 49.4674C45.3637 49.3473 45.5265 49.2799 45.6962 49.2799H56.9602C57.1299 49.2799 57.2927 49.3473 57.4127 49.4674C57.5328 49.5874 57.6002 49.7502 57.6002 49.9199C57.6002 50.0896 57.5328 50.2524 57.4127 50.3724C57.2927 50.4925 57.1299 50.5599 56.9602 50.5599Z" fill="#FF8A00"/>
<path d="M62.2082 42.3679H59.3922C59.2224 42.3679 59.0597 42.3005 58.9396 42.1805C58.8196 42.0605 58.7522 41.8977 58.7522 41.7279C58.7522 41.5582 58.8196 41.3954 58.9396 41.2754C59.0597 41.1554 59.2224 41.0879 59.3922 41.0879H62.2082C62.3779 41.0879 62.5407 41.1554 62.6607 41.2754C62.7808 41.3954 62.8482 41.5582 62.8482 41.7279C62.8482 41.8977 62.7808 42.0605 62.6607 42.1805C62.5407 42.3005 62.3779 42.3679 62.2082 42.3679Z" fill="#FF8A00"/>
<path d="M56.9601 42.3679H44.8001C44.6304 42.3679 44.4676 42.3005 44.3476 42.1805C44.2276 42.0605 44.1601 41.8977 44.1601 41.7279C44.1601 41.5582 44.2276 41.3954 44.3476 41.2754C44.4676 41.1554 44.6304 41.0879 44.8001 41.0879H56.9601C57.1299 41.0879 57.2927 41.1554 57.4127 41.2754C57.5327 41.3954 57.6001 41.5582 57.6001 41.7279C57.6001 41.8977 57.5327 42.0605 57.4127 42.1805C57.2927 42.3005 57.1299 42.3679 56.9601 42.3679Z" fill="#FF8A00"/>
<path d="M62.2082 38.2719H59.3922C59.2224 38.2719 59.0597 38.2045 58.9396 38.0845C58.8196 37.9645 58.7522 37.8017 58.7522 37.6319C58.7522 37.4622 58.8196 37.2994 58.9396 37.1794C59.0597 37.0594 59.2224 36.9919 59.3922 36.9919H62.2082C62.3779 36.9919 62.5407 37.0594 62.6607 37.1794C62.7808 37.2994 62.8482 37.4622 62.8482 37.6319C62.8482 37.8017 62.7808 37.9645 62.6607 38.0845C62.5407 38.2045 62.3779 38.2719 62.2082 38.2719Z" fill="#FF8A00"/>
<path d="M62.2082 34.176H59.3922C59.2224 34.176 59.0597 34.1085 58.9396 33.9885C58.8196 33.8685 58.7522 33.7057 58.7522 33.536C58.7522 33.3662 58.8196 33.2034 58.9396 33.0834C59.0597 32.9634 59.2224 32.896 59.3922 32.896H62.2082C62.3779 32.896 62.5407 32.9634 62.6607 33.0834C62.7808 33.2034 62.8482 33.3662 62.8482 33.536C62.8482 33.7057 62.7808 33.8685 62.6607 33.9885C62.5407 34.1085 62.3779 34.176 62.2082 34.176Z" fill="#FF8A00"/>
<path d="M56.9601 38.2719H44.8001C44.6304 38.2719 44.4676 38.2045 44.3476 38.0845C44.2276 37.9645 44.1601 37.8017 44.1601 37.6319C44.1601 37.4622 44.2276 37.2994 44.3476 37.1794C44.4676 37.0594 44.6304 36.9919 44.8001 36.9919H56.9601C57.1299 36.9919 57.2927 37.0594 57.4127 37.1794C57.5327 37.2994 57.6001 37.4622 57.6001 37.6319C57.6001 37.8017 57.5327 37.9645 57.4127 38.0845C57.2927 38.2045 57.1299 38.2719 56.9601 38.2719Z" fill="#FF8A00"/>
<path d="M56.9601 58.6239H53.1201C52.9504 58.6239 52.7876 58.5565 52.6676 58.4365C52.5476 58.3164 52.4801 58.1537 52.4801 57.9839C52.4801 57.8142 52.5476 57.6514 52.6676 57.5314C52.7876 57.4113 52.9504 57.3439 53.1201 57.3439H56.9601C57.1299 57.3439 57.2927 57.4113 57.4127 57.5314C57.5327 57.6514 57.6001 57.8142 57.6001 57.9839C57.6001 58.1537 57.5327 58.3164 57.4127 58.4365C57.2927 58.5565 57.1299 58.6239 56.9601 58.6239Z" fill="#FF8A00"/>
<path d="M62.3361 62.848H49.9201C49.7504 62.848 49.5876 62.7805 49.4676 62.6605C49.3476 62.5405 49.2801 62.3777 49.2801 62.208C49.2801 62.0382 49.3476 61.8754 49.4676 61.7554C49.5876 61.6354 49.7504 61.568 49.9201 61.568H61.6961V25.856H50.5601V33.536C50.5601 33.7057 50.4927 33.8685 50.3727 33.9885C50.2527 34.1085 50.0899 34.176 49.9201 34.176C49.7504 34.176 49.5876 34.1085 49.4676 33.9885C49.3476 33.8685 49.2801 33.7057 49.2801 33.536V25.216C49.2801 25.0462 49.3476 24.8834 49.4676 24.7634C49.5876 24.6434 49.7504 24.576 49.9201 24.576H62.3361C62.5059 24.576 62.6687 24.6434 62.7887 24.7634C62.9087 24.8834 62.9761 25.0462 62.9761 25.216V62.208C62.9761 62.3777 62.9087 62.5405 62.7887 62.6605C62.6687 62.7805 62.5059 62.848 62.3361 62.848Z" fill="#FF8A00"/>
<path d="M57.0882 62.848C56.9184 62.848 56.7557 62.7805 56.6356 62.6605C56.5156 62.5405 56.4482 62.3777 56.4482 62.208V34.176H45.3122V45.696C45.3122 45.8657 45.2448 46.0285 45.1247 46.1485C45.0047 46.2685 44.8419 46.336 44.6722 46.336C44.5024 46.336 44.3397 46.2685 44.2196 46.1485C44.0996 46.0285 44.0322 45.8657 44.0322 45.696V33.536C44.0322 33.3662 44.0996 33.2034 44.2196 33.0834C44.3397 32.9634 44.5024 32.896 44.6722 32.896H57.0882C57.2579 32.896 57.4207 32.9634 57.5407 33.0834C57.6608 33.2034 57.7282 33.3662 57.7282 33.536V62.208C57.7282 62.3777 57.6608 62.5405 57.5407 62.6605C57.4207 62.7805 57.2579 62.848 57.0882 62.848Z" fill="#FF8A00"/>
<path d="M39.0144 46.3782H24.0384C23.9425 46.378 23.8478 46.3563 23.7614 46.3146C23.675 46.273 23.5991 46.2124 23.5392 46.1375C23.4794 46.0625 23.4372 45.975 23.4157 45.8815C23.3942 45.7881 23.394 45.6909 23.4151 45.5974L25.2839 37.3618C25.3161 37.2203 25.3955 37.0939 25.509 37.0035C25.6225 36.913 25.7634 36.8638 25.9085 36.8639H37.2532C37.4005 36.8642 37.5432 36.9153 37.6572 37.0085C37.7713 37.1018 37.8496 37.2316 37.8791 37.3759L39.6365 45.6101C39.6555 45.703 39.6536 45.799 39.6309 45.891C39.6083 45.9831 39.5655 46.069 39.5056 46.1425C39.4457 46.216 39.3702 46.2752 39.2846 46.316C39.199 46.3568 39.1054 46.378 39.0106 46.3782H39.0144ZM24.8448 45.0982H38.2234L36.736 38.1439H26.4192L24.8448 45.0982Z" fill="#FF8A00"/>
<path d="M39.0147 62.848H24.0387C23.9426 62.8479 23.8478 62.8262 23.7613 62.7845C23.6747 62.7427 23.5987 62.6821 23.5389 62.607C23.479 62.5318 23.4368 62.4442 23.4154 62.3505C23.394 62.2569 23.394 62.1596 23.4153 62.066L25.2841 53.8317C25.3163 53.6902 25.3957 53.5638 25.5092 53.4734C25.6227 53.3829 25.7636 53.3337 25.9087 53.3338H37.2534C37.3998 53.3338 37.5418 53.3839 37.6557 53.4759C37.7696 53.568 37.8486 53.6962 37.8793 53.8394L39.6406 62.08C39.6596 62.1729 39.6576 62.2689 39.635 62.3609C39.6123 62.453 39.5695 62.5389 39.5096 62.6124C39.4497 62.6859 39.3743 62.7451 39.2887 62.7859C39.2031 62.8266 39.1095 62.8479 39.0147 62.848ZM24.8451 61.5681H38.2236L36.7363 54.6138H26.4195L24.8451 61.5681Z" fill="#FF8A00"/>
<path d="M9.08833 62.848C8.99227 62.8479 8.89746 62.8262 8.81094 62.7845C8.72442 62.7427 8.6484 62.6821 8.58852 62.607C8.52865 62.5318 8.48645 62.4442 8.46507 62.3505C8.44368 62.2569 8.44364 62.1596 8.46497 62.066L10.3338 53.8317C10.366 53.6902 10.4454 53.5638 10.5589 53.4734C10.6724 53.3829 10.8133 53.3337 10.9584 53.3338H22.3107C22.4571 53.3338 22.5992 53.3839 22.7131 53.4759C22.827 53.568 22.9059 53.6962 22.9366 53.8394L24.6928 62.08C24.7118 62.1729 24.7098 62.2689 24.6872 62.3609C24.6645 62.453 24.6217 62.5389 24.5618 62.6124C24.5019 62.6859 24.4265 62.7451 24.3409 62.7859C24.2553 62.8266 24.1617 62.8479 24.0669 62.848H9.08833ZM9.89729 61.5681H23.2771L21.7936 54.6138H11.4768L9.89729 61.5681Z" fill="#FF8A00"/>
<path d="M46.4872 54.6136H31.5112C31.415 54.6136 31.32 54.5921 31.2334 54.5504C31.1467 54.5088 31.0705 54.4481 31.0105 54.373C30.9505 54.2978 30.9082 54.2101 30.8867 54.1164C30.8652 54.0226 30.8652 53.9252 30.8865 53.8315L32.7681 45.5972C32.8001 45.4555 32.8794 45.3288 32.9929 45.2381C33.1064 45.1474 33.2474 45.098 33.3928 45.098H44.7374C44.8847 45.0983 45.0274 45.1494 45.1415 45.2427C45.2555 45.3359 45.3339 45.4657 45.3633 45.61L47.1195 53.8443C47.1395 53.9376 47.1384 54.0343 47.1163 54.1271C47.0942 54.22 47.0515 54.3067 46.9915 54.381C46.9315 54.4552 46.8556 54.5151 46.7695 54.5562C46.6833 54.5974 46.589 54.6187 46.4936 54.6187L46.4872 54.6136ZM32.3176 53.3336H45.6961L44.2126 46.378H33.8971L32.3176 53.3336Z" fill="#FF8A00"/>
<path d="M31.5406 54.6136H16.5646C16.4685 54.6136 16.3735 54.5921 16.2868 54.5504C16.2001 54.5088 16.124 54.4481 16.0639 54.373C16.0039 54.2978 15.9616 54.2101 15.9402 54.1164C15.9187 54.0226 15.9186 53.9252 15.94 53.8315L17.8101 45.5972C17.842 45.4557 17.9211 45.3292 18.0343 45.2385C18.1476 45.1478 18.2883 45.0983 18.4334 45.098H29.7794C29.9267 45.0983 30.0694 45.1494 30.1834 45.2427C30.2974 45.3359 30.3758 45.4657 30.4053 45.61L32.1614 53.8443C32.1815 53.9376 32.1804 54.0343 32.1582 54.1271C32.1361 54.22 32.0935 54.3067 32.0334 54.381C31.9734 54.4552 31.8976 54.5151 31.8114 54.5562C31.7253 54.5974 31.631 54.6187 31.5355 54.6187L31.5406 54.6136ZM17.371 53.3336H30.7496L29.2661 46.378H18.9505L17.371 53.3336Z" fill="#FF8A00"/>
<path d="M53.9613 62.848H38.9852C38.8891 62.8481 38.7941 62.8266 38.7074 62.7849C38.6207 62.7433 38.5446 62.6826 38.4845 62.6075C38.4245 62.5323 38.3822 62.4446 38.3608 62.3509C38.3393 62.2571 38.3392 62.1597 38.3606 62.066L40.2307 53.8317C40.2628 53.6904 40.342 53.5642 40.4553 53.4738C40.5685 53.3833 40.7091 53.334 40.854 53.3338H57.0883C57.258 53.3338 57.4208 53.4012 57.5408 53.5213C57.6609 53.6413 57.7283 53.8041 57.7283 53.9738C57.7283 54.1435 57.6609 54.3063 57.5408 54.4264C57.4208 54.5464 57.258 54.6138 57.0883 54.6138H53.0051L54.5872 62.08C54.6061 62.1729 54.6042 62.2689 54.5816 62.3609C54.5589 62.453 54.5161 62.5389 54.4562 62.6124C54.3963 62.6859 54.3208 62.7451 54.2352 62.7859C54.1496 62.8266 54.0561 62.8479 53.9613 62.848ZM39.7916 61.5681H53.1715L51.6969 54.6138H41.3699L39.7916 61.5681Z" fill="#FF8A00"/>
<path d="M9.09585 62.8479H0.768174C0.598435 62.8479 0.435649 62.7805 0.315626 62.6605C0.195602 62.5405 0.128174 62.3777 0.128174 62.2079V33.4079C0.128174 33.2382 0.195602 33.0754 0.315626 32.9554C0.435649 32.8354 0.598435 32.7679 0.768174 32.7679H21.3762C21.5459 32.7679 21.7087 32.8354 21.8287 32.9554C21.9487 33.0754 22.0162 33.2382 22.0162 33.4079V45.6076C22.0162 45.7773 21.9487 45.9401 21.8287 46.0602C21.7087 46.1802 21.5459 46.2476 21.3762 46.2476C21.2064 46.2476 21.0436 46.1802 20.9236 46.0602C20.8036 45.9401 20.7362 45.7773 20.7362 45.6076V34.0479H1.40817V61.5679H9.09585C9.26559 61.5679 9.42838 61.6354 9.5484 61.7554C9.66843 61.8754 9.73585 62.0382 9.73585 62.2079C9.73585 62.3777 9.66843 62.5405 9.5484 62.6605C9.42838 62.7805 9.26559 62.8479 9.09585 62.8479Z" fill="#FF8A00"/>
<path d="M21.3762 38.016H0.768174C0.598435 38.016 0.435649 37.9485 0.315626 37.8285C0.195602 37.7085 0.128174 37.5457 0.128174 37.376C0.128174 37.2062 0.195602 37.0434 0.315626 36.9234C0.435649 36.8034 0.598435 36.736 0.768174 36.736H21.3762C21.5459 36.736 21.7087 36.8034 21.8287 36.9234C21.9487 37.0434 22.0162 37.2062 22.0162 37.376C22.0162 37.5457 21.9487 37.7085 21.8287 37.8285C21.7087 37.9485 21.5459 38.016 21.3762 38.016Z" fill="#FF8A00"/>
<path d="M21.3762 42.2399H0.768174C0.598435 42.2399 0.435649 42.1725 0.315626 42.0524C0.195602 41.9324 0.128174 41.7696 0.128174 41.5999C0.128174 41.4302 0.195602 41.2674 0.315626 41.1474C0.435649 41.0273 0.598435 40.9599 0.768174 40.9599H21.3762C21.5459 40.9599 21.7087 41.0273 21.8287 41.1474C21.9487 41.2674 22.0162 41.4302 22.0162 41.5999C22.0162 41.7696 21.9487 41.9324 21.8287 42.0524C21.7087 42.1725 21.5459 42.2399 21.3762 42.2399Z" fill="#FF8A00"/>
<path d="M21.3762 46.336H0.768174C0.598435 46.336 0.435649 46.2685 0.315626 46.1485C0.195602 46.0285 0.128174 45.8657 0.128174 45.696C0.128174 45.5262 0.195602 45.3634 0.315626 45.2434C0.435649 45.1234 0.598435 45.056 0.768174 45.056H21.3762C21.5459 45.056 21.7087 45.1234 21.8287 45.2434C21.9487 45.3634 22.0162 45.5262 22.0162 45.696C22.0162 45.8657 21.9487 46.0285 21.8287 46.1485C21.7087 46.2685 21.5459 46.336 21.3762 46.336Z" fill="#FF8A00"/>
<path d="M17.2802 50.5599H0.768174C0.598435 50.5599 0.435649 50.4925 0.315626 50.3724C0.195602 50.2524 0.128174 50.0896 0.128174 49.9199C0.128174 49.7502 0.195602 49.5874 0.315626 49.4674C0.435649 49.3473 0.598435 49.2799 0.768174 49.2799H17.2802C17.4499 49.2799 17.6127 49.3473 17.7327 49.4674C17.8527 49.5874 17.9202 49.7502 17.9202 49.9199C17.9202 50.0896 17.8527 50.2524 17.7327 50.3724C17.6127 50.4925 17.4499 50.5599 17.2802 50.5599Z" fill="#FF8A00"/>
<path d="M9.98417 58.6239H0.768174C0.598435 58.6239 0.435649 58.5565 0.315626 58.4365C0.195602 58.3164 0.128174 58.1537 0.128174 57.9839C0.128174 57.8142 0.195602 57.6514 0.315626 57.5314C0.435649 57.4113 0.598435 57.3439 0.768174 57.3439H9.98417C10.1539 57.3439 10.3167 57.4113 10.4367 57.5314C10.5567 57.6514 10.6242 57.8142 10.6242 57.9839C10.6242 58.1537 10.5567 58.3164 10.4367 58.4365C10.3167 58.5565 10.1539 58.6239 9.98417 58.6239Z" fill="#FF8A00"/>
<path d="M11.3922 54.656H1.02416C0.854422 54.656 0.691635 54.5885 0.571612 54.4685C0.451589 54.3485 0.38416 54.1857 0.38416 54.016C0.38416 53.8462 0.451589 53.6834 0.571612 53.5634C0.691635 53.4434 0.854422 53.376 1.02416 53.376H11.3922C11.5619 53.376 11.7247 53.4434 11.8447 53.5634C11.9647 53.6834 12.0322 53.8462 12.0322 54.016C12.0322 54.1857 11.9647 54.3485 11.8447 54.4685C11.7247 54.5885 11.5619 54.656 11.3922 54.656Z" fill="#FF8A00"/>
<path d="M31.4882 4.85369C31.3184 4.85369 31.1556 4.78626 31.0356 4.66624C30.9156 4.54621 30.8482 4.38343 30.8482 4.21369V0.76793C30.8482 0.598191 30.9156 0.435405 31.0356 0.315381C31.1556 0.195358 31.3184 0.12793 31.4882 0.12793C31.6579 0.12793 31.8207 0.195358 31.9407 0.315381C32.0607 0.435405 32.1282 0.598191 32.1282 0.76793V4.21369C32.1282 4.38343 32.0607 4.54621 31.9407 4.66624C31.8207 4.78626 31.6579 4.85369 31.4882 4.85369Z" fill="#FF8A00"/>
<path d="M31.4882 34.1758C31.3184 34.1758 31.1556 34.1084 31.0356 33.9884C30.9156 33.8684 30.8482 33.7056 30.8482 33.5358V30.0901C30.8482 29.9203 30.9156 29.7576 31.0356 29.6375C31.1556 29.5175 31.3184 29.4501 31.4882 29.4501C31.6579 29.4501 31.8207 29.5175 31.9407 29.6375C32.0607 29.7576 32.1282 29.9203 32.1282 30.0901V33.5358C32.1282 33.7056 32.0607 33.8684 31.9407 33.9884C31.8207 34.1084 31.6579 34.1758 31.4882 34.1758Z" fill="#FF8A00"/>
<path d="M47.8721 17.7919H44.4263C44.2566 17.7919 44.0938 17.7245 43.9738 17.6045C43.8537 17.4845 43.7863 17.3217 43.7863 17.1519C43.7863 16.9822 43.8537 16.8194 43.9738 16.6994C44.0938 16.5794 44.2566 16.5119 44.4263 16.5119H47.8721C48.0418 16.5119 48.2046 16.5794 48.3246 16.6994C48.4446 16.8194 48.5121 16.9822 48.5121 17.1519C48.5121 17.3217 48.4446 17.4845 48.3246 17.6045C48.2046 17.7245 48.0418 17.7919 47.8721 17.7919Z" fill="#FF8A00"/>
<path d="M18.5499 17.7919H15.1042C14.9344 17.7919 14.7716 17.7245 14.6516 17.6045C14.5316 17.4845 14.4642 17.3217 14.4642 17.1519C14.4642 16.9822 14.5316 16.8194 14.6516 16.6994C14.7716 16.5794 14.9344 16.5119 15.1042 16.5119H18.5499C18.7197 16.5119 18.8824 16.5794 19.0025 16.6994C19.1225 16.8194 19.1899 16.9822 19.1899 17.1519C19.1899 17.3217 19.1225 17.4845 19.0025 17.6045C18.8824 17.7245 18.7197 17.7919 18.5499 17.7919Z" fill="#FF8A00"/>
<path d="M22.3387 8.6425C22.1698 8.64212 22.0078 8.57494 21.8882 8.45562L19.4562 6.01594C19.3637 5.89269 19.3188 5.74024 19.3298 5.58657C19.3407 5.4329 19.4067 5.28832 19.5156 5.17939C19.6245 5.07045 19.7691 5.00447 19.9228 4.99355C20.0765 4.98263 20.2289 5.0275 20.3522 5.11994L22.7842 7.55194C22.8735 7.64151 22.9342 7.75554 22.9587 7.87962C22.9833 8.0037 22.9705 8.13227 22.922 8.24909C22.8735 8.36592 22.7915 8.46575 22.6863 8.536C22.5812 8.60625 22.4575 8.64375 22.331 8.64378L22.3387 8.6425Z" fill="#FF8A00"/>
<path d="M43.0735 29.3773C42.9894 29.3774 42.9061 29.361 42.8284 29.3289C42.7506 29.2969 42.6799 29.2498 42.6204 29.1904L40.1884 26.7584C40.0718 26.6377 40.0073 26.476 40.0088 26.3082C40.0102 26.1404 40.0775 25.9799 40.1962 25.8612C40.3148 25.7426 40.4754 25.6753 40.6432 25.6738C40.811 25.6723 40.9726 25.7369 41.0934 25.8534L43.5254 28.2854C43.6151 28.3749 43.6762 28.4891 43.701 28.6134C43.7258 28.7377 43.7131 28.8665 43.6646 28.9836C43.6161 29.1007 43.5339 29.2007 43.4284 29.2711C43.3229 29.3414 43.199 29.3788 43.0722 29.3785L43.0735 29.3773Z" fill="#FF8A00"/>
<path d="M40.6377 8.64237C40.5114 8.6421 40.3881 8.6045 40.2832 8.53432C40.1783 8.46414 40.0965 8.3645 40.048 8.24794C39.9996 8.13138 39.9867 8.0031 40.011 7.87924C40.0353 7.75537 40.0957 7.64146 40.1845 7.55182L42.6165 5.11982C42.7379 5.01203 42.8957 4.95438 43.058 4.95855C43.2202 4.96272 43.3749 5.0284 43.4905 5.14228C43.6062 5.25616 43.6743 5.40974 43.681 5.57193C43.6877 5.73411 43.6325 5.89278 43.5266 6.01582L41.0946 8.44781C41.0353 8.50906 40.9643 8.55782 40.8858 8.59123C40.8073 8.62464 40.7229 8.64203 40.6377 8.64237Z" fill="#FF8A00"/>
<path d="M19.903 29.3772C19.7776 29.3755 19.6554 29.3369 19.5518 29.2663C19.4481 29.1957 19.3674 29.0962 19.3199 28.9801C19.2723 28.8641 19.2598 28.7366 19.2841 28.6136C19.3083 28.4905 19.3682 28.3773 19.4563 28.288L21.8883 25.856C22.009 25.7394 22.1706 25.6749 22.3384 25.6763C22.5062 25.6778 22.6668 25.7451 22.7854 25.8638C22.9041 25.9824 22.9714 26.1429 22.9729 26.3107C22.9743 26.4785 22.9098 26.6402 22.7932 26.7609L20.3612 29.1929C20.3009 29.2525 20.2293 29.2994 20.1506 29.3311C20.0719 29.3627 19.9878 29.3784 19.903 29.3772Z" fill="#FF8A00"/>
<path d="M26.5986 5.87392C26.4715 5.87395 26.3472 5.8361 26.2416 5.7652C26.1361 5.6943 26.054 5.59356 26.006 5.47584L25.2457 3.61216C25.1817 3.45481 25.1828 3.27849 25.2488 3.12198C25.3148 2.96547 25.4403 2.84159 25.5977 2.7776C25.755 2.71361 25.9313 2.71475 26.0878 2.78076C26.2443 2.84677 26.3682 2.97225 26.4322 3.1296L27.1913 4.992C27.2309 5.0892 27.2461 5.19466 27.2354 5.2991C27.2247 5.40354 27.1885 5.50375 27.1299 5.59089C27.0714 5.67802 26.9923 5.74942 26.8996 5.79878C26.807 5.84814 26.7036 5.87394 26.5986 5.87392Z" fill="#FF8A00"/>
<path d="M37.1407 31.7439C37.0135 31.744 36.8892 31.7061 36.7837 31.6352C36.6781 31.5643 36.5961 31.4636 36.548 31.3459L35.7122 29.3119C35.6482 29.1546 35.6493 28.9783 35.7153 28.8218C35.7814 28.6653 35.9068 28.5414 36.0642 28.4774C36.2215 28.4134 36.3979 28.4145 36.5544 28.4805C36.7109 28.5466 36.8347 28.672 36.8987 28.8294L37.7282 30.8659C37.7679 30.9631 37.783 31.0685 37.7723 31.173C37.7616 31.2774 37.7254 31.3776 37.6669 31.4647C37.6083 31.5519 37.5292 31.6233 37.4366 31.6726C37.3439 31.722 37.2405 31.7478 37.1355 31.7478L37.1407 31.7439Z" fill="#FF8A00"/>
<path d="M43.5073 12.8958C43.3583 12.8966 43.2137 12.8454 43.0984 12.7511C42.9832 12.6567 42.9044 12.5251 42.8757 12.379C42.8471 12.2328 42.8703 12.0812 42.9414 11.9503C43.0126 11.8194 43.1271 11.7174 43.2654 11.6619L45.1277 10.9029C45.2851 10.8387 45.4615 10.8397 45.6181 10.9056C45.7747 10.9715 45.8988 11.0969 45.9629 11.2542C46.0271 11.4116 46.0261 11.588 45.9602 11.7446C45.8943 11.9012 45.7689 12.0252 45.6116 12.0894L43.7479 12.8484C43.6715 12.8796 43.5898 12.8957 43.5073 12.8958Z" fill="#FF8A00"/>
<path d="M17.49 23.4982C17.3416 23.4983 17.1978 23.4468 17.0832 23.3525C16.9686 23.2582 16.8903 23.1271 16.8617 22.9814C16.8331 22.8358 16.856 22.6848 16.9265 22.5542C16.997 22.4236 17.1107 22.3216 17.2481 22.2655L19.2858 21.4361C19.4422 21.376 19.616 21.3797 19.7697 21.4463C19.9234 21.5128 20.0449 21.637 20.1081 21.7922C20.1713 21.9474 20.1711 22.1211 20.1076 22.2762C20.0441 22.4312 19.9223 22.5551 19.7684 22.6214L17.7306 23.4508C17.6542 23.482 17.5725 23.4981 17.49 23.4982Z" fill="#FF8A00"/>
<path d="M19.524 12.8063C19.4388 12.8058 19.3544 12.7889 19.2757 12.7564L17.4222 11.9756C17.2657 11.9095 17.1419 11.7841 17.0779 11.6267C17.0139 11.4694 17.0151 11.293 17.0811 11.1365C17.1471 10.98 17.2726 10.8562 17.43 10.7922C17.5873 10.7282 17.7636 10.7294 17.9201 10.7954L19.7736 11.5762C19.9099 11.6335 20.0222 11.7361 20.0914 11.8668C20.1606 11.9974 20.1824 12.148 20.1531 12.2929C20.1239 12.4379 20.0453 12.5682 19.9309 12.6618C19.8164 12.7553 19.6731 12.8064 19.5253 12.8063H19.524Z" fill="#FF8A00"/>
<path d="M45.2738 23.6454C45.1885 23.6458 45.104 23.6288 45.0255 23.5955L42.9979 22.7417C42.9205 22.7091 42.8501 22.6616 42.791 22.6018C42.7319 22.542 42.6852 22.4712 42.6534 22.3933C42.6217 22.3155 42.6056 22.2321 42.6061 22.1481C42.6065 22.064 42.6236 21.9808 42.6562 21.9033C42.6888 21.8259 42.7363 21.7556 42.7961 21.6964C42.8559 21.6373 42.9267 21.5906 43.0046 21.5588C43.0825 21.5271 43.1658 21.511 43.2499 21.5115C43.3339 21.512 43.4171 21.529 43.4946 21.5616L45.5221 22.4153C45.6584 22.4726 45.7707 22.5753 45.8399 22.7059C45.9091 22.8366 45.9309 22.9871 45.9016 23.1321C45.8724 23.277 45.7939 23.4073 45.6794 23.5009C45.5649 23.5945 45.4216 23.6455 45.2738 23.6454Z" fill="#FF8A00"/>
<path d="M36.4458 5.81494C36.3605 5.81457 36.2762 5.79762 36.1974 5.76502C36.0411 5.69896 35.9175 5.57353 35.8536 5.41631C35.7898 5.25909 35.791 5.08295 35.857 4.92662L36.6365 3.0719C36.6691 2.99441 36.7166 2.9241 36.7764 2.86499C36.8362 2.80588 36.907 2.75912 36.9849 2.72738C37.0627 2.69565 37.1461 2.67956 37.2302 2.68003C37.3142 2.6805 37.3974 2.69753 37.4749 2.73014C37.5524 2.76275 37.6227 2.8103 37.6818 2.87009C37.7409 2.92987 37.7877 3.00071 37.8194 3.07856C37.8511 3.15641 37.8672 3.23975 37.8667 3.32382C37.8663 3.4079 37.8492 3.49105 37.8166 3.56854L37.0358 5.42198C36.9871 5.53834 36.9052 5.63772 36.8002 5.70763C36.6952 5.77754 36.5719 5.81488 36.4458 5.81494Z" fill="#FF8A00"/>
<path d="M25.5465 31.7093C25.4613 31.709 25.3769 31.692 25.2982 31.6594C25.2207 31.6268 25.1504 31.5793 25.0912 31.5195C25.0321 31.4597 24.9853 31.3889 24.9536 31.311C24.9219 31.2331 24.9058 31.1498 24.9063 31.0657C24.9068 30.9816 24.9238 30.8985 24.9564 30.821L25.8102 28.7999C25.8428 28.7224 25.8904 28.6521 25.9501 28.593C26.0099 28.5338 26.0808 28.4871 26.1586 28.4553C26.2365 28.4236 26.3198 28.4075 26.4039 28.408C26.4879 28.4085 26.5711 28.4255 26.6486 28.4581C26.7261 28.4907 26.7964 28.5383 26.8555 28.598C26.9146 28.6578 26.9614 28.7287 26.9931 28.8065C27.0248 28.8844 27.0409 28.9677 27.0405 29.0518C27.04 29.1359 27.023 29.219 26.9903 29.2965L26.1366 31.324C26.0867 31.439 26.0042 31.5367 25.8994 31.6052C25.7945 31.6737 25.6718 31.7099 25.5465 31.7093Z" fill="#FF8A00"/>
<path d="M31.6288 21.9776C29.4733 21.9776 28.0538 20.8934 28.0039 19.1987C27.9988 19.029 28.0613 18.8642 28.1778 18.7405C28.2942 18.6169 28.4549 18.5446 28.6247 18.5395C28.7944 18.5344 28.9592 18.597 29.0828 18.7134C29.2065 18.8298 29.2788 18.9906 29.2839 19.1603C29.3261 20.576 30.9863 20.7066 31.698 20.6963C32.4096 20.6861 33.0701 20.4147 33.4272 20.0038C33.5427 19.8727 33.6275 19.7174 33.6753 19.5493C33.7232 19.3813 33.7329 19.2046 33.7037 19.0323C33.6384 18.5344 33.3402 18.1619 32.0973 17.9584L31.7351 17.9034C30.6612 17.7408 29.4452 17.5578 28.6157 16.384C28.4517 16.1565 28.3358 15.898 28.2751 15.6242C28.2143 15.3504 28.21 15.0672 28.2624 14.7917C28.424 14.0415 28.8741 13.385 29.5156 12.9638C30.4384 12.3379 31.8541 12.2419 33.0355 12.727C33.4602 12.8974 33.846 13.1518 34.17 13.4749C34.494 13.798 34.7494 14.1832 34.921 14.6074C34.9543 14.6861 34.9715 14.7708 34.9715 14.8563C34.9715 14.9418 34.9544 15.0264 34.9212 15.1052C34.888 15.184 34.8393 15.2554 34.778 15.315C34.7168 15.3747 34.6442 15.4215 34.5645 15.4526C34.4849 15.4838 34.3998 15.4986 34.3143 15.4963C34.2289 15.494 34.1447 15.4746 34.0668 15.4393C33.989 15.4039 33.919 15.3533 33.861 15.2904C33.8031 15.2276 33.7583 15.1537 33.7293 15.0733C33.6198 14.811 33.4592 14.5731 33.2568 14.3736C33.0544 14.174 32.8143 14.0168 32.5504 13.911C31.7607 13.5872 30.8084 13.6333 30.2336 14.0237C29.8788 14.254 29.6245 14.6103 29.522 15.0208C29.5004 15.1288 29.5015 15.2401 29.5253 15.3477C29.5491 15.4552 29.5951 15.5566 29.6602 15.6454C30.1504 16.3379 30.8404 16.4736 31.9258 16.6374C32.0538 16.6566 32.1818 16.6746 32.3034 16.695C32.9063 16.7936 34.7354 17.0931 34.9722 18.871C35.0249 19.2225 35.0004 19.5812 34.9005 19.9223C34.8006 20.2633 34.6276 20.5786 34.3936 20.8461C33.792 21.5424 32.7898 21.9661 31.7146 21.9801L31.6288 21.9776Z" stroke="#FF8A00" stroke-width="0.7"/>
<path d="M31.6162 13.696C31.4465 13.696 31.2837 13.6285 31.1637 13.5085C31.0436 13.3885 30.9762 13.2257 30.9762 13.056V11.136C30.9762 10.9662 31.0436 10.8034 31.1637 10.6834C31.2837 10.5634 31.4465 10.496 31.6162 10.496C31.7859 10.496 31.9487 10.5634 32.0687 10.6834C32.1888 10.8034 32.2562 10.9662 32.2562 11.136V13.056C32.2562 13.2257 32.1888 13.3885 32.0687 13.5085C31.9487 13.6285 31.7859 13.696 31.6162 13.696Z" stroke="#FF8A00" stroke-width="0.7"/>
<path d="M31.4882 23.936C31.3184 23.936 31.1556 23.8685 31.0356 23.7485C30.9156 23.6285 30.8482 23.4657 30.8482 23.296V21.376C30.8482 21.2062 30.9156 21.0434 31.0356 20.9234C31.1556 20.8034 31.3184 20.736 31.4882 20.736C31.6579 20.736 31.8207 20.8034 31.9407 20.9234C32.0607 21.0434 32.1282 21.2062 32.1282 21.376V23.296C32.1282 23.4657 32.0607 23.6285 31.9407 23.7485C31.8207 23.8685 31.6579 23.936 31.4882 23.936Z" stroke="#FF8A00" stroke-width="0.7"/>
<path d="M31.6277 27.5339C29.5546 27.5334 27.5283 26.9182 25.8049 25.7661C24.0815 24.6141 22.7384 22.9768 21.9454 21.0615C21.1525 19.1461 20.9453 17.0386 21.35 15.0055C21.7547 12.9724 22.7533 11.1049 24.2193 9.63924C25.6853 8.17357 27.553 7.17552 29.5862 6.77128C31.6195 6.36704 33.7269 6.57477 35.6421 7.36819C37.5572 8.16162 39.1941 9.50512 40.3458 11.2288C41.4975 12.9525 42.1121 14.979 42.1121 17.052C42.1084 19.8313 41.0025 22.4956 39.037 24.4606C37.0716 26.4256 34.4069 27.5309 31.6277 27.5339ZM31.6277 7.85006C29.8078 7.85057 28.0289 8.39068 26.516 9.40211C25.0031 10.4135 23.8241 11.8509 23.128 13.5323C22.4319 15.2138 22.2501 17.0639 22.6054 18.8488C22.9608 20.6336 23.8374 22.273 25.1244 23.5596C26.4114 24.8463 28.051 25.7224 29.836 26.0773C31.6209 26.4321 33.471 26.2497 35.1522 25.5532C36.8335 24.8567 38.2705 23.6772 39.2815 22.164C40.2925 20.6508 40.8321 18.8718 40.8321 17.052C40.8284 14.6122 39.8574 12.2734 38.1319 10.5485C36.4065 8.82349 34.0675 7.85311 31.6277 7.85006Z" stroke="#FF8A00" stroke-width="0.7"/>
<path d="M62.2081 30.0799H49.9201C49.7504 30.0799 49.5876 30.0125 49.4676 29.8925C49.3476 29.7724 49.2801 29.6096 49.2801 29.4399C49.2801 29.2702 49.3476 29.1074 49.4676 28.9874C49.5876 28.8673 49.7504 28.7999 49.9201 28.7999H62.2081C62.3779 28.7999 62.5407 28.8673 62.6607 28.9874C62.7807 29.1074 62.8481 29.2702 62.8481 29.4399C62.8481 29.6096 62.7807 29.7724 62.6607 29.8925C62.5407 30.0125 62.3779 30.0799 62.2081 30.0799Z" stroke="#FF8A00" stroke-width="0.7"/>
<path d="M62.2082 46.336H59.3922C59.2224 46.336 59.0597 46.2685 58.9396 46.1485C58.8196 46.0285 58.7522 45.8657 58.7522 45.696C58.7522 45.5262 58.8196 45.3634 58.9396 45.2434C59.0597 45.1234 59.2224 45.056 59.3922 45.056H62.2082C62.3779 45.056 62.5407 45.1234 62.6607 45.2434C62.7808 45.3634 62.8482 45.5262 62.8482 45.696C62.8482 45.8657 62.7808 46.0285 62.6607 46.1485C62.5407 46.2685 62.3779 46.336 62.2082 46.336Z" stroke="#FF8A00" stroke-width="0.7"/>
<path d="M56.9601 46.336H44.8001C44.6304 46.336 44.4676 46.2685 44.3476 46.1485C44.2276 46.0285 44.1601 45.8657 44.1601 45.696C44.1601 45.5262 44.2276 45.3634 44.3476 45.2434C44.4676 45.1234 44.6304 45.056 44.8001 45.056H56.9601C57.1299 45.056 57.2927 45.1234 57.4127 45.2434C57.5327 45.3634 57.6001 45.5262 57.6001 45.696C57.6001 45.8657 57.5327 46.0285 57.4127 46.1485C57.2927 46.2685 57.1299 46.336 56.9601 46.336Z" stroke="#FF8A00" stroke-width="0.7"/>
<path d="M62.2082 50.5599H59.3922C59.2224 50.5599 59.0597 50.4925 58.9396 50.3724C58.8196 50.2524 58.7522 50.0896 58.7522 49.9199C58.7522 49.7502 58.8196 49.5874 58.9396 49.4674C59.0597 49.3473 59.2224 49.2799 59.3922 49.2799H62.2082C62.3779 49.2799 62.5407 49.3473 62.6607 49.4674C62.7808 49.5874 62.8482 49.7502 62.8482 49.9199C62.8482 50.0896 62.7808 50.2524 62.6607 50.3724C62.5407 50.4925 62.3779 50.5599 62.2082 50.5599Z" stroke="#FF8A00" stroke-width="0.7"/>
<path d="M62.2082 54.5279H57.0882C56.9184 54.5279 56.7556 54.4605 56.6356 54.3405C56.5156 54.2205 56.4482 54.0577 56.4482 53.8879C56.4482 53.7182 56.5156 53.5554 56.6356 53.4354C56.7556 53.3154 56.9184 53.2479 57.0882 53.2479H62.2082C62.3779 53.2479 62.5407 53.3154 62.6607 53.4354C62.7807 53.5554 62.8482 53.7182 62.8482 53.8879C62.8482 54.0577 62.7807 54.2205 62.6607 54.3405C62.5407 54.4605 62.3779 54.5279 62.2082 54.5279Z" stroke="#FF8A00" stroke-width="0.7"/>
<path d="M62.2081 58.7519H56.9601C56.7904 58.7519 56.6276 58.6845 56.5076 58.5645C56.3876 58.4445 56.3201 58.2817 56.3201 58.1119C56.3201 57.9422 56.3876 57.7794 56.5076 57.6594C56.6276 57.5394 56.7904 57.4719 56.9601 57.4719H62.2081C62.3779 57.4719 62.5407 57.5394 62.6607 57.6594C62.7807 57.7794 62.8481 57.9422 62.8481 58.1119C62.8481 58.2817 62.7807 58.4445 62.6607 58.5645C62.5407 58.6845 62.3779 58.7519 62.2081 58.7519Z" stroke="#FF8A00" stroke-width="0.7"/>
<path d="M56.9602 50.5599H45.6962C45.5265 50.5599 45.3637 50.4925 45.2437 50.3724C45.1236 50.2524 45.0562 50.0896 45.0562 49.9199C45.0562 49.7502 45.1236 49.5874 45.2437 49.4674C45.3637 49.3473 45.5265 49.2799 45.6962 49.2799H56.9602C57.1299 49.2799 57.2927 49.3473 57.4127 49.4674C57.5328 49.5874 57.6002 49.7502 57.6002 49.9199C57.6002 50.0896 57.5328 50.2524 57.4127 50.3724C57.2927 50.4925 57.1299 50.5599 56.9602 50.5599Z" stroke="#FF8A00" stroke-width="0.7"/>
<path d="M62.2082 42.3679H59.3922C59.2224 42.3679 59.0597 42.3005 58.9396 42.1805C58.8196 42.0605 58.7522 41.8977 58.7522 41.7279C58.7522 41.5582 58.8196 41.3954 58.9396 41.2754C59.0597 41.1554 59.2224 41.0879 59.3922 41.0879H62.2082C62.3779 41.0879 62.5407 41.1554 62.6607 41.2754C62.7808 41.3954 62.8482 41.5582 62.8482 41.7279C62.8482 41.8977 62.7808 42.0605 62.6607 42.1805C62.5407 42.3005 62.3779 42.3679 62.2082 42.3679Z" stroke="#FF8A00" stroke-width="0.7"/>
<path d="M56.9601 42.3679H44.8001C44.6304 42.3679 44.4676 42.3005 44.3476 42.1805C44.2276 42.0605 44.1601 41.8977 44.1601 41.7279C44.1601 41.5582 44.2276 41.3954 44.3476 41.2754C44.4676 41.1554 44.6304 41.0879 44.8001 41.0879H56.9601C57.1299 41.0879 57.2927 41.1554 57.4127 41.2754C57.5327 41.3954 57.6001 41.5582 57.6001 41.7279C57.6001 41.8977 57.5327 42.0605 57.4127 42.1805C57.2927 42.3005 57.1299 42.3679 56.9601 42.3679Z" stroke="#FF8A00" stroke-width="0.7"/>
<path d="M62.2082 38.2719H59.3922C59.2224 38.2719 59.0597 38.2045 58.9396 38.0845C58.8196 37.9645 58.7522 37.8017 58.7522 37.6319C58.7522 37.4622 58.8196 37.2994 58.9396 37.1794C59.0597 37.0594 59.2224 36.9919 59.3922 36.9919H62.2082C62.3779 36.9919 62.5407 37.0594 62.6607 37.1794C62.7808 37.2994 62.8482 37.4622 62.8482 37.6319C62.8482 37.8017 62.7808 37.9645 62.6607 38.0845C62.5407 38.2045 62.3779 38.2719 62.2082 38.2719Z" stroke="#FF8A00" stroke-width="0.7"/>
<path d="M62.2082 34.176H59.3922C59.2224 34.176 59.0597 34.1085 58.9396 33.9885C58.8196 33.8685 58.7522 33.7057 58.7522 33.536C58.7522 33.3662 58.8196 33.2034 58.9396 33.0834C59.0597 32.9634 59.2224 32.896 59.3922 32.896H62.2082C62.3779 32.896 62.5407 32.9634 62.6607 33.0834C62.7808 33.2034 62.8482 33.3662 62.8482 33.536C62.8482 33.7057 62.7808 33.8685 62.6607 33.9885C62.5407 34.1085 62.3779 34.176 62.2082 34.176Z" stroke="#FF8A00" stroke-width="0.7"/>
<path d="M56.9601 38.2719H44.8001C44.6304 38.2719 44.4676 38.2045 44.3476 38.0845C44.2276 37.9645 44.1601 37.8017 44.1601 37.6319C44.1601 37.4622 44.2276 37.2994 44.3476 37.1794C44.4676 37.0594 44.6304 36.9919 44.8001 36.9919H56.9601C57.1299 36.9919 57.2927 37.0594 57.4127 37.1794C57.5327 37.2994 57.6001 37.4622 57.6001 37.6319C57.6001 37.8017 57.5327 37.9645 57.4127 38.0845C57.2927 38.2045 57.1299 38.2719 56.9601 38.2719Z" stroke="#FF8A00" stroke-width="0.7"/>
<path d="M56.9601 58.6239H53.1201C52.9504 58.6239 52.7876 58.5565 52.6676 58.4365C52.5476 58.3164 52.4801 58.1537 52.4801 57.9839C52.4801 57.8142 52.5476 57.6514 52.6676 57.5314C52.7876 57.4113 52.9504 57.3439 53.1201 57.3439H56.9601C57.1299 57.3439 57.2927 57.4113 57.4127 57.5314C57.5327 57.6514 57.6001 57.8142 57.6001 57.9839C57.6001 58.1537 57.5327 58.3164 57.4127 58.4365C57.2927 58.5565 57.1299 58.6239 56.9601 58.6239Z" stroke="#FF8A00" stroke-width="0.7"/>
<path d="M62.3361 62.848H49.9201C49.7504 62.848 49.5876 62.7805 49.4676 62.6605C49.3476 62.5405 49.2801 62.3777 49.2801 62.208C49.2801 62.0382 49.3476 61.8754 49.4676 61.7554C49.5876 61.6354 49.7504 61.568 49.9201 61.568H61.6961V25.856H50.5601V33.536C50.5601 33.7057 50.4927 33.8685 50.3727 33.9885C50.2527 34.1085 50.0899 34.176 49.9201 34.176C49.7504 34.176 49.5876 34.1085 49.4676 33.9885C49.3476 33.8685 49.2801 33.7057 49.2801 33.536V25.216C49.2801 25.0462 49.3476 24.8834 49.4676 24.7634C49.5876 24.6434 49.7504 24.576 49.9201 24.576H62.3361C62.5059 24.576 62.6687 24.6434 62.7887 24.7634C62.9087 24.8834 62.9761 25.0462 62.9761 25.216V62.208C62.9761 62.3777 62.9087 62.5405 62.7887 62.6605C62.6687 62.7805 62.5059 62.848 62.3361 62.848Z" stroke="#FF8A00" stroke-width="0.7"/>
<path d="M57.0882 62.848C56.9184 62.848 56.7557 62.7805 56.6356 62.6605C56.5156 62.5405 56.4482 62.3777 56.4482 62.208V34.176H45.3122V45.696C45.3122 45.8657 45.2448 46.0285 45.1247 46.1485C45.0047 46.2685 44.8419 46.336 44.6722 46.336C44.5024 46.336 44.3397 46.2685 44.2196 46.1485C44.0996 46.0285 44.0322 45.8657 44.0322 45.696V33.536C44.0322 33.3662 44.0996 33.2034 44.2196 33.0834C44.3397 32.9634 44.5024 32.896 44.6722 32.896H57.0882C57.2579 32.896 57.4207 32.9634 57.5407 33.0834C57.6608 33.2034 57.7282 33.3662 57.7282 33.536V62.208C57.7282 62.3777 57.6608 62.5405 57.5407 62.6605C57.4207 62.7805 57.2579 62.848 57.0882 62.848Z" stroke="#FF8A00" stroke-width="0.7"/>
<path d="M39.0144 46.3782H24.0384C23.9425 46.378 23.8478 46.3563 23.7614 46.3146C23.675 46.273 23.5991 46.2124 23.5392 46.1375C23.4794 46.0625 23.4372 45.975 23.4157 45.8815C23.3942 45.7881 23.394 45.6909 23.4151 45.5974L25.2839 37.3618C25.3161 37.2203 25.3955 37.0939 25.509 37.0035C25.6225 36.913 25.7634 36.8638 25.9085 36.8639H37.2532C37.4005 36.8642 37.5432 36.9153 37.6572 37.0085C37.7713 37.1018 37.8496 37.2316 37.8791 37.3759L39.6365 45.6101C39.6555 45.703 39.6536 45.799 39.6309 45.891C39.6083 45.9831 39.5655 46.069 39.5056 46.1425C39.4457 46.216 39.3702 46.2752 39.2846 46.316C39.199 46.3568 39.1054 46.378 39.0106 46.3782H39.0144ZM24.8448 45.0982H38.2234L36.736 38.1439H26.4192L24.8448 45.0982Z" stroke="#FF8A00" stroke-width="0.7"/>
<path d="M39.0147 62.848H24.0387C23.9426 62.8479 23.8478 62.8262 23.7613 62.7845C23.6747 62.7427 23.5987 62.6821 23.5389 62.607C23.479 62.5318 23.4368 62.4442 23.4154 62.3505C23.394 62.2569 23.394 62.1596 23.4153 62.066L25.2841 53.8317C25.3163 53.6902 25.3957 53.5638 25.5092 53.4734C25.6227 53.3829 25.7636 53.3337 25.9087 53.3338H37.2534C37.3998 53.3338 37.5418 53.3839 37.6557 53.4759C37.7696 53.568 37.8486 53.6962 37.8793 53.8394L39.6406 62.08C39.6596 62.1729 39.6576 62.2689 39.635 62.3609C39.6123 62.453 39.5695 62.5389 39.5096 62.6124C39.4497 62.6859 39.3743 62.7451 39.2887 62.7859C39.2031 62.8266 39.1095 62.8479 39.0147 62.848ZM24.8451 61.5681H38.2236L36.7363 54.6138H26.4195L24.8451 61.5681Z" stroke="#FF8A00" stroke-width="0.7"/>
<path d="M9.08833 62.848C8.99227 62.8479 8.89746 62.8262 8.81094 62.7845C8.72442 62.7427 8.6484 62.6821 8.58852 62.607C8.52865 62.5318 8.48645 62.4442 8.46507 62.3505C8.44368 62.2569 8.44364 62.1596 8.46497 62.066L10.3338 53.8317C10.366 53.6902 10.4454 53.5638 10.5589 53.4734C10.6724 53.3829 10.8133 53.3337 10.9584 53.3338H22.3107C22.4571 53.3338 22.5992 53.3839 22.7131 53.4759C22.827 53.568 22.9059 53.6962 22.9366 53.8394L24.6928 62.08C24.7118 62.1729 24.7098 62.2689 24.6872 62.3609C24.6645 62.453 24.6217 62.5389 24.5618 62.6124C24.5019 62.6859 24.4265 62.7451 24.3409 62.7859C24.2553 62.8266 24.1617 62.8479 24.0669 62.848H9.08833ZM9.89729 61.5681H23.2771L21.7936 54.6138H11.4768L9.89729 61.5681Z" stroke="#FF8A00" stroke-width="0.7"/>
<path d="M46.4872 54.6136H31.5112C31.415 54.6136 31.32 54.5921 31.2334 54.5504C31.1467 54.5088 31.0705 54.4481 31.0105 54.373C30.9505 54.2978 30.9082 54.2101 30.8867 54.1164C30.8652 54.0226 30.8652 53.9252 30.8865 53.8315L32.7681 45.5972C32.8001 45.4555 32.8794 45.3288 32.9929 45.2381C33.1064 45.1474 33.2474 45.098 33.3928 45.098H44.7374C44.8847 45.0983 45.0274 45.1494 45.1415 45.2427C45.2555 45.3359 45.3339 45.4657 45.3633 45.61L47.1195 53.8443C47.1395 53.9376 47.1384 54.0343 47.1163 54.1271C47.0942 54.22 47.0515 54.3067 46.9915 54.381C46.9315 54.4552 46.8556 54.5151 46.7695 54.5562C46.6833 54.5974 46.589 54.6187 46.4936 54.6187L46.4872 54.6136ZM32.3176 53.3336H45.6961L44.2126 46.378H33.8971L32.3176 53.3336Z" stroke="#FF8A00" stroke-width="0.7"/>
<path d="M31.5406 54.6136H16.5646C16.4685 54.6136 16.3735 54.5921 16.2868 54.5504C16.2001 54.5088 16.124 54.4481 16.0639 54.373C16.0039 54.2978 15.9616 54.2101 15.9402 54.1164C15.9187 54.0226 15.9186 53.9252 15.94 53.8315L17.8101 45.5972C17.842 45.4557 17.9211 45.3292 18.0343 45.2385C18.1476 45.1478 18.2883 45.0983 18.4334 45.098H29.7794C29.9267 45.0983 30.0694 45.1494 30.1834 45.2427C30.2974 45.3359 30.3758 45.4657 30.4053 45.61L32.1614 53.8443C32.1815 53.9376 32.1804 54.0343 32.1582 54.1271C32.1361 54.22 32.0935 54.3067 32.0334 54.381C31.9734 54.4552 31.8976 54.5151 31.8114 54.5562C31.7253 54.5974 31.631 54.6187 31.5355 54.6187L31.5406 54.6136ZM17.371 53.3336H30.7496L29.2661 46.378H18.9505L17.371 53.3336Z" stroke="#FF8A00" stroke-width="0.7"/>
<path d="M53.9613 62.848H38.9852C38.8891 62.8481 38.7941 62.8266 38.7074 62.7849C38.6207 62.7433 38.5446 62.6826 38.4845 62.6075C38.4245 62.5323 38.3822 62.4446 38.3608 62.3509C38.3393 62.2571 38.3392 62.1597 38.3606 62.066L40.2307 53.8317C40.2628 53.6904 40.342 53.5642 40.4553 53.4738C40.5685 53.3833 40.7091 53.334 40.854 53.3338H57.0883C57.258 53.3338 57.4208 53.4012 57.5408 53.5213C57.6609 53.6413 57.7283 53.8041 57.7283 53.9738C57.7283 54.1435 57.6609 54.3063 57.5408 54.4264C57.4208 54.5464 57.258 54.6138 57.0883 54.6138H53.0051L54.5872 62.08C54.6061 62.1729 54.6042 62.2689 54.5816 62.3609C54.5589 62.453 54.5161 62.5389 54.4562 62.6124C54.3963 62.6859 54.3208 62.7451 54.2352 62.7859C54.1496 62.8266 54.0561 62.8479 53.9613 62.848ZM39.7916 61.5681H53.1715L51.6969 54.6138H41.3699L39.7916 61.5681Z" stroke="#FF8A00" stroke-width="0.7"/>
<path d="M9.09585 62.8479H0.768174C0.598435 62.8479 0.435649 62.7805 0.315626 62.6605C0.195602 62.5405 0.128174 62.3777 0.128174 62.2079V33.4079C0.128174 33.2382 0.195602 33.0754 0.315626 32.9554C0.435649 32.8354 0.598435 32.7679 0.768174 32.7679H21.3762C21.5459 32.7679 21.7087 32.8354 21.8287 32.9554C21.9487 33.0754 22.0162 33.2382 22.0162 33.4079V45.6076C22.0162 45.7773 21.9487 45.9401 21.8287 46.0602C21.7087 46.1802 21.5459 46.2476 21.3762 46.2476C21.2064 46.2476 21.0436 46.1802 20.9236 46.0602C20.8036 45.9401 20.7362 45.7773 20.7362 45.6076V34.0479H1.40817V61.5679H9.09585C9.26559 61.5679 9.42838 61.6354 9.5484 61.7554C9.66843 61.8754 9.73585 62.0382 9.73585 62.2079C9.73585 62.3777 9.66843 62.5405 9.5484 62.6605C9.42838 62.7805 9.26559 62.8479 9.09585 62.8479Z" stroke="#FF8A00" stroke-width="0.7"/>
<path d="M21.3762 38.016H0.768174C0.598435 38.016 0.435649 37.9485 0.315626 37.8285C0.195602 37.7085 0.128174 37.5457 0.128174 37.376C0.128174 37.2062 0.195602 37.0434 0.315626 36.9234C0.435649 36.8034 0.598435 36.736 0.768174 36.736H21.3762C21.5459 36.736 21.7087 36.8034 21.8287 36.9234C21.9487 37.0434 22.0162 37.2062 22.0162 37.376C22.0162 37.5457 21.9487 37.7085 21.8287 37.8285C21.7087 37.9485 21.5459 38.016 21.3762 38.016Z" stroke="#FF8A00" stroke-width="0.7"/>
<path d="M21.3762 42.2399H0.768174C0.598435 42.2399 0.435649 42.1725 0.315626 42.0524C0.195602 41.9324 0.128174 41.7696 0.128174 41.5999C0.128174 41.4302 0.195602 41.2674 0.315626 41.1474C0.435649 41.0273 0.598435 40.9599 0.768174 40.9599H21.3762C21.5459 40.9599 21.7087 41.0273 21.8287 41.1474C21.9487 41.2674 22.0162 41.4302 22.0162 41.5999C22.0162 41.7696 21.9487 41.9324 21.8287 42.0524C21.7087 42.1725 21.5459 42.2399 21.3762 42.2399Z" stroke="#FF8A00" stroke-width="0.7"/>
<path d="M21.3762 46.336H0.768174C0.598435 46.336 0.435649 46.2685 0.315626 46.1485C0.195602 46.0285 0.128174 45.8657 0.128174 45.696C0.128174 45.5262 0.195602 45.3634 0.315626 45.2434C0.435649 45.1234 0.598435 45.056 0.768174 45.056H21.3762C21.5459 45.056 21.7087 45.1234 21.8287 45.2434C21.9487 45.3634 22.0162 45.5262 22.0162 45.696C22.0162 45.8657 21.9487 46.0285 21.8287 46.1485C21.7087 46.2685 21.5459 46.336 21.3762 46.336Z" stroke="#FF8A00" stroke-width="0.7"/>
<path d="M17.2802 50.5599H0.768174C0.598435 50.5599 0.435649 50.4925 0.315626 50.3724C0.195602 50.2524 0.128174 50.0896 0.128174 49.9199C0.128174 49.7502 0.195602 49.5874 0.315626 49.4674C0.435649 49.3473 0.598435 49.2799 0.768174 49.2799H17.2802C17.4499 49.2799 17.6127 49.3473 17.7327 49.4674C17.8527 49.5874 17.9202 49.7502 17.9202 49.9199C17.9202 50.0896 17.8527 50.2524 17.7327 50.3724C17.6127 50.4925 17.4499 50.5599 17.2802 50.5599Z" stroke="#FF8A00" stroke-width="0.7"/>
<path d="M9.98417 58.6239H0.768174C0.598435 58.6239 0.435649 58.5565 0.315626 58.4365C0.195602 58.3164 0.128174 58.1537 0.128174 57.9839C0.128174 57.8142 0.195602 57.6514 0.315626 57.5314C0.435649 57.4113 0.598435 57.3439 0.768174 57.3439H9.98417C10.1539 57.3439 10.3167 57.4113 10.4367 57.5314C10.5567 57.6514 10.6242 57.8142 10.6242 57.9839C10.6242 58.1537 10.5567 58.3164 10.4367 58.4365C10.3167 58.5565 10.1539 58.6239 9.98417 58.6239Z" stroke="#FF8A00" stroke-width="0.7"/>
<path d="M11.3922 54.656H1.02416C0.854422 54.656 0.691635 54.5885 0.571612 54.4685C0.451589 54.3485 0.38416 54.1857 0.38416 54.016C0.38416 53.8462 0.451589 53.6834 0.571612 53.5634C0.691635 53.4434 0.854422 53.376 1.02416 53.376H11.3922C11.5619 53.376 11.7247 53.4434 11.8447 53.5634C11.9647 53.6834 12.0322 53.8462 12.0322 54.016C12.0322 54.1857 11.9647 54.3485 11.8447 54.4685C11.7247 54.5885 11.5619 54.656 11.3922 54.656Z" stroke="#FF8A00" stroke-width="0.7"/>
<path d="M31.4882 4.85369C31.3184 4.85369 31.1556 4.78626 31.0356 4.66624C30.9156 4.54621 30.8482 4.38343 30.8482 4.21369V0.76793C30.8482 0.598191 30.9156 0.435405 31.0356 0.315381C31.1556 0.195358 31.3184 0.12793 31.4882 0.12793C31.6579 0.12793 31.8207 0.195358 31.9407 0.315381C32.0607 0.435405 32.1282 0.598191 32.1282 0.76793V4.21369C32.1282 4.38343 32.0607 4.54621 31.9407 4.66624C31.8207 4.78626 31.6579 4.85369 31.4882 4.85369Z" stroke="#FF8A00" stroke-width="0.7"/>
<path d="M31.4882 34.1758C31.3184 34.1758 31.1556 34.1084 31.0356 33.9884C30.9156 33.8684 30.8482 33.7056 30.8482 33.5358V30.0901C30.8482 29.9203 30.9156 29.7576 31.0356 29.6375C31.1556 29.5175 31.3184 29.4501 31.4882 29.4501C31.6579 29.4501 31.8207 29.5175 31.9407 29.6375C32.0607 29.7576 32.1282 29.9203 32.1282 30.0901V33.5358C32.1282 33.7056 32.0607 33.8684 31.9407 33.9884C31.8207 34.1084 31.6579 34.1758 31.4882 34.1758Z" stroke="#FF8A00" stroke-width="0.7"/>
<path d="M47.8721 17.7919H44.4263C44.2566 17.7919 44.0938 17.7245 43.9738 17.6045C43.8537 17.4845 43.7863 17.3217 43.7863 17.1519C43.7863 16.9822 43.8537 16.8194 43.9738 16.6994C44.0938 16.5794 44.2566 16.5119 44.4263 16.5119H47.8721C48.0418 16.5119 48.2046 16.5794 48.3246 16.6994C48.4446 16.8194 48.5121 16.9822 48.5121 17.1519C48.5121 17.3217 48.4446 17.4845 48.3246 17.6045C48.2046 17.7245 48.0418 17.7919 47.8721 17.7919Z" stroke="#FF8A00" stroke-width="0.7"/>
<path d="M18.5499 17.7919H15.1042C14.9344 17.7919 14.7716 17.7245 14.6516 17.6045C14.5316 17.4845 14.4642 17.3217 14.4642 17.1519C14.4642 16.9822 14.5316 16.8194 14.6516 16.6994C14.7716 16.5794 14.9344 16.5119 15.1042 16.5119H18.5499C18.7197 16.5119 18.8824 16.5794 19.0025 16.6994C19.1225 16.8194 19.1899 16.9822 19.1899 17.1519C19.1899 17.3217 19.1225 17.4845 19.0025 17.6045C18.8824 17.7245 18.7197 17.7919 18.5499 17.7919Z" stroke="#FF8A00" stroke-width="0.7"/>
<path d="M22.3387 8.6425C22.1698 8.64212 22.0078 8.57494 21.8882 8.45562L19.4562 6.01594C19.3637 5.89269 19.3188 5.74024 19.3298 5.58657C19.3407 5.4329 19.4067 5.28832 19.5156 5.17939C19.6245 5.07045 19.7691 5.00447 19.9228 4.99355C20.0765 4.98263 20.2289 5.0275 20.3522 5.11994L22.7842 7.55194C22.8735 7.64151 22.9342 7.75554 22.9587 7.87962C22.9833 8.0037 22.9705 8.13227 22.922 8.24909C22.8735 8.36592 22.7915 8.46575 22.6863 8.536C22.5812 8.60625 22.4575 8.64375 22.331 8.64378L22.3387 8.6425Z" stroke="#FF8A00" stroke-width="0.7"/>
<path d="M43.0735 29.3773C42.9894 29.3774 42.9061 29.361 42.8284 29.3289C42.7506 29.2969 42.6799 29.2498 42.6204 29.1904L40.1884 26.7584C40.0718 26.6377 40.0073 26.476 40.0088 26.3082C40.0102 26.1404 40.0775 25.9799 40.1962 25.8612C40.3148 25.7426 40.4754 25.6753 40.6432 25.6738C40.811 25.6723 40.9726 25.7369 41.0934 25.8534L43.5254 28.2854C43.6151 28.3749 43.6762 28.4891 43.701 28.6134C43.7258 28.7377 43.7131 28.8665 43.6646 28.9836C43.6161 29.1007 43.5339 29.2007 43.4284 29.2711C43.3229 29.3414 43.199 29.3788 43.0722 29.3785L43.0735 29.3773Z" stroke="#FF8A00" stroke-width="0.7"/>
<path d="M40.6377 8.64237C40.5114 8.6421 40.3881 8.6045 40.2832 8.53432C40.1783 8.46414 40.0965 8.3645 40.048 8.24794C39.9996 8.13138 39.9867 8.0031 40.011 7.87924C40.0353 7.75537 40.0957 7.64146 40.1845 7.55182L42.6165 5.11982C42.7379 5.01203 42.8957 4.95438 43.058 4.95855C43.2202 4.96272 43.3749 5.0284 43.4905 5.14228C43.6062 5.25616 43.6743 5.40974 43.681 5.57193C43.6877 5.73411 43.6325 5.89278 43.5266 6.01582L41.0946 8.44781C41.0353 8.50906 40.9643 8.55782 40.8858 8.59123C40.8073 8.62464 40.7229 8.64203 40.6377 8.64237Z" stroke="#FF8A00" stroke-width="0.7"/>
<path d="M19.903 29.3772C19.7776 29.3755 19.6554 29.3369 19.5518 29.2663C19.4481 29.1957 19.3674 29.0962 19.3199 28.9801C19.2723 28.8641 19.2598 28.7366 19.2841 28.6136C19.3083 28.4905 19.3682 28.3773 19.4563 28.288L21.8883 25.856C22.009 25.7394 22.1706 25.6749 22.3384 25.6763C22.5062 25.6778 22.6668 25.7451 22.7854 25.8638C22.9041 25.9824 22.9714 26.1429 22.9729 26.3107C22.9743 26.4785 22.9098 26.6402 22.7932 26.7609L20.3612 29.1929C20.3009 29.2525 20.2293 29.2994 20.1506 29.3311C20.0719 29.3627 19.9878 29.3784 19.903 29.3772Z" stroke="#FF8A00" stroke-width="0.7"/>
<path d="M26.5986 5.87392C26.4715 5.87395 26.3472 5.8361 26.2416 5.7652C26.1361 5.6943 26.054 5.59356 26.006 5.47584L25.2457 3.61216C25.1817 3.45481 25.1828 3.27849 25.2488 3.12198C25.3148 2.96547 25.4403 2.84159 25.5977 2.7776C25.755 2.71361 25.9313 2.71475 26.0878 2.78076C26.2443 2.84677 26.3682 2.97225 26.4322 3.1296L27.1913 4.992C27.2309 5.0892 27.2461 5.19466 27.2354 5.2991C27.2247 5.40354 27.1885 5.50375 27.1299 5.59089C27.0714 5.67802 26.9923 5.74942 26.8996 5.79878C26.807 5.84814 26.7036 5.87394 26.5986 5.87392Z" stroke="#FF8A00" stroke-width="0.7"/>
<path d="M37.1407 31.7439C37.0135 31.744 36.8892 31.7061 36.7837 31.6352C36.6781 31.5643 36.5961 31.4636 36.548 31.3459L35.7122 29.3119C35.6482 29.1546 35.6493 28.9783 35.7153 28.8218C35.7814 28.6653 35.9068 28.5414 36.0642 28.4774C36.2215 28.4134 36.3979 28.4145 36.5544 28.4805C36.7109 28.5466 36.8347 28.672 36.8987 28.8294L37.7282 30.8659C37.7679 30.9631 37.783 31.0685 37.7723 31.173C37.7616 31.2774 37.7254 31.3776 37.6669 31.4647C37.6083 31.5519 37.5292 31.6233 37.4366 31.6726C37.3439 31.722 37.2405 31.7478 37.1355 31.7478L37.1407 31.7439Z" stroke="#FF8A00" stroke-width="0.7"/>
<path d="M43.5073 12.8958C43.3583 12.8966 43.2137 12.8454 43.0984 12.7511C42.9832 12.6567 42.9044 12.5251 42.8757 12.379C42.8471 12.2328 42.8703 12.0812 42.9414 11.9503C43.0126 11.8194 43.1271 11.7174 43.2654 11.6619L45.1277 10.9029C45.2851 10.8387 45.4615 10.8397 45.6181 10.9056C45.7747 10.9715 45.8988 11.0969 45.9629 11.2542C46.0271 11.4116 46.0261 11.588 45.9602 11.7446C45.8943 11.9012 45.7689 12.0252 45.6116 12.0894L43.7479 12.8484C43.6715 12.8796 43.5898 12.8957 43.5073 12.8958Z" stroke="#FF8A00" stroke-width="0.7"/>
<path d="M17.49 23.4982C17.3416 23.4983 17.1978 23.4468 17.0832 23.3525C16.9686 23.2582 16.8903 23.1271 16.8617 22.9814C16.8331 22.8358 16.856 22.6848 16.9265 22.5542C16.997 22.4236 17.1107 22.3216 17.2481 22.2655L19.2858 21.4361C19.4422 21.376 19.616 21.3797 19.7697 21.4463C19.9234 21.5128 20.0449 21.637 20.1081 21.7922C20.1713 21.9474 20.1711 22.1211 20.1076 22.2762C20.0441 22.4312 19.9223 22.5551 19.7684 22.6214L17.7306 23.4508C17.6542 23.482 17.5725 23.4981 17.49 23.4982Z" stroke="#FF8A00" stroke-width="0.7"/>
<path d="M19.524 12.8063C19.4388 12.8058 19.3544 12.7889 19.2757 12.7564L17.4222 11.9756C17.2657 11.9095 17.1419 11.7841 17.0779 11.6267C17.0139 11.4694 17.0151 11.293 17.0811 11.1365C17.1471 10.98 17.2726 10.8562 17.43 10.7922C17.5873 10.7282 17.7636 10.7294 17.9201 10.7954L19.7736 11.5762C19.9099 11.6335 20.0222 11.7361 20.0914 11.8668C20.1606 11.9974 20.1824 12.148 20.1531 12.2929C20.1239 12.4379 20.0453 12.5682 19.9309 12.6618C19.8164 12.7553 19.6731 12.8064 19.5253 12.8063H19.524Z" stroke="#FF8A00" stroke-width="0.7"/>
<path d="M45.2738 23.6454C45.1885 23.6458 45.104 23.6288 45.0255 23.5955L42.9979 22.7417C42.9205 22.7091 42.8501 22.6616 42.791 22.6018C42.7319 22.542 42.6852 22.4712 42.6534 22.3933C42.6217 22.3155 42.6056 22.2321 42.6061 22.1481C42.6065 22.064 42.6236 21.9808 42.6562 21.9033C42.6888 21.8259 42.7363 21.7556 42.7961 21.6964C42.8559 21.6373 42.9267 21.5906 43.0046 21.5588C43.0825 21.5271 43.1658 21.511 43.2499 21.5115C43.3339 21.512 43.4171 21.529 43.4946 21.5616L45.5221 22.4153C45.6584 22.4726 45.7707 22.5753 45.8399 22.7059C45.9091 22.8366 45.9309 22.9871 45.9016 23.1321C45.8724 23.277 45.7939 23.4073 45.6794 23.5009C45.5649 23.5945 45.4216 23.6455 45.2738 23.6454Z" stroke="#FF8A00" stroke-width="0.7"/>
<path d="M36.4458 5.81494C36.3605 5.81457 36.2762 5.79762 36.1974 5.76502C36.0411 5.69896 35.9175 5.57353 35.8536 5.41631C35.7898 5.25909 35.791 5.08295 35.857 4.92662L36.6365 3.0719C36.6691 2.99441 36.7166 2.9241 36.7764 2.86499C36.8362 2.80588 36.907 2.75912 36.9849 2.72738C37.0627 2.69565 37.1461 2.67956 37.2302 2.68003C37.3142 2.6805 37.3974 2.69753 37.4749 2.73014C37.5524 2.76275 37.6227 2.8103 37.6818 2.87009C37.7409 2.92987 37.7877 3.00071 37.8194 3.07856C37.8511 3.15641 37.8672 3.23975 37.8667 3.32382C37.8663 3.4079 37.8492 3.49105 37.8166 3.56854L37.0358 5.42198C36.9871 5.53834 36.9052 5.63772 36.8002 5.70763C36.6952 5.77754 36.5719 5.81488 36.4458 5.81494Z" stroke="#FF8A00" stroke-width="0.7"/>
<path d="M25.5465 31.7093C25.4613 31.709 25.3769 31.692 25.2982 31.6594C25.2207 31.6268 25.1504 31.5793 25.0912 31.5195C25.0321 31.4597 24.9853 31.3889 24.9536 31.311C24.9219 31.2331 24.9058 31.1498 24.9063 31.0657C24.9068 30.9816 24.9238 30.8985 24.9564 30.821L25.8102 28.7999C25.8428 28.7224 25.8904 28.6521 25.9501 28.593C26.0099 28.5338 26.0808 28.4871 26.1586 28.4553C26.2365 28.4236 26.3198 28.4075 26.4039 28.408C26.4879 28.4085 26.5711 28.4255 26.6486 28.4581C26.7261 28.4907 26.7964 28.5383 26.8555 28.598C26.9146 28.6578 26.9614 28.7287 26.9931 28.8065C27.0248 28.8844 27.0409 28.9677 27.0405 29.0518C27.04 29.1359 27.023 29.219 26.9903 29.2965L26.1366 31.324C26.0867 31.439 26.0042 31.5367 25.8994 31.6052C25.7945 31.6737 25.6718 31.7099 25.5465 31.7093Z" stroke="#FF8A00" stroke-width="0.7"/>
</g>
<defs>
<clipPath id="clip0_1728_118">
<rect width="64" height="64" fill="white"/>
</clipPath>
</defs>
</svg>
