<svg width="189" height="40" viewBox="0 0 189 40" fill="none" xmlns="http://www.w3.org/2000/svg">
<g clip-path="url(#clip0_1727_72)">
<path fill-rule="evenodd" clip-rule="evenodd" d="M8.43298 8.31799L0 40L11.5588 30.8257L14.6139 19.3577H30.5728L33.0123 10.1834H17.0533L17.554 8.31799H8.43298ZM35.7905 8.31799L29.7977 30.8257H38.9171L44.9099 8.31799H35.7905ZM47.1905 8.31799L38.7575 40L50.3164 30.8257L53.3714 19.3577L59.4358 30.8257H70.8353L64.7707 19.3577C70.8502 19.3577 74.7945 15.948 76.603 9.12835C76.6767 8.85275 76.7431 8.58265 76.8018 8.31799H67.37C67.5532 8.4997 67.6059 8.73924 67.529 9.03662C67.3166 9.80114 66.4504 10.1834 64.9303 10.1834H55.8109L56.3115 8.31799H47.1905ZM79.1076 8.31799L73.115 30.8257H98.1933L100.633 21.6513H84.674L85.2892 19.3577H101.249L103.688 10.1834H87.7286L88.2298 8.31799H79.1076ZM115.588 8.31799L107.153 40L118.712 30.8257L124.708 8.31799H115.588ZM135.294 8.31799L121.311 30.8257H130.43L133.257 26.2385H143.722L144.11 30.8257H153.229L151.231 8.31799H135.294ZM158.871 8.31799C157.488 10.2893 156.489 12.4402 155.874 14.7706C154.688 19.2048 155.235 22.9893 157.515 26.1238C159.795 29.2584 163.139 30.8257 167.547 30.8257C170.039 30.8257 172.448 30.3287 174.774 29.3348L171.947 40L183.505 30.8257L189 10.1834H173.041L170.602 19.3577H175.686L175.367 19.6329C173.664 20.9785 171.871 21.6513 169.986 21.6513C168.101 21.6513 166.665 20.9785 165.677 19.6329C164.704 18.2874 164.476 16.6666 164.993 14.7706C165.495 12.8746 166.589 11.2538 168.276 9.90822C169.194 9.18232 170.139 8.65229 171.111 8.31799H158.871ZM176.976 8.31799C177.084 8.38822 177.188 8.46921 177.289 8.56265L177.833 8.31799H176.976ZM143.22 17.0642L142.765 10.1834L138.661 17.0642H143.22Z" fill="white"/>
<path fill-rule="evenodd" clip-rule="evenodd" d="M181.907 8.62393L187.785 5.59633C187.587 5.29052 187.382 4.99235 187.169 4.70184C184.889 1.56728 181.546 0 177.137 0C172.73 0 168.55 1.56728 164.598 4.70184C163.072 5.91229 161.754 7.21967 160.642 8.62393H181.907ZM152.186 8.62393L151.421 0H142.301L136.944 8.62393H152.186ZM135.129 8.62393L137.423 0H110.064L107.771 8.62393H135.129ZM105.491 8.62393L107.784 0H82.7057L80.4097 8.62393H105.491ZM78.0303 8.62393C78.944 2.87464 75.9428 0 69.0267 0H50.788L48.4925 8.62393H78.0303ZM46.212 8.62393L48.5081 0H39.3887L37.0925 8.62393H46.212ZM34.8157 8.62393L37.1088 0H12.0304L9.73499 8.62393H34.8157Z" fill="white"/>
</g>
<defs>
<clipPath id="clip0_1727_72">
<rect width="189" height="40" fill="white"/>
</clipPath>
</defs>
</svg>
