<svg width="106" height="106" viewBox="0 0 106 106" fill="none" xmlns="http://www.w3.org/2000/svg">
<path d="M43.9404 40.4172C45.8637 39.8493 47.9141 39.8785 49.8204 40.5012C51.4584 41.0388 52.8864 42.0636 54.474 42.7188C56.0616 43.374 57.834 43.6764 59.2704 44.6424C62.6808 46.9356 62.916 51.9672 65.6796 55.008C66.3852 55.7892 67.956 56.9484 68.1996 57.9732C68.4684 59.3088 66.7884 60.09 65.688 60.93C64.5876 61.77 63.3192 62.3916 62.5884 63.534C61.3788 65.4324 62.1096 68.0028 61.2948 70.0944C60.6793 71.3772 59.7803 72.5032 58.6656 73.3872L55.3056 76.5204C54.5285 77.4047 53.4949 78.0243 52.3488 78.2928C51.6703 78.3346 50.9936 78.188 50.3932 77.8693C49.7929 77.5506 49.2923 77.0721 48.9468 76.4868C48.2723 75.3058 47.9054 73.9742 47.88 72.6144C47.7563 70.6691 47.9005 68.7161 48.3084 66.81C48.6309 65.721 48.7589 64.5835 48.6864 63.45C48.4728 62.5319 48.192 61.6306 47.8464 60.7536C47.544 59.7036 47.4768 58.536 46.8048 57.6792C46.0335 56.8561 44.9743 56.3626 43.848 56.3016C42.7362 56.2448 41.6357 56.0502 40.572 55.722C39.1977 55.0649 38.0998 53.9433 37.4724 52.5552C37.0973 51.9399 36.8471 51.2568 36.7361 50.5448C36.6251 49.8328 36.6555 49.1059 36.8256 48.4056C38.2284 44.4408 43.9404 40.4172 43.9404 40.4172Z" fill="url(#paint0_linear_1727_311)"/>
<path d="M66.8388 70.4223C66.486 68.3223 65.478 72.1023 64.4784 72.4383C63.4788 72.7743 62.4876 72.8751 62.0844 73.7151C61.925 74.3059 61.8626 74.9187 61.8996 75.5295C61.6952 76.2817 61.4137 77.0107 61.0596 77.7051C60.7992 78.4443 60.8412 80.6619 61.53 81.0651C61.8576 81.2331 64.2768 79.4523 64.89 77.3859C65.6712 75.0087 67.1412 72.2451 66.8388 70.4223Z" fill="url(#paint1_linear_1727_311)"/>
<path d="M27.8795 78.3015C28.5431 79.1415 28.4843 73.7739 29.0303 72.5139C29.5296 71.2204 30.4778 70.15 31.7015 69.4983C32.4491 69.1371 33.3815 68.9607 33.8603 68.2971C34.055 67.9862 34.1831 67.6383 34.2366 67.2754C34.2901 66.9125 34.2678 66.5425 34.1711 66.1887C33.9816 65.4849 33.8578 64.765 33.8015 64.0383C33.8015 62.9379 34.3979 61.8375 34.0703 60.7959C33.9217 60.4207 33.6951 60.0814 33.4055 59.8005C33.1159 59.5196 32.7698 59.3034 32.3903 59.1663C31.6453 58.891 30.8853 58.6582 30.1139 58.4691C28.3608 57.924 26.8067 56.8753 25.6451 55.4535C24.8975 54.5295 24.2423 53.3955 23.1251 53.0343C22.5037 52.8787 21.8556 52.8615 21.2267 52.9839C20.2628 53.1176 19.3066 53.3027 18.3623 53.5383C18.3623 53.5383 16.6907 63.7947 27.8795 78.3015Z" fill="url(#paint2_linear_1727_311)"/>
<path d="M32.7851 25.5493C34.2047 24.5077 35.7251 27.6577 36.0275 29.3881C36.159 30.2613 36.0822 31.1533 35.8034 31.9912C35.5246 32.8292 35.0516 33.5893 34.4231 34.2097C33.8855 34.7389 33.2555 35.1589 32.7431 35.7217C31.5671 37.0573 31.3235 38.9893 30.2819 40.4341C29.0902 41.8387 27.4699 42.8127 25.6703 43.2061C25.3343 43.2985 24.9479 43.4329 24.8303 43.7689C24.7991 43.9598 24.8347 44.1556 24.9311 44.3233C25.1663 44.8021 25.5443 45.1633 25.7711 45.6673C25.9144 45.891 25.9864 46.153 25.9774 46.4185C25.9684 46.684 25.8789 46.9406 25.7207 47.1541C25.5583 47.306 25.3627 47.4182 25.1495 47.4817C22.8899 48.3217 18.4295 46.9357 19.2695 44.7013C22.0163 37.9561 24.6791 31.5301 32.7851 25.5493Z" fill="url(#paint3_linear_1727_311)"/>
<path d="M86.0495 50.2956C86.1167 50.7156 85.8899 50.9256 85.7303 51.3204C84.1511 55.1592 83.3447 55.7136 82.9331 55.8396C82.3031 56.0244 81.9503 55.1508 81.8495 54.504C81.6464 53.1432 81.2709 51.8137 80.7323 50.5476C80.3271 49.44 79.6271 48.4641 78.7079 47.7252C78.2401 47.3694 77.6787 47.1577 77.0924 47.1159C76.5061 47.0741 75.9203 47.2041 75.4067 47.49C75.0138 47.7682 74.6581 48.0957 74.3483 48.4644C73.683 49.2165 72.9521 49.908 72.1643 50.5308C71.1731 51.3204 69.9215 52.0344 68.6867 51.732C68.2015 51.5816 67.7575 51.3215 67.389 50.9719C67.0204 50.6223 66.7373 50.1926 66.5615 49.716C66.2688 49.1022 66.0976 48.4376 66.0575 47.7588C65.7299 45.5496 64.0247 43.4328 62.3279 41.9712C60.3287 40.2912 58.9679 40.0056 56.5235 38.9808C55.3727 38.502 53.7515 36.8052 52.5923 36.3432C51.4421 35.8914 50.2078 35.6936 48.9741 35.7631C47.7403 35.8327 46.5361 36.1681 45.4439 36.7464C44.7551 37.1076 43.9907 37.5864 43.2599 37.3176C42.8726 37.1461 42.5535 36.8506 42.3527 36.4776C41.3699 34.7976 41.6471 32.6052 42.2603 30.7236C42.4326 30.1159 42.7175 29.546 43.1003 29.0436C43.6576 28.4325 44.3772 27.9926 45.1751 27.7752C47.1827 27.12 49.3751 27.2376 51.4331 26.7672C54.9695 25.9692 55.9943 18.8712 59.4299 20.0472C67.4183 22.6512 82.1855 27.1032 86.0495 50.2956Z" fill="url(#paint4_linear_1727_311)"/>
<path d="M96.9023 67.2135C96.7695 67.0128 96.5841 66.8526 96.3663 66.7504C96.1485 66.6481 95.9067 66.6078 95.6675 66.6339L87.8303 67.4739C87.6555 67.4878 87.4852 67.5366 87.3296 67.6175C87.1739 67.6984 87.0361 67.8097 86.9243 67.9449C86.8125 68.08 86.729 68.2362 86.6786 68.4042C86.6283 68.5723 86.6122 68.7487 86.6314 68.923C86.6505 69.0974 86.7044 69.2661 86.79 69.4193C86.8755 69.5724 86.9909 69.7068 87.1294 69.8145C87.2678 69.9222 87.4265 70.001 87.5959 70.0462C87.7654 70.0915 87.9422 70.1022 88.1159 70.0779L91.8539 69.6747C88.8299 71.0439 83.4539 71.5059 76.7339 70.9347C74.8019 70.7751 72.7691 70.5315 70.6691 70.2039C72.2633 65.1862 73.1123 59.9617 73.1891 54.6975H84.5627C84.407 58.5679 83.5533 62.3783 82.0427 65.9451C81.9167 66.2607 81.919 66.6131 82.0493 66.927C82.1796 67.2409 82.4274 67.4915 82.7399 67.6251C82.8981 67.6973 83.07 67.7345 83.2439 67.7343C83.5065 67.7316 83.7622 67.6501 83.9779 67.5003C84.1936 67.3505 84.3593 67.1394 84.4535 66.8943C85.7837 63.7376 86.6332 60.3993 86.9735 56.9907C89.3584 58.6775 91.4595 60.7332 93.1979 63.0807C93.3176 63.2602 93.4801 63.4072 93.6707 63.5084C93.8614 63.6095 94.0741 63.6617 94.2899 63.6603C94.5474 63.663 94.7995 63.5868 95.0123 63.4419C95.1558 63.347 95.2791 63.2247 95.375 63.0819C95.4709 62.9391 95.5376 62.7787 95.5712 62.61C95.6048 62.4413 95.6046 62.2676 95.5707 62.099C95.5368 61.9303 95.4697 61.7701 95.3735 61.6275C93.7523 59.1915 90.9887 56.5875 87.1583 53.8827C87.1583 53.6979 87.1583 53.5047 87.1583 53.3199C87.118 45.963 84.7546 38.8069 80.4054 32.8731C76.0562 26.9393 69.9435 22.5312 62.9401 20.2781C55.9366 18.0249 48.4003 18.0419 41.4071 20.3266C34.4138 22.6113 28.3211 27.047 23.9987 33.0003C18.8411 32.8743 15.3719 33.4455 13.0787 34.2267L14.0951 32.4963C14.1823 32.3474 14.2392 32.1827 14.2627 32.0118C14.2863 31.8409 14.2759 31.667 14.2322 31.5001C14.1885 31.3331 14.1124 31.1764 14.0082 31.0389C13.9039 30.9014 13.7736 30.7858 13.6247 30.6987C13.4758 30.6115 13.3112 30.5546 13.1402 30.5311C12.9693 30.5075 12.7954 30.5179 12.6285 30.5616C12.4616 30.6053 12.3049 30.6814 12.1674 30.7856C12.0299 30.8899 11.9143 31.0202 11.8271 31.1691L7.84552 37.9731C7.73389 38.1695 7.67495 38.3915 7.67444 38.6175C7.67393 38.8435 7.73186 39.0657 7.8426 39.2627C7.95333 39.4596 8.11312 39.6246 8.30645 39.7416C8.49977 39.8586 8.72006 39.9236 8.94592 39.9303H9.05512L16.9175 39.2499C17.2623 39.2158 17.5801 39.0482 17.8029 38.7829C18.0258 38.5177 18.1361 38.1758 18.1103 37.8303C18.0955 37.6587 18.047 37.4917 17.9677 37.3389C17.8883 37.1861 17.7796 37.0504 17.6477 36.9396C17.5159 36.8289 17.3635 36.7452 17.1993 36.6933C17.0351 36.6415 16.8623 36.6225 16.6907 36.6375L13.1963 36.9399C15.3131 36.0999 18.4295 35.6127 22.2851 35.5875C20.4175 38.7376 19.0568 42.1618 18.2531 45.7347C18.1774 46.0744 18.2397 46.4303 18.4264 46.7241C18.613 47.0179 18.9088 47.2255 19.2485 47.3013C19.5883 47.377 19.9442 47.3147 20.238 47.128C20.5318 46.9414 20.7394 46.6456 20.8151 46.3059C21.7587 42.069 23.5534 38.068 26.0903 34.5459C28.6887 35.2403 31.3431 35.8283 34.0535 36.3099C32.4016 41.3975 31.5183 46.7031 31.4327 52.0515H20.9999C16.3211 49.0023 12.9191 46.0035 11.2643 43.4079C11.1717 43.2628 11.0513 43.1374 10.9102 43.0389C10.7691 42.9403 10.6099 42.8705 10.4419 42.8335C10.2738 42.7964 10.1 42.7928 9.93054 42.8229C9.76107 42.853 9.59918 42.9162 9.45412 43.0089C9.30906 43.1015 9.18367 43.2219 9.08512 43.363C8.98656 43.5041 8.91676 43.6633 8.87971 43.8313C8.84266 43.9994 8.83908 44.1732 8.86918 44.3427C8.89928 44.5121 8.96246 44.674 9.05512 44.8191C10.6511 47.3391 13.5071 50.0271 17.4551 52.7907C17.4551 52.9839 17.4551 53.1687 17.4551 53.3619C17.459 60.7449 19.8024 67.9368 24.1487 73.9049C28.4951 79.873 34.6208 84.3103 41.6464 86.5797C48.672 88.8491 56.236 88.8338 63.2524 86.5361C70.2687 84.2383 76.3765 79.7763 80.6987 73.7907H82.0511C85.3351 73.881 88.6125 73.45 91.7615 72.5139L90.8375 74.1939C90.6693 74.498 90.6289 74.8564 90.7249 75.1904C90.821 75.5244 91.0458 75.8065 91.3499 75.9747C91.5454 76.0829 91.7649 76.1406 91.9883 76.1427C92.2223 76.1424 92.4519 76.079 92.6529 75.9593C92.854 75.8396 93.019 75.6679 93.1307 75.4623L96.9611 68.5743C97.0779 68.3641 97.1342 68.1258 97.1239 67.8856C97.1135 67.6454 97.0368 67.4128 96.9023 67.2135ZM20.0675 54.7143H20.2271C21.1427 55.2939 22.1003 55.8735 23.1083 56.4531C25.8131 58.0323 28.7699 59.5527 31.9115 61.0143C32.3161 64.2215 33.0249 67.3829 34.0283 70.4559C31.3123 70.9319 28.6607 71.5171 26.0735 72.2115C22.3946 67.0965 20.3054 61.0104 20.0675 54.7143ZM31.6007 57.9651C29.3999 56.9151 27.3083 55.8231 25.3427 54.7143H31.4327C31.4579 55.8063 31.5083 56.8899 31.6007 57.9651ZM34.0283 54.7143H50.9963V65.5587C50.1563 65.3067 49.3163 65.0379 48.5435 64.7691C43.72 63.1743 38.9817 61.3322 34.3475 59.2503C34.1879 57.7635 34.0955 56.2431 34.0283 54.7143ZM34.7171 62.2743C38.8163 64.0635 43.1843 65.7351 47.7203 67.2303C48.8123 67.5999 49.9127 67.9443 50.9963 68.2803V68.8851C46.1911 68.9259 41.3944 69.2992 36.6407 70.0023C35.794 67.4928 35.1618 64.9159 34.7507 62.2995L34.7171 62.2743ZM50.9963 71.5143V85.6263C46.7291 85.0803 42.7139 81.8967 39.5723 76.5123C38.8309 75.231 38.1716 73.9039 37.5983 72.5391C42.0486 71.9095 46.5355 71.5728 51.0299 71.5311L50.9963 71.5143ZM53.6171 85.6095V71.5311C58.1093 71.5807 62.5934 71.9258 67.0403 72.5643C66.4824 73.9207 65.8371 75.2395 65.1083 76.5123C61.9331 81.9303 57.9179 85.0803 53.6507 85.6263L53.6171 85.6095ZM68.0903 69.7923C63.2191 68.9065 58.3989 67.7596 53.6507 66.3567V54.7143H70.6271C70.5411 59.8389 69.686 64.9216 68.0903 69.7923ZM65.1083 30.2871C65.8452 31.5608 66.5017 32.8794 67.0739 34.2351C62.6381 34.8719 58.1653 35.217 53.6843 35.2683V21.1815C57.9179 21.7191 61.9331 24.9111 65.1083 30.2871ZM51.0299 21.1815V35.2683C46.533 35.2258 42.0436 34.8919 37.5899 34.2687C38.1632 32.9011 38.8225 31.5713 39.5639 30.2871C42.7475 24.9111 46.7627 21.7191 51.0299 21.1815ZM53.6507 37.8891C58.4536 37.8363 63.2472 37.4546 67.9979 36.7467C69.6573 41.6969 70.5441 46.8732 70.6271 52.0935H53.6507V37.8891ZM84.6215 52.0935H73.2479C73.1629 46.7307 72.2767 41.4107 70.6187 36.3099C73.3235 35.8311 75.9695 35.2347 78.5483 34.5375C82.2545 39.6652 84.367 45.7717 84.6215 52.0935ZM76.7843 32.2947C74.4659 32.9051 72.1027 33.4119 69.6947 33.8151C69.0243 32.1603 68.2384 30.5548 67.3427 29.0103C66.0212 26.6825 64.3528 24.5694 62.3951 22.7439C67.9668 24.5681 72.9396 27.8688 76.7843 32.2947ZM27.8543 32.3703C31.6869 27.8906 36.6758 24.5491 42.2771 22.7103C40.3383 24.551 38.69 26.6752 37.3883 29.0103C36.4775 30.5767 35.683 32.2079 35.0111 33.8907C32.5499 33.4287 30.1811 32.9331 27.8543 32.3703ZM36.6743 36.8055C41.4283 37.5074 46.2247 37.8834 51.0299 37.9311V52.1271H34.0283C34.1148 46.903 35.0073 41.7236 36.6743 36.7719V36.8055ZM27.8627 74.4627C30.1811 73.8663 32.5583 73.3707 34.9691 72.9591C35.6563 74.6396 36.4648 76.2679 37.3883 77.8311C38.7064 80.1615 40.3719 82.2773 42.3275 84.1059C36.7184 82.2673 31.7172 78.9332 27.8627 74.4627ZM62.4035 84.0891C64.3589 82.2667 66.0245 80.1564 67.3427 77.8311C68.2412 76.2752 69.0299 74.6585 69.7031 72.9927C72.1055 73.4043 74.4743 73.9167 76.7927 74.5131C72.9539 78.9514 67.9799 82.2617 62.4035 84.0891Z" fill="black"/>
<defs>
<linearGradient id="paint0_linear_1727_311" x1="67.0887" y1="41.1816" x2="30.6257" y2="72.2743" gradientUnits="userSpaceOnUse">
<stop stop-color="#FF8A00"/>
<stop offset="1" stop-color="#FFC700"/>
</linearGradient>
<linearGradient id="paint1_linear_1727_311" x1="66.6637" y1="70.1354" x2="57.4983" y2="75.1491" gradientUnits="userSpaceOnUse">
<stop stop-color="#FF8A00"/>
<stop offset="1" stop-color="#FFC700"/>
</linearGradient>
<linearGradient id="paint2_linear_1727_311" x1="33.6875" y1="53.6821" x2="11.2359" y2="68.256" gradientUnits="userSpaceOnUse">
<stop stop-color="#FF8A00"/>
<stop offset="1" stop-color="#FFC700"/>
</linearGradient>
<linearGradient id="paint3_linear_1727_311" x1="35.4788" y1="26.0268" x2="14.5237" y2="42.4167" gradientUnits="userSpaceOnUse">
<stop stop-color="#FF8A00"/>
<stop offset="1" stop-color="#FFC700"/>
</linearGradient>
<linearGradient id="paint4_linear_1727_311" x1="84.4599" y1="21.0144" x2="50.7976" y2="63.9854" gradientUnits="userSpaceOnUse">
<stop stop-color="#FF8A00"/>
<stop offset="1" stop-color="#FFC700"/>
</linearGradient>
</defs>
</svg>
