<svg width="106" height="106" viewBox="0 0 106 106" fill="none" xmlns="http://www.w3.org/2000/svg">
<path d="M86.7527 56.1481H85.2071V58.7773H84.3671V48.2269C84.3671 48.1309 84.3482 48.0359 84.3115 47.9472C84.2748 47.8586 84.2209 47.778 84.1531 47.7101C84.0852 47.6423 84.0046 47.5885 83.916 47.5517C83.8273 47.515 83.7323 47.4961 83.6363 47.4961H77.3363V65.3545H82.9643C83.1247 65.3545 83.2785 65.4182 83.392 65.5316C83.5054 65.6451 83.5691 65.7989 83.5691 65.9593V82.3561L87.4583 84.6493V56.8789C87.4584 56.6894 87.3849 56.5072 87.2532 56.3709C87.1216 56.2345 86.9421 56.1546 86.7527 56.1481Z" fill="url(#paint0_linear_1727_321)"/>
<path d="M15.6971 86.8418V56.2574C15.6971 55.8809 15.8467 55.5198 16.1129 55.2536C16.3792 54.9873 16.7402 54.8378 17.1167 54.8378H26.7599V58.853H27.8435V41.717C27.8435 41.3405 27.9931 40.9794 28.2593 40.7132C28.5256 40.4469 28.8866 40.2974 29.2631 40.2974H33.5471V86.9426L15.6971 86.8418Z" fill="url(#paint1_linear_1727_321)"/>
<path d="M29.1792 74.6535C29.1792 79.8447 27.0456 80.2815 24.408 80.2815C21.7704 80.2815 19.6284 79.8447 19.6284 74.6535C19.6284 69.4623 21.762 61.4907 24.408 61.4907C27.054 61.4907 29.1792 69.4707 29.1792 74.6535Z" fill="white"/>
<path d="M84.0395 81.2054C83.8424 81.2055 83.6457 81.2224 83.4515 81.2558C83.0527 80.546 82.4721 79.9552 81.7694 79.544C81.0667 79.1329 80.2672 78.9161 79.4531 78.9161C78.6389 78.9161 77.8395 79.1329 77.1368 79.544C76.4341 79.9552 75.8535 80.546 75.4547 81.2558C75.2605 81.2218 75.0638 81.2049 74.8667 81.2054C73.9547 81.2076 73.0809 81.5714 72.4368 82.2171C71.7928 82.8627 71.4311 83.7374 71.4311 84.6494C71.431 85.0398 71.5022 85.4269 71.6411 85.7918H66.8363V78.9374H72.6071C72.9109 78.9374 73.2023 78.8173 73.4179 78.6033C73.6334 78.3893 73.7557 78.0987 73.7579 77.795V31.8974C73.7579 31.5922 73.6366 31.2995 73.4208 31.0836C73.205 30.8678 72.9123 30.7466 72.6071 30.7466H38.1671C37.8619 30.7466 37.5692 30.8678 37.3534 31.0836C37.1375 31.2995 37.0163 31.5922 37.0163 31.8974V86.951C37.0207 87.2541 37.1436 87.5434 37.3587 87.7569C37.5738 87.9704 37.864 88.0912 38.1671 88.0934H84.0395C84.9529 88.0934 85.8289 87.7305 86.4748 87.0847C87.1206 86.4388 87.4835 85.5628 87.4835 84.6494C87.4835 83.736 87.1206 82.86 86.4748 82.2141C85.8289 81.5682 84.9529 81.2054 84.0395 81.2054ZM66.8363 33.0398H71.4311V39.9194H66.8363V33.0398ZM66.8363 42.2126H71.4311V49.0922H66.8363V42.2126ZM66.8363 51.3854H71.4311V58.2734H66.8363V51.3854ZM66.8363 60.5666H71.4311V67.4462H66.8363V60.5666ZM66.8363 69.7394H71.4311V76.619H66.8363V69.7394ZM43.9043 85.7918H39.3179V78.9374H43.9043V85.7918ZM43.9043 76.619H39.3179V69.7394H43.9043V76.619ZM43.9043 67.4462H39.3179V60.5666H43.9043V67.4462ZM43.9043 58.2734H39.3179V51.3854H43.9043V58.2734ZM43.9043 49.0922H39.3179V42.2126H43.9043V49.0922ZM43.9043 39.9194H39.3179V33.0398H43.9043V39.9194ZM50.7671 85.7918H46.1975V78.9374H50.7671V85.7918ZM50.7671 76.619H46.1975V69.7394H50.7671V76.619ZM50.7671 67.4462H46.1975V60.5666H50.7671V67.4462ZM50.7671 58.2734H46.1975V51.3854H50.7671V58.2734ZM50.7671 49.0922H46.1975V42.2126H50.7671V49.0922ZM50.7671 39.9194H46.1975V33.0398H50.7671V39.9194ZM57.6467 85.7918H53.0771V78.9374H57.6635L57.6467 85.7918ZM57.6467 76.619H53.0771V69.7394H57.6635L57.6467 76.619ZM57.6467 67.4462H53.0771V60.5666H57.6635L57.6467 67.4462ZM57.6467 58.2734H53.0771V51.3854H57.6635L57.6467 58.2734ZM57.6467 49.0922H53.0771V42.2126H57.6635L57.6467 49.0922ZM57.6467 39.9194H53.0771V33.0398H57.6635L57.6467 39.9194ZM64.5263 85.7918H59.9567V78.9374H64.5431L64.5263 85.7918ZM64.5263 76.619H59.9567V69.7394H64.5431L64.5263 76.619ZM64.5263 67.4462H59.9567V60.5666H64.5431L64.5263 67.4462ZM64.5263 58.2734H59.9567V51.3854H64.5431L64.5263 58.2734ZM64.5263 49.0922H59.9567V42.2126H64.5431L64.5263 49.0922ZM64.5263 39.9194H59.9567V33.0398H64.5431L64.5263 39.9194ZM84.0227 85.7918H74.8667C74.5795 85.7672 74.3121 85.6357 74.1172 85.4234C73.9223 85.2111 73.8141 84.9334 73.8141 84.6452C73.8141 84.357 73.9223 84.0793 74.1172 83.867C74.3121 83.6546 74.5795 83.5232 74.8667 83.4986C75.0884 83.5004 75.3046 83.5676 75.4883 83.6918C75.6428 83.791 75.819 83.8513 76.0019 83.8674C76.1848 83.8835 76.3689 83.8549 76.5383 83.7842C76.7151 83.7143 76.8711 83.6005 76.9917 83.4535C77.1122 83.3065 77.1932 83.1312 77.2271 82.9442C77.3435 82.441 77.6269 81.9922 78.0312 81.6708C78.4354 81.3494 78.9366 81.1744 79.4531 81.1744C79.9695 81.1744 80.4707 81.3494 80.875 81.6708C81.2792 81.9922 81.5627 82.441 81.6791 82.9442C81.723 83.1219 81.8084 83.2867 81.9282 83.4251C82.048 83.5635 82.199 83.6715 82.3686 83.7403C82.5382 83.8092 82.7217 83.8368 82.9041 83.8211C83.0865 83.8054 83.2626 83.7467 83.4179 83.6498C83.5954 83.5382 83.7996 83.4764 84.0092 83.4709C84.2188 83.4655 84.426 83.5166 84.609 83.6188C84.792 83.7211 84.9442 83.8707 85.0494 84.0521C85.1546 84.2334 85.2091 84.4397 85.2071 84.6494C85.2071 84.8001 85.1773 84.9494 85.1193 85.0885C85.0614 85.2277 84.9765 85.354 84.8695 85.4602C84.7626 85.5664 84.6356 85.6503 84.496 85.7072C84.3565 85.7642 84.207 85.7929 84.0563 85.7918H84.0227Z" fill="black"/>
<path d="M43.9043 27.3026V23.867H51.9263C52.2315 23.867 52.5242 23.7458 52.74 23.5299C52.9558 23.3141 53.0771 23.0214 53.0771 22.7162V21.5654H57.6635V22.7162C57.6635 23.0214 57.7847 23.3141 58.0005 23.5299C58.2164 23.7458 58.5091 23.867 58.8143 23.867H66.8363V26.1602H47.3399C47.0527 26.1848 46.7853 26.3162 46.5904 26.5286C46.3955 26.7409 46.2873 27.0186 46.2873 27.3068C46.2873 27.595 46.3955 27.8727 46.5904 28.085C46.7853 28.2973 47.0527 28.4288 47.3399 28.4534H76.0175V80.2814C76.0421 80.5686 76.1735 80.836 76.3858 81.0309C76.5982 81.2258 76.8759 81.334 77.1641 81.334C77.4523 81.334 77.73 81.2258 77.9423 81.0309C78.1546 80.836 78.2861 80.5686 78.3107 80.2814V27.3026C78.3107 27.1519 78.2809 27.0026 78.2229 26.8635C78.165 26.7243 78.0801 26.598 77.9731 26.4918C77.8661 26.3856 77.7392 26.3016 77.5996 26.2447C77.4601 26.1878 77.3106 26.1591 77.1599 26.1602H69.1295V22.7162C69.1295 22.4124 69.0094 22.121 68.7954 21.9054C68.5814 21.6898 68.2908 21.5676 67.9871 21.5654H59.9567V20.423C59.9501 20.1236 59.8271 19.8386 59.6138 19.6284C59.4005 19.4183 59.1137 19.2995 58.8143 19.2974H51.9263C51.6239 19.2951 51.3328 19.4119 51.1159 19.6225C50.899 19.8332 50.7737 20.1207 50.7671 20.423V21.5654H42.7535C42.4497 21.5676 42.1592 21.6898 41.9452 21.9054C41.7312 22.121 41.6111 22.4124 41.6111 22.7162V26.1602H33.5807C33.2769 26.1602 32.9855 26.2803 32.7699 26.4943C32.5543 26.7083 32.4321 26.9988 32.4299 27.3026V85.7918H25.5671V81.0962C26.8604 80.8282 28.0222 80.1234 28.8573 79.1001C29.6924 78.0768 30.1501 76.7974 30.1535 75.4766C30.1535 75.3254 30.0947 60.5666 24.4247 60.5666C18.7547 60.5666 18.6707 75.3254 18.6707 75.4766C18.6741 76.7974 19.1317 78.0768 19.9669 79.1001C20.802 80.1234 21.9638 80.8282 23.2571 81.0962V85.7918H13.9331C13.6279 85.7918 13.3352 85.913 13.1193 86.1289C12.9035 86.3447 12.7823 86.6374 12.7823 86.9426C12.7823 87.2478 12.9035 87.5405 13.1193 87.7563C13.3352 87.9722 13.6279 88.0934 13.9331 88.0934H33.5807C33.8844 88.0912 34.175 87.969 34.389 87.7534C34.603 87.5378 34.7231 87.2464 34.7231 86.9426V28.4534H42.7535C43.0587 28.4534 43.3514 28.3322 43.5672 28.1163C43.783 27.9005 43.9043 27.6078 43.9043 27.3026ZM20.9639 75.4766C20.9639 69.7562 22.5011 62.8766 24.4079 62.8766C26.3147 62.8766 27.8435 69.773 27.8435 75.4766C27.7998 76.3595 27.4184 77.1918 26.7781 77.8012C26.1378 78.4107 25.2877 78.7506 24.4037 78.7506C23.5197 78.7506 22.6696 78.4107 22.0293 77.8012C21.389 77.1918 21.0075 76.3595 20.9639 75.4766Z" fill="black"/>
<path d="M75.186 23.8836C77.2597 23.8836 78.9408 22.2025 78.9408 20.1288C78.9408 18.0551 77.2597 16.374 75.186 16.374C73.1122 16.374 71.4312 18.0551 71.4312 20.1288C71.4312 22.2025 73.1122 23.8836 75.186 23.8836Z" fill="url(#paint2_linear_1727_321)"/>
<defs>
<linearGradient id="paint0_linear_1727_321" x1="87.0928" y1="48.6313" x2="68.38" y2="53.9057" gradientUnits="userSpaceOnUse">
<stop stop-color="#FF8A00"/>
<stop offset="1" stop-color="#FFC700"/>
</linearGradient>
<linearGradient id="paint1_linear_1727_321" x1="32.9026" y1="41.7226" x2="2.10802" y2="53.9145" gradientUnits="userSpaceOnUse">
<stop stop-color="#FF8A00"/>
<stop offset="1" stop-color="#FFC700"/>
</linearGradient>
<linearGradient id="paint2_linear_1727_321" x1="78.6696" y1="16.6035" x2="71.4312" y2="24.0922" gradientUnits="userSpaceOnUse">
<stop stop-color="#FF8A00"/>
<stop offset="1" stop-color="#FFC700"/>
</linearGradient>
</defs>
</svg>
