<svg width="105" height="105" viewBox="0 0 105 105" fill="none" xmlns="http://www.w3.org/2000/svg">
<path d="M20.1096 70.6357C20.4702 70.2733 20.8989 69.9857 21.371 69.7895C21.8431 69.5932 22.3493 69.4922 22.8606 69.4922C23.3718 69.4922 23.8781 69.5932 24.3502 69.7895C24.8223 69.9857 25.2509 70.2733 25.6116 70.6357L33.432 78.4561C33.7944 78.8167 34.082 79.2454 34.2782 79.7175C34.4745 80.1896 34.5755 80.6959 34.5755 81.2071C34.5755 81.7184 34.4745 82.2246 34.2782 82.6967C34.082 83.1688 33.7944 83.5975 33.432 83.9581L31.122 86.2681C30.972 86.4197 30.7934 86.5401 30.5966 86.6223C30.3998 86.7044 30.1886 86.7467 29.9754 86.7467C29.7621 86.7467 29.5509 86.7044 29.3541 86.6223C29.1573 86.5401 28.9787 86.4197 28.8288 86.2681L17.7828 75.2473C17.6309 75.0966 17.5103 74.9173 17.4281 74.7198C17.3458 74.5223 17.3035 74.3105 17.3035 74.0965C17.3035 73.8826 17.3458 73.6707 17.4281 73.4732C17.5103 73.2757 17.6309 73.0964 17.7828 72.9457L20.1096 70.6357Z" fill="url(#paint0_linear_1727_353)"/>
<path d="M66.5616 35.2378H37.3548C36.7888 35.2378 36.33 35.6966 36.33 36.2626V56.9518C36.33 57.5178 36.7888 57.9766 37.3548 57.9766H66.5616C67.1275 57.9766 67.5864 57.5178 67.5864 56.9518V36.2626C67.5864 35.6966 67.1275 35.2378 66.5616 35.2378Z" fill="url(#paint1_linear_1727_353)"/>
<path d="M48.4092 40.2529V42.6721C48.3761 43.6454 48.5392 44.6154 48.8888 45.5243C49.2384 46.4333 49.7673 47.2626 50.4441 47.9628C51.121 48.6631 51.9318 49.2199 52.8283 49.6002C53.7248 49.9806 54.6887 50.1766 55.6626 50.1766C56.6365 50.1766 57.6004 49.9806 58.4969 49.6002C59.3934 49.2199 60.2042 48.6631 60.881 47.9628C61.5579 47.2626 62.0868 46.4333 62.4364 45.5243C62.786 44.6154 62.9491 43.6454 62.916 42.6721V40.2529C63.0827 40.2668 63.2506 40.246 63.4089 40.1918C63.5672 40.1375 63.7125 40.051 63.8356 39.9377C63.9588 39.8244 64.0571 39.6868 64.1243 39.5336C64.1916 39.3803 64.2263 39.2148 64.2263 39.0475C64.2263 38.8802 64.1916 38.7146 64.1243 38.5614C64.0571 38.4082 63.9588 38.2706 63.8356 38.1573C63.7125 38.044 63.5672 37.9575 63.4089 37.9032C63.2506 37.849 63.0827 37.8282 62.916 37.8421H60.48C60.3132 37.8282 60.1454 37.849 59.9871 37.9032C59.8288 37.9575 59.6835 38.044 59.5603 38.1573C59.4372 38.2706 59.3389 38.4082 59.2716 38.5614C59.2044 38.7146 59.1697 38.8802 59.1697 39.0475C59.1697 39.2148 59.2044 39.3803 59.2716 39.5336C59.3389 39.6868 59.4372 39.8244 59.5603 39.9377C59.6835 40.051 59.8288 40.1375 59.9871 40.1918C60.1454 40.246 60.3132 40.2668 60.48 40.2529V42.6721C60.5072 43.3239 60.4023 43.9744 60.1716 44.5846C59.9409 45.1948 59.5892 45.7521 59.1376 46.2229C58.686 46.6937 58.1439 47.0683 57.5438 47.3242C56.9438 47.5801 56.2982 47.712 55.6458 47.712C54.9934 47.712 54.3478 47.5801 53.7478 47.3242C53.1477 47.0683 52.6056 46.6937 52.154 46.2229C51.7024 45.7521 51.3507 45.1948 51.12 44.5846C50.8893 43.9744 50.7844 43.3239 50.8116 42.6721V40.2529C50.9783 40.2668 51.1462 40.246 51.3045 40.1918C51.4628 40.1375 51.6081 40.051 51.7312 39.9377C51.8544 39.8244 51.9527 39.6868 52.0199 39.5336C52.0872 39.3803 52.1219 39.2148 52.1219 39.0475C52.1219 38.8802 52.0872 38.7146 52.0199 38.5614C51.9527 38.4082 51.8544 38.2706 51.7312 38.1573C51.6081 38.044 51.4628 37.9575 51.3045 37.9032C51.1462 37.849 50.9783 37.8282 50.8116 37.8421H48.4092C48.2424 37.8282 48.0746 37.849 47.9163 37.9032C47.758 37.9575 47.6127 38.044 47.4895 38.1573C47.3664 38.2706 47.2681 38.4082 47.2008 38.5614C47.1336 38.7146 47.0989 38.8802 47.0989 39.0475C47.0989 39.2148 47.1336 39.3803 47.2008 39.5336C47.2681 39.6868 47.3664 39.8244 47.4895 39.9377C47.6127 40.051 47.758 40.1375 47.9163 40.1918C48.0746 40.246 48.2424 40.2668 48.4092 40.2529Z" fill="black"/>
<path d="M34.1712 87.6372C34.3935 87.8613 34.6955 87.9882 35.0112 87.99C35.3264 87.9864 35.6279 87.8598 35.8512 87.6372L39.564 83.9244C40.155 83.3368 40.6073 82.6246 40.8878 81.8398C41.1683 81.0551 41.2699 80.2175 41.1852 79.3884L42.546 78.12C43.5912 77.1009 44.9921 76.5285 46.452 76.524H62.412C65.2384 76.5259 67.9528 75.419 69.972 73.4412L70.0644 73.3488L80.8752 60.3456C81.6534 59.3635 82.0202 58.1178 81.8985 56.8706C81.7767 55.6235 81.1759 54.4722 80.2224 53.6591C79.2689 52.8461 78.0372 52.4346 76.7865 52.5114C75.5358 52.5882 74.3636 53.1472 73.5168 54.0708L72.3492 55.2804V31.668C72.347 31.3487 72.2185 31.0432 71.9919 30.8181C71.7653 30.5931 71.4589 30.4668 71.1396 30.4668H40.0596C39.9011 30.4657 39.744 30.496 39.5973 30.5558C39.4506 30.6157 39.3172 30.704 39.2048 30.8157C39.0923 30.9273 39.0031 31.0601 38.9422 31.2064C38.8813 31.3527 38.85 31.5096 38.85 31.668V58.8C36.5969 59.239 34.4799 60.2055 32.6724 61.6203C30.8648 63.0351 29.4181 64.858 28.4508 66.9396C27.6637 66.9025 26.8778 67.0331 26.145 67.3228C25.4122 67.6124 24.7494 68.0545 24.2004 68.6196L20.4708 72.24C20.2551 72.4665 20.1348 72.7673 20.1348 73.08C20.1348 73.3928 20.2551 73.6935 20.4708 73.92L34.1712 87.6372ZM69.93 32.8776V57.7752L66.4272 61.3956C65.9704 60.8431 65.3967 60.399 64.7473 60.0954C64.0979 59.7918 63.3892 59.6362 62.6724 59.64H48.6528C48.5691 59.6387 48.4865 59.6216 48.4092 59.5896C46.529 58.8229 44.5177 58.4292 42.4872 58.4304H41.2776V32.8776H69.93ZM40.236 60.9672C42.6894 60.5861 45.2002 60.8764 47.502 61.8072C47.8675 61.9558 48.2582 62.0328 48.6528 62.034H62.6724C63.314 62.034 63.9293 62.2889 64.383 62.7426C64.8367 63.1963 65.0916 63.8116 65.0916 64.4532C65.0916 65.0948 64.8367 65.7102 64.383 66.1639C63.9293 66.6175 63.314 66.8724 62.6724 66.8724H52.1556C51.8348 66.8724 51.5271 66.9999 51.3003 67.2267C51.0734 67.4536 50.946 67.7612 50.946 68.082C50.946 68.4028 51.0734 68.7105 51.3003 68.9373C51.5271 69.1642 51.8348 69.2916 52.1556 69.2916H62.6724C63.9549 69.2894 65.1843 68.7789 66.0912 67.872C66.9981 66.9651 67.5086 65.7358 67.5108 64.4532C67.5096 64.2398 67.4956 64.0266 67.4688 63.8148C67.7208 63.5628 75.0288 56.0028 75.2808 55.7424L75.3312 55.6836C75.5279 55.4174 75.7771 55.1944 76.0634 55.0284C76.3498 54.8623 76.6671 54.7568 76.9959 54.7184C77.3247 54.6799 77.6578 54.7093 77.9747 54.8048C78.2917 54.9003 78.5856 55.0598 78.8384 55.2735C79.0913 55.4871 79.2975 55.7504 79.4445 56.0469C79.5915 56.3435 79.6761 56.6671 79.693 56.9977C79.7099 57.3282 79.6587 57.6587 79.5428 57.9688C79.4268 58.2788 79.2485 58.5617 79.0188 58.8L68.2248 71.7528C66.6467 73.2739 64.5366 74.118 62.3448 74.1048H46.3848C44.3001 74.1044 42.2969 74.9147 40.7988 76.3644L40.2612 76.8768C40.046 76.5477 39.7984 76.2409 39.522 75.9612L32.0964 68.5356C31.7019 68.1441 31.2519 67.813 30.7608 67.5528C31.6617 65.7624 32.9928 64.2236 34.6347 63.0742C36.2767 61.9249 38.1782 61.2009 40.1688 60.9672H40.236ZM25.956 70.2072C26.2528 69.9075 26.606 69.6696 26.9953 69.5073C27.3846 69.3449 27.8022 69.2613 28.224 69.2613C28.6457 69.2613 29.0634 69.3449 29.4526 69.5073C29.8419 69.6696 30.1952 69.9075 30.492 70.2072L37.926 77.6328C38.5277 78.2359 38.8656 79.0531 38.8656 79.905C38.8656 80.757 38.5277 81.5741 37.926 82.1772L35.0616 85.0332L23.0412 73.08L25.956 70.2072Z" fill="black"/>
<path d="M30.0888 51.6431H25.6116M60.4128 12.7847V18.3203V12.7847ZM63.1764 15.5567H57.6408H63.1764ZM27.8544 49.4003V53.8775V49.4003Z" stroke="url(#paint2_linear_1727_353)" stroke-width="2.72" stroke-linecap="round" stroke-linejoin="round"/>
<path d="M35.8764 22.5876H33.2808M34.5744 21.2856V23.8896V21.2856Z" stroke="url(#paint3_linear_1727_353)" stroke-width="1.57" stroke-linecap="round" stroke-linejoin="round"/>
<path d="M82.95 30.4669H78.4728M80.7156 28.2241V32.7013V28.2241Z" stroke="url(#paint4_linear_1727_353)" stroke-width="2.72" stroke-linecap="round" stroke-linejoin="round"/>
<defs>
<linearGradient id="paint0_linear_1727_353" x1="33.9518" y1="70.0194" x2="17.3209" y2="87.2429" gradientUnits="userSpaceOnUse">
<stop stop-color="#FF8A00"/>
<stop offset="1" stop-color="#FFC700"/>
</linearGradient>
<linearGradient id="paint1_linear_1727_353" x1="66.4577" y1="35.9326" x2="45.8202" y2="65.2815" gradientUnits="userSpaceOnUse">
<stop stop-color="#FF8A00"/>
<stop offset="1" stop-color="#FFC700"/>
</linearGradient>
<linearGradient id="paint2_linear_1727_353" x1="61.8199" y1="14.0403" x2="22.2496" y2="51.4642" gradientUnits="userSpaceOnUse">
<stop stop-color="#FF8A00"/>
<stop offset="1" stop-color="#FFC700"/>
</linearGradient>
<linearGradient id="paint3_linear_1727_353" x1="35.7826" y1="21.3652" x2="33.2724" y2="23.9539" gradientUnits="userSpaceOnUse">
<stop stop-color="#FF8A00"/>
<stop offset="1" stop-color="#FFC700"/>
</linearGradient>
<linearGradient id="paint4_linear_1727_353" x1="82.7883" y1="28.3609" x2="78.4728" y2="32.8257" gradientUnits="userSpaceOnUse">
<stop stop-color="#FF8A00"/>
<stop offset="1" stop-color="#FFC700"/>
</linearGradient>
</defs>
</svg>
