<svg width="26" height="36" viewBox="0 0 26 36" fill="none" xmlns="http://www.w3.org/2000/svg">
<path d="M0.5 1.84615C0.5 0.826551 1.29949 0 2.28571 0H10.3214C11.3077 0 12.1071 0.826551 12.1071 1.84615V10.1538C12.1071 11.1734 11.3077 12 10.3214 12H2.28571C1.29949 12 0.5 11.1734 0.5 10.1538V1.84615Z" fill="#6D6D6D"/>
<path d="M0.5 25.8462C0.5 24.8266 1.29949 24 2.28571 24H10.3214C11.3077 24 12.1071 24.8266 12.1071 25.8462V34.1538C12.1071 35.1734 11.3077 36 10.3214 36H2.28571C1.29949 36 0.5 35.1734 0.5 34.1538V25.8462Z" fill="#6D6D6D"/>
<path d="M13.8929 13.8462C13.8929 12.8266 14.6923 12 15.6786 12H23.7143C24.7005 12 25.5 12.8266 25.5 13.8462V22.1538C25.5 23.1734 24.7005 24 23.7143 24H15.6786C14.6923 24 13.8929 23.1734 13.8929 22.1538V13.8462Z" fill="#6D6D6D"/>
</svg>
