<svg width="39" height="33" viewBox="0 0 39 33" fill="none" xmlns="http://www.w3.org/2000/svg">
<path d="M23.9893 24.2891H14.7301C14.3092 24.2891 13.8883 24.4282 13.6077 24.7066L11.5034 26.2374C11.2228 26.5157 11.3631 27.0724 11.784 27.0724H26.9354C27.3563 27.0724 27.4966 26.5157 27.216 26.2374L25.1116 24.5674C24.831 24.4282 24.4101 24.2891 23.9893 24.2891Z" fill="#6D6D6D"/>
<path d="M14.0277 22.2015L18.3768 14.5473C18.5171 14.1298 18.6574 13.8515 18.6574 13.434L18.2365 10.3723C18.2365 9.9548 17.6754 9.81563 17.3948 10.2331L9.53842 23.5932C9.39813 24.0107 9.67871 24.4282 10.0996 24.1499L13.0457 22.8974C13.4666 22.8974 13.7472 22.619 14.0277 22.2015Z" fill="#6D6D6D"/>
<path d="M20.6206 14.6865L25.1099 22.3407C25.2502 22.7582 25.671 23.0365 25.9516 23.1757L28.7574 24.4282C29.1783 24.5674 29.4589 24.1499 29.3186 23.8716L21.4623 10.5115C21.322 10.094 20.7609 10.2332 20.6206 10.6507L20.1997 13.7123C20.34 13.8515 20.34 14.269 20.6206 14.6865Z" fill="#6D6D6D"/>
<path d="M21.8853 1.04814L21.4645 4.80565C21.4645 5.36232 21.4644 5.77982 21.745 6.19733L32.9683 25.5416C33.2489 25.9591 33.6698 26.3766 34.0907 26.5157L37.598 27.9074C38.0188 28.0466 38.4397 27.6291 38.1592 27.2116L22.8674 0.769806C22.5868 0.491472 21.8853 0.630639 21.8853 1.04814Z" fill="#6D6D6D"/>
<path d="M30.1606 29.0208H8.69614C8.13497 29.0208 7.7141 29.16 7.29323 29.4383L4.20682 31.665C3.78594 31.9433 4.06654 32.5 4.48741 32.5H34.2291C34.6499 32.5 34.9305 31.9433 34.5097 31.665L31.4233 29.4383C31.283 29.16 30.7218 29.0208 30.1606 29.0208Z" fill="#6D6D6D"/>
<path d="M5.89132 25.5416L17.1146 6.19739C17.3952 5.77989 17.5355 5.22322 17.3952 4.80572L16.9743 1.0482C16.9743 0.6307 16.2728 0.491533 16.1325 0.909034L0.840851 27.3508C0.560269 27.7683 0.981133 28.1858 1.402 28.0466L4.90927 26.655C5.33014 26.2375 5.75103 25.9591 5.89132 25.5416Z" fill="#6D6D6D"/>
</svg>
