<svg width="1706" height="359" viewBox="0 0 1706 359" fill="none" xmlns="http://www.w3.org/2000/svg">
<g style="mix-blend-mode:hard-light" filter="url(#filter0_f_1727_87)">
<ellipse cx="853" cy="179.424" rx="511.8" ry="107.655" fill="#FF922D" fill-opacity="0.188"/>
</g>
<g style="mix-blend-mode:hard-light" filter="url(#filter1_f_1727_87)">
<mask id="path-2-inside-1_1727_87" fill="white">
<path fill-rule="evenodd" clip-rule="evenodd" d="M464.56 127.024L426.5 269.136L478.668 227.984L492.456 176.543H564.482L575.492 135.391H503.466L505.725 127.024H464.56ZM588.031 127.024L560.984 227.984H602.142L629.189 127.024H588.031ZM639.481 127.024L601.421 269.136L653.589 227.984L667.377 176.543L694.747 227.984H746.196L718.825 176.543C746.263 176.543 764.064 161.249 772.227 130.659C772.559 129.422 772.859 128.211 773.124 127.024H730.556C731.383 127.839 731.621 128.913 731.274 130.247C730.315 133.676 726.406 135.391 719.545 135.391H678.387L680.647 127.024H639.481ZM783.531 127.024L756.485 227.984H869.669L880.678 186.832H808.653L811.429 176.543H883.458L894.468 135.391H822.439L824.701 127.024H783.531ZM948.177 127.024L910.107 269.136L962.275 227.984L989.336 127.024H948.177ZM1037.11 127.024L974.005 227.984H1015.16L1027.92 207.408H1075.15L1076.9 227.984H1118.06L1109.04 127.024H1037.11ZM1143.52 127.024C1137.28 135.866 1132.77 145.514 1129.99 155.967C1124.64 175.858 1127.11 192.833 1137.4 206.894C1147.69 220.954 1162.78 227.984 1182.68 227.984C1193.93 227.984 1204.8 225.755 1215.29 221.297L1202.54 269.136L1254.7 227.984L1279.5 135.391H1207.47L1196.46 176.543H1219.41L1217.97 177.778C1210.29 183.814 1202.19 186.832 1193.69 186.832C1185.18 186.832 1178.7 183.814 1174.24 177.778C1169.85 171.743 1168.82 164.472 1171.15 155.967C1173.42 147.463 1178.35 140.192 1185.97 134.157C1190.11 130.901 1194.38 128.523 1198.76 127.024H1143.52ZM1225.23 127.024C1225.72 127.339 1226.19 127.702 1226.65 128.121L1229.1 127.024H1225.23ZM1072.89 166.255L1070.83 135.391L1052.31 166.255H1072.89Z"/>
<path fill-rule="evenodd" clip-rule="evenodd" d="M1247.49 128.395L1274.01 114.815C1273.12 113.443 1272.2 112.106 1271.23 110.802C1260.95 96.7421 1245.86 89.7119 1225.96 89.7119C1206.07 89.7119 1187.21 96.7421 1169.37 110.802C1162.48 116.232 1156.53 122.096 1151.51 128.395H1247.49ZM1113.35 128.395L1109.9 89.7119H1068.74L1044.56 128.395H1113.35ZM1036.37 128.395L1046.72 89.7119H923.246L912.895 128.395H1036.37ZM902.606 128.395L912.954 89.7119H799.77L789.407 128.395H902.606ZM778.668 128.395C782.792 102.606 769.247 89.7119 738.033 89.7119H655.718L645.358 128.395H778.668ZM635.065 128.395L645.428 89.7119H604.27L593.907 128.395H635.065ZM583.631 128.395L593.981 89.7119H480.796L470.436 128.395H583.631Z"/>
</mask>
<path fill-rule="evenodd" clip-rule="evenodd" d="M464.56 127.024L426.5 269.136L478.668 227.984L492.456 176.543H564.482L575.492 135.391H503.466L505.725 127.024H464.56ZM588.031 127.024L560.984 227.984H602.142L629.189 127.024H588.031ZM639.481 127.024L601.421 269.136L653.589 227.984L667.377 176.543L694.747 227.984H746.196L718.825 176.543C746.263 176.543 764.064 161.249 772.227 130.659C772.559 129.422 772.859 128.211 773.124 127.024H730.556C731.383 127.839 731.621 128.913 731.274 130.247C730.315 133.676 726.406 135.391 719.545 135.391H678.387L680.647 127.024H639.481ZM783.531 127.024L756.485 227.984H869.669L880.678 186.832H808.653L811.429 176.543H883.458L894.468 135.391H822.439L824.701 127.024H783.531ZM948.177 127.024L910.107 269.136L962.275 227.984L989.336 127.024H948.177ZM1037.11 127.024L974.005 227.984H1015.16L1027.92 207.408H1075.15L1076.9 227.984H1118.06L1109.04 127.024H1037.11ZM1143.52 127.024C1137.28 135.866 1132.77 145.514 1129.99 155.967C1124.64 175.858 1127.11 192.833 1137.4 206.894C1147.69 220.954 1162.78 227.984 1182.68 227.984C1193.93 227.984 1204.8 225.755 1215.29 221.297L1202.54 269.136L1254.7 227.984L1279.5 135.391H1207.47L1196.46 176.543H1219.41L1217.97 177.778C1210.29 183.814 1202.19 186.832 1193.69 186.832C1185.18 186.832 1178.7 183.814 1174.24 177.778C1169.85 171.743 1168.82 164.472 1171.15 155.967C1173.42 147.463 1178.35 140.192 1185.97 134.157C1190.11 130.901 1194.38 128.523 1198.76 127.024H1143.52ZM1225.23 127.024C1225.72 127.339 1226.19 127.702 1226.65 128.121L1229.1 127.024H1225.23ZM1072.89 166.255L1070.83 135.391L1052.31 166.255H1072.89Z" stroke="#FFAB2D" stroke-width="27.9615" mask="url(#path-2-inside-1_1727_87)"/>
<path fill-rule="evenodd" clip-rule="evenodd" d="M1247.49 128.395L1274.01 114.815C1273.12 113.443 1272.2 112.106 1271.23 110.802C1260.95 96.7421 1245.86 89.7119 1225.96 89.7119C1206.07 89.7119 1187.21 96.7421 1169.37 110.802C1162.48 116.232 1156.53 122.096 1151.51 128.395H1247.49ZM1113.35 128.395L1109.9 89.7119H1068.74L1044.56 128.395H1113.35ZM1036.37 128.395L1046.72 89.7119H923.246L912.895 128.395H1036.37ZM902.606 128.395L912.954 89.7119H799.77L789.407 128.395H902.606ZM778.668 128.395C782.792 102.606 769.247 89.7119 738.033 89.7119H655.718L645.358 128.395H778.668ZM635.065 128.395L645.428 89.7119H604.27L593.907 128.395H635.065ZM583.631 128.395L593.981 89.7119H480.796L470.436 128.395H583.631Z" stroke="#FFAB2D" stroke-width="27.9615" mask="url(#path-2-inside-1_1727_87)"/>
</g>
<g style="mix-blend-mode:hard-light" filter="url(#filter2_f_1727_87)">
<mask id="path-3-inside-2_1727_87" fill="white">
<path fill-rule="evenodd" clip-rule="evenodd" d="M464.56 127.024L426.5 269.136L478.668 227.984L492.456 176.543H564.482L575.492 135.391H503.466L505.725 127.024H464.56ZM588.031 127.024L560.984 227.984H602.142L629.189 127.024H588.031ZM639.481 127.024L601.421 269.136L653.589 227.984L667.377 176.543L694.747 227.984H746.196L718.825 176.543C746.263 176.543 764.064 161.249 772.227 130.659C772.559 129.422 772.859 128.211 773.124 127.024H730.556C731.383 127.839 731.621 128.913 731.274 130.247C730.315 133.676 726.406 135.391 719.545 135.391H678.387L680.647 127.024H639.481ZM783.531 127.024L756.485 227.984H869.669L880.678 186.832H808.653L811.429 176.543H883.458L894.468 135.391H822.439L824.701 127.024H783.531ZM948.177 127.024L910.107 269.136L962.275 227.984L989.336 127.024H948.177ZM1037.11 127.024L974.005 227.984H1015.16L1027.92 207.408H1075.15L1076.9 227.984H1118.06L1109.04 127.024H1037.11ZM1143.52 127.024C1137.28 135.866 1132.77 145.514 1129.99 155.967C1124.64 175.858 1127.11 192.833 1137.4 206.894C1147.69 220.954 1162.78 227.984 1182.68 227.984C1193.93 227.984 1204.8 225.755 1215.29 221.297L1202.54 269.136L1254.7 227.984L1279.5 135.391H1207.47L1196.46 176.543H1219.41L1217.97 177.778C1210.29 183.814 1202.19 186.832 1193.69 186.832C1185.18 186.832 1178.7 183.814 1174.24 177.778C1169.85 171.743 1168.82 164.472 1171.15 155.967C1173.42 147.463 1178.35 140.192 1185.97 134.157C1190.11 130.901 1194.38 128.523 1198.76 127.024H1143.52ZM1225.23 127.024C1225.72 127.339 1226.19 127.702 1226.65 128.121L1229.1 127.024H1225.23ZM1072.89 166.255L1070.83 135.391L1052.31 166.255H1072.89Z"/>
<path fill-rule="evenodd" clip-rule="evenodd" d="M1247.49 128.395L1274.01 114.815C1273.12 113.443 1272.2 112.106 1271.23 110.802C1260.95 96.7421 1245.86 89.7119 1225.96 89.7119C1206.07 89.7119 1187.21 96.7421 1169.37 110.802C1162.48 116.232 1156.53 122.096 1151.51 128.395H1247.49ZM1113.35 128.395L1109.9 89.7119H1068.74L1044.56 128.395H1113.35ZM1036.37 128.395L1046.72 89.7119H923.246L912.895 128.395H1036.37ZM902.606 128.395L912.954 89.7119H799.77L789.407 128.395H902.606ZM778.668 128.395C782.792 102.606 769.247 89.7119 738.033 89.7119H655.718L645.358 128.395H778.668ZM635.065 128.395L645.428 89.7119H604.27L593.907 128.395H635.065ZM583.631 128.395L593.981 89.7119H480.796L470.436 128.395H583.631Z"/>
</mask>
<path fill-rule="evenodd" clip-rule="evenodd" d="M464.56 127.024L426.5 269.136L478.668 227.984L492.456 176.543H564.482L575.492 135.391H503.466L505.725 127.024H464.56ZM588.031 127.024L560.984 227.984H602.142L629.189 127.024H588.031ZM639.481 127.024L601.421 269.136L653.589 227.984L667.377 176.543L694.747 227.984H746.196L718.825 176.543C746.263 176.543 764.064 161.249 772.227 130.659C772.559 129.422 772.859 128.211 773.124 127.024H730.556C731.383 127.839 731.621 128.913 731.274 130.247C730.315 133.676 726.406 135.391 719.545 135.391H678.387L680.647 127.024H639.481ZM783.531 127.024L756.485 227.984H869.669L880.678 186.832H808.653L811.429 176.543H883.458L894.468 135.391H822.439L824.701 127.024H783.531ZM948.177 127.024L910.107 269.136L962.275 227.984L989.336 127.024H948.177ZM1037.11 127.024L974.005 227.984H1015.16L1027.92 207.408H1075.15L1076.9 227.984H1118.06L1109.04 127.024H1037.11ZM1143.52 127.024C1137.28 135.866 1132.77 145.514 1129.99 155.967C1124.64 175.858 1127.11 192.833 1137.4 206.894C1147.69 220.954 1162.78 227.984 1182.68 227.984C1193.93 227.984 1204.8 225.755 1215.29 221.297L1202.54 269.136L1254.7 227.984L1279.5 135.391H1207.47L1196.46 176.543H1219.41L1217.97 177.778C1210.29 183.814 1202.19 186.832 1193.69 186.832C1185.18 186.832 1178.7 183.814 1174.24 177.778C1169.85 171.743 1168.82 164.472 1171.15 155.967C1173.42 147.463 1178.35 140.192 1185.97 134.157C1190.11 130.901 1194.38 128.523 1198.76 127.024H1143.52ZM1225.23 127.024C1225.72 127.339 1226.19 127.702 1226.65 128.121L1229.1 127.024H1225.23ZM1072.89 166.255L1070.83 135.391L1052.31 166.255H1072.89Z" stroke="#FFAB2D" stroke-width="36.565" mask="url(#path-3-inside-2_1727_87)"/>
<path fill-rule="evenodd" clip-rule="evenodd" d="M1247.49 128.395L1274.01 114.815C1273.12 113.443 1272.2 112.106 1271.23 110.802C1260.95 96.7421 1245.86 89.7119 1225.96 89.7119C1206.07 89.7119 1187.21 96.7421 1169.37 110.802C1162.48 116.232 1156.53 122.096 1151.51 128.395H1247.49ZM1113.35 128.395L1109.9 89.7119H1068.74L1044.56 128.395H1113.35ZM1036.37 128.395L1046.72 89.7119H923.246L912.895 128.395H1036.37ZM902.606 128.395L912.954 89.7119H799.77L789.407 128.395H902.606ZM778.668 128.395C782.792 102.606 769.247 89.7119 738.033 89.7119H655.718L645.358 128.395H778.668ZM635.065 128.395L645.428 89.7119H604.27L593.907 128.395H635.065ZM583.631 128.395L593.981 89.7119H480.796L470.436 128.395H583.631Z" stroke="#FFAB2D" stroke-width="36.565" mask="url(#path-3-inside-2_1727_87)"/>
</g>
<g style="mix-blend-mode:hard-light" filter="url(#filter3_ddi_1727_87)">
<mask id="path-4-inside-3_1727_87" fill="white">
<path fill-rule="evenodd" clip-rule="evenodd" d="M464.56 127.024L426.5 269.136L478.668 227.984L492.456 176.543H564.482L575.492 135.391H503.466L505.725 127.024H464.56ZM588.031 127.024L560.984 227.984H602.142L629.189 127.024H588.031ZM639.481 127.024L601.421 269.136L653.589 227.984L667.377 176.543L694.747 227.984H746.196L718.825 176.543C746.263 176.543 764.064 161.249 772.227 130.659C772.559 129.422 772.859 128.211 773.124 127.024H730.556C731.383 127.839 731.621 128.913 731.274 130.247C730.315 133.676 726.406 135.391 719.545 135.391H678.387L680.647 127.024H639.481ZM783.531 127.024L756.485 227.984H869.669L880.678 186.832H808.653L811.429 176.543H883.458L894.468 135.391H822.439L824.701 127.024H783.531ZM948.177 127.024L910.107 269.136L962.275 227.984L989.336 127.024H948.177ZM1037.11 127.024L974.005 227.984H1015.16L1027.92 207.408H1075.15L1076.9 227.984H1118.06L1109.04 127.024H1037.11ZM1143.52 127.024C1137.28 135.866 1132.77 145.514 1129.99 155.967C1124.64 175.858 1127.11 192.833 1137.4 206.894C1147.69 220.954 1162.78 227.984 1182.68 227.984C1193.93 227.984 1204.8 225.755 1215.29 221.297L1202.54 269.136L1254.7 227.984L1279.5 135.391H1207.47L1196.46 176.543H1219.41L1217.97 177.778C1210.29 183.814 1202.19 186.832 1193.69 186.832C1185.18 186.832 1178.7 183.814 1174.24 177.778C1169.85 171.743 1168.82 164.472 1171.15 155.967C1173.42 147.463 1178.35 140.192 1185.97 134.157C1190.11 130.901 1194.38 128.523 1198.76 127.024H1143.52ZM1225.23 127.024C1225.72 127.339 1226.19 127.702 1226.65 128.121L1229.1 127.024H1225.23ZM1072.89 166.255L1070.83 135.391L1052.31 166.255H1072.89Z"/>
<path fill-rule="evenodd" clip-rule="evenodd" d="M1247.49 128.395L1274.01 114.815C1273.12 113.443 1272.2 112.106 1271.23 110.802C1260.95 96.7421 1245.86 89.7119 1225.96 89.7119C1206.07 89.7119 1187.21 96.7421 1169.37 110.802C1162.48 116.232 1156.53 122.096 1151.51 128.395H1247.49ZM1113.35 128.395L1109.9 89.7119H1068.74L1044.56 128.395H1113.35ZM1036.37 128.395L1046.72 89.7119H923.246L912.895 128.395H1036.37ZM902.606 128.395L912.954 89.7119H799.77L789.407 128.395H902.606ZM778.668 128.395C782.792 102.606 769.247 89.7119 738.033 89.7119H655.718L645.358 128.395H778.668ZM635.065 128.395L645.428 89.7119H604.27L593.907 128.395H635.065ZM583.631 128.395L593.981 89.7119H480.796L470.436 128.395H583.631Z"/>
</mask>
<path fill-rule="evenodd" clip-rule="evenodd" d="M464.56 127.024L426.5 269.136L478.668 227.984L492.456 176.543H564.482L575.492 135.391H503.466L505.725 127.024H464.56ZM588.031 127.024L560.984 227.984H602.142L629.189 127.024H588.031ZM639.481 127.024L601.421 269.136L653.589 227.984L667.377 176.543L694.747 227.984H746.196L718.825 176.543C746.263 176.543 764.064 161.249 772.227 130.659C772.559 129.422 772.859 128.211 773.124 127.024H730.556C731.383 127.839 731.621 128.913 731.274 130.247C730.315 133.676 726.406 135.391 719.545 135.391H678.387L680.647 127.024H639.481ZM783.531 127.024L756.485 227.984H869.669L880.678 186.832H808.653L811.429 176.543H883.458L894.468 135.391H822.439L824.701 127.024H783.531ZM948.177 127.024L910.107 269.136L962.275 227.984L989.336 127.024H948.177ZM1037.11 127.024L974.005 227.984H1015.16L1027.92 207.408H1075.15L1076.9 227.984H1118.06L1109.04 127.024H1037.11ZM1143.52 127.024C1137.28 135.866 1132.77 145.514 1129.99 155.967C1124.64 175.858 1127.11 192.833 1137.4 206.894C1147.69 220.954 1162.78 227.984 1182.68 227.984C1193.93 227.984 1204.8 225.755 1215.29 221.297L1202.54 269.136L1254.7 227.984L1279.5 135.391H1207.47L1196.46 176.543H1219.41L1217.97 177.778C1210.29 183.814 1202.19 186.832 1193.69 186.832C1185.18 186.832 1178.7 183.814 1174.24 177.778C1169.85 171.743 1168.82 164.472 1171.15 155.967C1173.42 147.463 1178.35 140.192 1185.97 134.157C1190.11 130.901 1194.38 128.523 1198.76 127.024H1143.52ZM1225.23 127.024C1225.72 127.339 1226.19 127.702 1226.65 128.121L1229.1 127.024H1225.23ZM1072.89 166.255L1070.83 135.391L1052.31 166.255H1072.89Z" stroke="#FFC940" stroke-opacity="0.2" stroke-width="27.9615" mask="url(#path-4-inside-3_1727_87)"/>
<path fill-rule="evenodd" clip-rule="evenodd" d="M1247.49 128.395L1274.01 114.815C1273.12 113.443 1272.2 112.106 1271.23 110.802C1260.95 96.7421 1245.86 89.7119 1225.96 89.7119C1206.07 89.7119 1187.21 96.7421 1169.37 110.802C1162.48 116.232 1156.53 122.096 1151.51 128.395H1247.49ZM1113.35 128.395L1109.9 89.7119H1068.74L1044.56 128.395H1113.35ZM1036.37 128.395L1046.72 89.7119H923.246L912.895 128.395H1036.37ZM902.606 128.395L912.954 89.7119H799.77L789.407 128.395H902.606ZM778.668 128.395C782.792 102.606 769.247 89.7119 738.033 89.7119H655.718L645.358 128.395H778.668ZM635.065 128.395L645.428 89.7119H604.27L593.907 128.395H635.065ZM583.631 128.395L593.981 89.7119H480.796L470.436 128.395H583.631Z" stroke="#FFC940" stroke-opacity="0.2" stroke-width="27.9615" mask="url(#path-4-inside-3_1727_87)"/>
</g>
<g filter="url(#filter4_f_1727_87)">
<mask id="path-5-inside-4_1727_87" fill="white">
<path fill-rule="evenodd" clip-rule="evenodd" d="M464.56 127.024L426.5 269.136L478.668 227.984L492.456 176.543H564.482L575.492 135.391H503.466L505.725 127.024H464.56ZM588.031 127.024L560.984 227.984H602.142L629.189 127.024H588.031ZM639.481 127.024L601.421 269.136L653.589 227.984L667.377 176.543L694.747 227.984H746.196L718.825 176.543C746.263 176.543 764.064 161.249 772.227 130.659C772.559 129.422 772.859 128.211 773.124 127.024H730.556C731.383 127.839 731.621 128.913 731.274 130.247C730.315 133.676 726.406 135.391 719.545 135.391H678.387L680.647 127.024H639.481ZM783.531 127.024L756.485 227.984H869.669L880.678 186.832H808.653L811.429 176.543H883.458L894.468 135.391H822.439L824.701 127.024H783.531ZM948.177 127.024L910.107 269.136L962.275 227.984L989.336 127.024H948.177ZM1037.11 127.024L974.005 227.984H1015.16L1027.92 207.408H1075.15L1076.9 227.984H1118.06L1109.04 127.024H1037.11ZM1143.52 127.024C1137.28 135.866 1132.77 145.514 1129.99 155.967C1124.64 175.858 1127.11 192.833 1137.4 206.894C1147.69 220.954 1162.78 227.984 1182.68 227.984C1193.93 227.984 1204.8 225.755 1215.29 221.297L1202.54 269.136L1254.7 227.984L1279.5 135.391H1207.47L1196.46 176.543H1219.41L1217.97 177.778C1210.29 183.814 1202.19 186.832 1193.69 186.832C1185.18 186.832 1178.7 183.814 1174.24 177.778C1169.85 171.743 1168.82 164.472 1171.15 155.967C1173.42 147.463 1178.35 140.192 1185.97 134.157C1190.11 130.901 1194.38 128.523 1198.76 127.024H1143.52ZM1225.23 127.024C1225.72 127.339 1226.19 127.702 1226.65 128.121L1229.1 127.024H1225.23ZM1072.89 166.255L1070.83 135.391L1052.31 166.255H1072.89Z"/>
<path fill-rule="evenodd" clip-rule="evenodd" d="M1247.49 128.395L1274.01 114.815C1273.12 113.443 1272.2 112.106 1271.23 110.802C1260.95 96.7421 1245.86 89.7119 1225.96 89.7119C1206.07 89.7119 1187.21 96.7421 1169.37 110.802C1162.48 116.232 1156.53 122.096 1151.51 128.395H1247.49ZM1113.35 128.395L1109.9 89.7119H1068.74L1044.56 128.395H1113.35ZM1036.37 128.395L1046.72 89.7119H923.246L912.895 128.395H1036.37ZM902.606 128.395L912.954 89.7119H799.77L789.407 128.395H902.606ZM778.668 128.395C782.792 102.606 769.247 89.7119 738.033 89.7119H655.718L645.358 128.395H778.668ZM635.065 128.395L645.428 89.7119H604.27L593.907 128.395H635.065ZM583.631 128.395L593.981 89.7119H480.796L470.436 128.395H583.631Z"/>
</mask>
<path fill-rule="evenodd" clip-rule="evenodd" d="M464.56 127.024L426.5 269.136L478.668 227.984L492.456 176.543H564.482L575.492 135.391H503.466L505.725 127.024H464.56ZM588.031 127.024L560.984 227.984H602.142L629.189 127.024H588.031ZM639.481 127.024L601.421 269.136L653.589 227.984L667.377 176.543L694.747 227.984H746.196L718.825 176.543C746.263 176.543 764.064 161.249 772.227 130.659C772.559 129.422 772.859 128.211 773.124 127.024H730.556C731.383 127.839 731.621 128.913 731.274 130.247C730.315 133.676 726.406 135.391 719.545 135.391H678.387L680.647 127.024H639.481ZM783.531 127.024L756.485 227.984H869.669L880.678 186.832H808.653L811.429 176.543H883.458L894.468 135.391H822.439L824.701 127.024H783.531ZM948.177 127.024L910.107 269.136L962.275 227.984L989.336 127.024H948.177ZM1037.11 127.024L974.005 227.984H1015.16L1027.92 207.408H1075.15L1076.9 227.984H1118.06L1109.04 127.024H1037.11ZM1143.52 127.024C1137.28 135.866 1132.77 145.514 1129.99 155.967C1124.64 175.858 1127.11 192.833 1137.4 206.894C1147.69 220.954 1162.78 227.984 1182.68 227.984C1193.93 227.984 1204.8 225.755 1215.29 221.297L1202.54 269.136L1254.7 227.984L1279.5 135.391H1207.47L1196.46 176.543H1219.41L1217.97 177.778C1210.29 183.814 1202.19 186.832 1193.69 186.832C1185.18 186.832 1178.7 183.814 1174.24 177.778C1169.85 171.743 1168.82 164.472 1171.15 155.967C1173.42 147.463 1178.35 140.192 1185.97 134.157C1190.11 130.901 1194.38 128.523 1198.76 127.024H1143.52ZM1225.23 127.024C1225.72 127.339 1226.19 127.702 1226.65 128.121L1229.1 127.024H1225.23ZM1072.89 166.255L1070.83 135.391L1052.31 166.255H1072.89Z" stroke="#FFD56A" stroke-width="17.2071" mask="url(#path-5-inside-4_1727_87)"/>
<path fill-rule="evenodd" clip-rule="evenodd" d="M1247.49 128.395L1274.01 114.815C1273.12 113.443 1272.2 112.106 1271.23 110.802C1260.95 96.7421 1245.86 89.7119 1225.96 89.7119C1206.07 89.7119 1187.21 96.7421 1169.37 110.802C1162.48 116.232 1156.53 122.096 1151.51 128.395H1247.49ZM1113.35 128.395L1109.9 89.7119H1068.74L1044.56 128.395H1113.35ZM1036.37 128.395L1046.72 89.7119H923.246L912.895 128.395H1036.37ZM902.606 128.395L912.954 89.7119H799.77L789.407 128.395H902.606ZM778.668 128.395C782.792 102.606 769.247 89.7119 738.033 89.7119H655.718L645.358 128.395H778.668ZM635.065 128.395L645.428 89.7119H604.27L593.907 128.395H635.065ZM583.631 128.395L593.981 89.7119H480.796L470.436 128.395H583.631Z" stroke="#FFD56A" stroke-width="17.2071" mask="url(#path-5-inside-4_1727_87)"/>
</g>
<g filter="url(#filter5_f_1727_87)">
<mask id="path-6-inside-5_1727_87" fill="white">
<path fill-rule="evenodd" clip-rule="evenodd" d="M464.56 127.024L426.5 269.136L478.668 227.984L492.456 176.543H564.482L575.492 135.391H503.466L505.725 127.024H464.56ZM588.031 127.024L560.984 227.984H602.142L629.189 127.024H588.031ZM639.481 127.024L601.421 269.136L653.589 227.984L667.377 176.543L694.747 227.984H746.196L718.825 176.543C746.263 176.543 764.064 161.249 772.227 130.659C772.559 129.422 772.859 128.211 773.124 127.024H730.556C731.383 127.839 731.621 128.913 731.274 130.247C730.315 133.676 726.406 135.391 719.545 135.391H678.387L680.647 127.024H639.481ZM783.531 127.024L756.485 227.984H869.669L880.678 186.832H808.653L811.429 176.543H883.458L894.468 135.391H822.439L824.701 127.024H783.531ZM948.177 127.024L910.107 269.136L962.275 227.984L989.336 127.024H948.177ZM1037.11 127.024L974.005 227.984H1015.16L1027.92 207.408H1075.15L1076.9 227.984H1118.06L1109.04 127.024H1037.11ZM1143.52 127.024C1137.28 135.866 1132.77 145.514 1129.99 155.967C1124.64 175.858 1127.11 192.833 1137.4 206.894C1147.69 220.954 1162.78 227.984 1182.68 227.984C1193.93 227.984 1204.8 225.755 1215.29 221.297L1202.54 269.136L1254.7 227.984L1279.5 135.391H1207.47L1196.46 176.543H1219.41L1217.97 177.778C1210.29 183.814 1202.19 186.832 1193.69 186.832C1185.18 186.832 1178.7 183.814 1174.24 177.778C1169.85 171.743 1168.82 164.472 1171.15 155.967C1173.42 147.463 1178.35 140.192 1185.97 134.157C1190.11 130.901 1194.38 128.523 1198.76 127.024H1143.52ZM1225.23 127.024C1225.72 127.339 1226.19 127.702 1226.65 128.121L1229.1 127.024H1225.23ZM1072.89 166.255L1070.83 135.391L1052.31 166.255H1072.89Z"/>
<path fill-rule="evenodd" clip-rule="evenodd" d="M1247.49 128.395L1274.01 114.815C1273.12 113.443 1272.2 112.106 1271.23 110.802C1260.95 96.7421 1245.86 89.7119 1225.96 89.7119C1206.07 89.7119 1187.21 96.7421 1169.37 110.802C1162.48 116.232 1156.53 122.096 1151.51 128.395H1247.49ZM1113.35 128.395L1109.9 89.7119H1068.74L1044.56 128.395H1113.35ZM1036.37 128.395L1046.72 89.7119H923.246L912.895 128.395H1036.37ZM902.606 128.395L912.954 89.7119H799.77L789.407 128.395H902.606ZM778.668 128.395C782.792 102.606 769.247 89.7119 738.033 89.7119H655.718L645.358 128.395H778.668ZM635.065 128.395L645.428 89.7119H604.27L593.907 128.395H635.065ZM583.631 128.395L593.981 89.7119H480.796L470.436 128.395H583.631Z"/>
</mask>
<path fill-rule="evenodd" clip-rule="evenodd" d="M464.56 127.024L426.5 269.136L478.668 227.984L492.456 176.543H564.482L575.492 135.391H503.466L505.725 127.024H464.56ZM588.031 127.024L560.984 227.984H602.142L629.189 127.024H588.031ZM639.481 127.024L601.421 269.136L653.589 227.984L667.377 176.543L694.747 227.984H746.196L718.825 176.543C746.263 176.543 764.064 161.249 772.227 130.659C772.559 129.422 772.859 128.211 773.124 127.024H730.556C731.383 127.839 731.621 128.913 731.274 130.247C730.315 133.676 726.406 135.391 719.545 135.391H678.387L680.647 127.024H639.481ZM783.531 127.024L756.485 227.984H869.669L880.678 186.832H808.653L811.429 176.543H883.458L894.468 135.391H822.439L824.701 127.024H783.531ZM948.177 127.024L910.107 269.136L962.275 227.984L989.336 127.024H948.177ZM1037.11 127.024L974.005 227.984H1015.16L1027.92 207.408H1075.15L1076.9 227.984H1118.06L1109.04 127.024H1037.11ZM1143.52 127.024C1137.28 135.866 1132.77 145.514 1129.99 155.967C1124.64 175.858 1127.11 192.833 1137.4 206.894C1147.69 220.954 1162.78 227.984 1182.68 227.984C1193.93 227.984 1204.8 225.755 1215.29 221.297L1202.54 269.136L1254.7 227.984L1279.5 135.391H1207.47L1196.46 176.543H1219.41L1217.97 177.778C1210.29 183.814 1202.19 186.832 1193.69 186.832C1185.18 186.832 1178.7 183.814 1174.24 177.778C1169.85 171.743 1168.82 164.472 1171.15 155.967C1173.42 147.463 1178.35 140.192 1185.97 134.157C1190.11 130.901 1194.38 128.523 1198.76 127.024H1143.52ZM1225.23 127.024C1225.72 127.339 1226.19 127.702 1226.65 128.121L1229.1 127.024H1225.23ZM1072.89 166.255L1070.83 135.391L1052.31 166.255H1072.89Z" stroke="white" stroke-width="8.60354" mask="url(#path-6-inside-5_1727_87)"/>
<path fill-rule="evenodd" clip-rule="evenodd" d="M1247.49 128.395L1274.01 114.815C1273.12 113.443 1272.2 112.106 1271.23 110.802C1260.95 96.7421 1245.86 89.7119 1225.96 89.7119C1206.07 89.7119 1187.21 96.7421 1169.37 110.802C1162.48 116.232 1156.53 122.096 1151.51 128.395H1247.49ZM1113.35 128.395L1109.9 89.7119H1068.74L1044.56 128.395H1113.35ZM1036.37 128.395L1046.72 89.7119H923.246L912.895 128.395H1036.37ZM902.606 128.395L912.954 89.7119H799.77L789.407 128.395H902.606ZM778.668 128.395C782.792 102.606 769.247 89.7119 738.033 89.7119H655.718L645.358 128.395H778.668ZM635.065 128.395L645.428 89.7119H604.27L593.907 128.395H635.065ZM583.631 128.395L593.981 89.7119H480.796L470.436 128.395H583.631Z" stroke="white" stroke-width="8.60354" mask="url(#path-6-inside-5_1727_87)"/>
</g>
<defs>
<filter id="filter0_f_1727_87" x="280.545" y="11.1148" width="1144.91" height="336.619" filterUnits="userSpaceOnUse" color-interpolation-filters="sRGB">
<feFlood flood-opacity="0" result="BackgroundImageFix"/>
<feBlend mode="normal" in="SourceGraphic" in2="BackgroundImageFix" result="shape"/>
<feGaussianBlur stdDeviation="30.3275" result="effect1_foregroundBlur_1727_87"/>
</filter>
<filter id="filter1_f_1727_87" x="365.845" y="29.057" width="974.31" height="300.734" filterUnits="userSpaceOnUse" color-interpolation-filters="sRGB">
<feFlood flood-opacity="0" result="BackgroundImageFix"/>
<feBlend mode="normal" in="SourceGraphic" in2="BackgroundImageFix" result="shape"/>
<feGaussianBlur stdDeviation="30.3275" result="effect1_foregroundBlur_1727_87"/>
</filter>
<filter id="filter2_f_1727_87" x="406.282" y="69.4936" width="893.437" height="219.861" filterUnits="userSpaceOnUse" color-interpolation-filters="sRGB">
<feFlood flood-opacity="0" result="BackgroundImageFix"/>
<feBlend mode="normal" in="SourceGraphic" in2="BackgroundImageFix" result="shape"/>
<feGaussianBlur stdDeviation="10.1092" result="effect1_foregroundBlur_1727_87"/>
</filter>
<filter id="filter3_ddi_1727_87" x="400.216" y="83.6464" width="905.568" height="231.992" filterUnits="userSpaceOnUse" color-interpolation-filters="sRGB">
<feFlood flood-opacity="0" result="BackgroundImageFix"/>
<feColorMatrix in="SourceAlpha" type="matrix" values="0 0 0 0 0 0 0 0 0 0 0 0 0 0 0 0 0 0 127 0" result="hardAlpha"/>
<feOffset dy="13.9807"/>
<feGaussianBlur stdDeviation="5.37721"/>
<feColorMatrix type="matrix" values="0 0 0 0 0.224 0 0 0 0 0.15 0 0 0 0 0 0 0 0 0.7 0"/>
<feBlend mode="multiply" in2="BackgroundImageFix" result="effect1_dropShadow_1727_87"/>
<feColorMatrix in="SourceAlpha" type="matrix" values="0 0 0 0 0 0 0 0 0 0 0 0 0 0 0 0 0 0 127 0" result="hardAlpha"/>
<feOffset dy="20.2183"/>
<feGaussianBlur stdDeviation="13.1419"/>
<feColorMatrix type="matrix" values="0 0 0 0 0.56 0 0 0 0 0.44 0 0 0 0 0 0 0 0 1 0"/>
<feBlend mode="color-dodge" in2="effect1_dropShadow_1727_87" result="effect2_dropShadow_1727_87"/>
<feBlend mode="normal" in="SourceGraphic" in2="effect2_dropShadow_1727_87" result="shape"/>
<feColorMatrix in="SourceAlpha" type="matrix" values="0 0 0 0 0 0 0 0 0 0 0 0 0 0 0 0 0 0 127 0" result="hardAlpha"/>
<feOffset dx="-1.39807" dy="2.79615"/>
<feGaussianBlur stdDeviation="0.699037"/>
<feComposite in2="hardAlpha" operator="arithmetic" k2="-1" k3="1"/>
<feColorMatrix type="matrix" values="0 0 0 0 1 0 0 0 0 1 0 0 0 0 1 0 0 0 0.5 0"/>
<feBlend mode="normal" in2="shape" result="effect3_innerShadow_1727_87"/>
</filter>
<filter id="filter4_f_1727_87" x="424.349" y="87.561" width="857.302" height="183.726" filterUnits="userSpaceOnUse" color-interpolation-filters="sRGB">
<feFlood flood-opacity="0" result="BackgroundImageFix"/>
<feBlend mode="normal" in="SourceGraphic" in2="BackgroundImageFix" result="shape"/>
<feGaussianBlur stdDeviation="1.07544" result="effect1_foregroundBlur_1727_87"/>
</filter>
<filter id="filter5_f_1727_87" x="425.066" y="88.278" width="855.868" height="182.292" filterUnits="userSpaceOnUse" color-interpolation-filters="sRGB">
<feFlood flood-opacity="0" result="BackgroundImageFix"/>
<feBlend mode="normal" in="SourceGraphic" in2="BackgroundImageFix" result="shape"/>
<feGaussianBlur stdDeviation="0.716961" result="effect1_foregroundBlur_1727_87"/>
</filter>
</defs>
</svg>
